<svg width="22" height="22" viewBox="0 0 22 22" fill="none" xmlns="http://www.w3.org/2000/svg">
<path d="M9.96993 1.69363C10.3633 0.76879 11.639 0.76879 12.0312 1.69363L14.0003 6.34326C14.082 6.53561 14.213 6.70148 14.3793 6.82307C14.5456 6.94465 14.741 7.01737 14.9444 7.03342L19.9605 7.42879C20.972 7.50856 21.371 8.81605 20.5854 9.47616L16.8427 12.6241C16.6779 12.7628 16.5547 12.9469 16.4877 13.1548C16.4206 13.3628 16.4124 13.5861 16.464 13.7986L17.6216 18.5604C17.8621 19.5523 16.8236 20.3546 15.9649 19.839L11.567 17.202C11.3951 17.0988 11.1996 17.0445 11.0006 17.0445C10.8015 17.0445 10.606 17.0988 10.4341 17.202L6.0362 19.839C5.17752 20.3546 4.13902 19.5523 4.37954 18.5604L5.53718 13.7986C5.58825 13.586 5.57956 13.3628 5.5121 13.1551C5.44465 12.9474 5.32121 12.7636 5.15617 12.6252L1.4135 9.47731C0.629005 8.81721 1.02912 7.50972 2.03953 7.42995L7.05447 7.03458C7.25792 7.01853 7.45329 6.94581 7.61961 6.82422C7.78593 6.70264 7.91693 6.53677 7.99857 6.34442L9.9688 1.69479L9.96993 1.69363Z" stroke="#FFA93C" stroke-width="2"/>
</svg>
