<svg width="20" height="20" viewBox="0 0 20 20" fill="none" xmlns="http://www.w3.org/2000/svg">
<path d="M8.98091 2.31985C9.33091 1.50048 10.4659 1.50048 10.8149 2.31985L12.5669 6.43926C12.6395 6.60968 12.7561 6.75663 12.9041 6.86435C13.0521 6.97207 13.2259 7.03649 13.4069 7.05072L17.8699 7.401C18.7699 7.47167 19.1249 8.63006 18.4259 9.21489L15.0959 12.0038C14.9492 12.1268 14.8397 12.2898 14.78 12.4741C14.7204 12.6583 14.713 12.8561 14.7589 13.0444L15.7889 17.2632C16.0029 18.142 15.0789 18.8528 14.3149 18.396L10.4019 16.0597C10.2489 15.9683 10.075 15.9201 9.89791 15.9201C9.72081 15.9201 9.54688 15.9683 9.39391 16.0597L5.48091 18.396C4.71691 18.8528 3.79291 18.142 4.00691 17.2632L5.03691 13.0444C5.08235 12.8561 5.07462 12.6583 5.0146 12.4743C4.95459 12.2903 4.84476 12.1275 4.69791 12.0049L1.36791 9.21591C0.669911 8.63108 1.02591 7.47269 1.92491 7.40202L6.38691 7.05174C6.56793 7.03752 6.74175 6.97309 6.88974 6.86537C7.03772 6.75765 7.15428 6.6107 7.22691 6.44028L8.97991 2.32088L8.98091 2.31985Z" stroke="#FFA93C" stroke-width="2"/>
</svg>
