<svg width="20" height="21" viewBox="0 0 20 21" fill="none" xmlns="http://www.w3.org/2000/svg">
<path d="M8.61328 2.12061C9.11144 0.907703 10.7647 0.869184 11.335 2.00635L11.3867 2.12061L13.1406 6.39014L13.2568 6.67334L13.5625 6.69873L18.1143 7.06689C19.3957 7.17115 19.9599 8.7578 19.0605 9.6665L18.9688 9.75244L15.501 12.7612L15.2725 12.9595L15.3418 13.2544L16.4023 17.7505C16.7072 19.0479 15.3736 20.0446 14.2666 19.4731L14.1602 19.4126L10.2627 17.0015L10 16.8384L9.73633 17.0015L5.83984 19.4116C4.74894 20.0864 3.37172 19.1505 3.57324 17.8745L3.59766 17.7505L4.65723 13.2515L4.72656 12.9575L4.49805 12.7593L1.03027 9.75146C0.0354218 8.88836 0.529682 7.27724 1.76367 7.08057L1.88477 7.06592H1.88574L6.4375 6.69678L6.74316 6.67139L6.85938 6.38818L8.61328 2.12061Z" fill="#FFA93C" stroke="#FFA93C"/>
</svg>
