<svg width="18" height="18" viewBox="0 0 18 18" fill="none" xmlns="http://www.w3.org/2000/svg">
<path d="M7.7998 1.34082C8.23391 0.254568 9.65946 0.220652 10.1553 1.23926L10.2002 1.34082L11.7783 5.29004L11.8936 5.57715L12.2012 5.60352L16.2979 5.94434C17.3893 6.0356 17.9161 7.45761 17.1162 8.28809L17.0352 8.36719L13.9131 11.1504L13.6924 11.3467L13.7588 11.6348L14.7129 15.7939C14.9888 16.9994 13.7971 17.8425 12.8652 17.3496L12.7754 17.2969L9.26855 15.0674L9 14.8965L8.73145 15.0674L5.22461 17.2959C4.311 17.8767 3.08155 17.0893 3.26465 15.9092L3.28711 15.7939L4.24121 11.6328L4.30762 11.3447L4.08691 11.1484L0.964844 8.36621C0.078248 7.57568 0.544214 6.13074 1.59766 5.95605L1.70215 5.94336L5.79883 5.60156L6.10645 5.5752L6.22168 5.28906L7.7998 1.34082Z" fill="#FFA93C" stroke="#FFA93C"/>
</svg>
