<svg width="45" height="44" viewBox="0 0 45 44" fill="none" xmlns="http://www.w3.org/2000/svg">
<ellipse cx="21.8363" cy="40" rx="4.57068" ry="2" fill="#4E4E4E" fill-opacity="0.36"/>
<mask id="mask0_6800_17495" style="mask-type:alpha" maskUnits="userSpaceOnUse" x="0" y="0" width="45" height="44">
<rect width="44.6911" height="44" fill="#D9D9D9"/>
</mask>
<g mask="url(#mask0_6800_17495)">
<path d="M23.2826 39.5802C22.5497 40.2146 21.4632 40.2146 20.7302 39.5802C16.3695 35.8058 13.0629 32.2798 10.8104 29.0021C8.34304 25.4118 7.10938 22.0889 7.10938 19.0333C7.10938 14.45 8.60684 10.7986 11.6018 8.07917C14.5967 5.35972 18.0649 4 22.0064 4C25.9479 4 29.4161 5.35972 32.4111 8.07917C35.406 10.7986 36.9034 14.45 36.9034 19.0333C36.9034 22.0889 35.6698 25.4118 33.2025 29.0021C30.9499 32.2798 27.6433 35.8058 23.2826 39.5802Z" fill="#5DDEFB"/>
<mask id="mask1_6800_17495" style="mask-type:alpha" maskUnits="userSpaceOnUse" x="15" y="12" width="15" height="15">
<rect x="15.2344" y="12.333" width="14.2199" height="14" fill="#D9D9D9"/>
</mask>
<g mask="url(#mask1_6800_17495)">
<path d="M19.379 25.1657V19.8282C18.8754 19.6921 18.4533 19.4199 18.1126 19.0115C17.7719 18.6032 17.6016 18.1268 17.6016 17.5824V13.499H18.7866V17.5824H19.379V13.499H20.564V17.5824H21.1565V13.499H22.3415V17.5824C22.3415 18.1268 22.1712 18.6032 21.8305 19.0115C21.4898 19.4199 21.0677 19.6921 20.564 19.8282V25.1657H19.379ZM25.304 25.1657V20.499H23.5265V16.4157C23.5265 15.6087 23.8154 14.9209 24.393 14.3521C24.9707 13.7834 25.6694 13.499 26.489 13.499V25.1657H25.304Z" fill="white"/>
</g>
</g>
</svg>
