<svg width="57" height="56" viewBox="0 0 57 56" fill="none" xmlns="http://www.w3.org/2000/svg">
<ellipse cx="27.7938" cy="50.9087" rx="5.81723" ry="2.54545" fill="#4E4E4E" fill-opacity="0.36"/>
<mask id="mask0_6800_17481" style="mask-type:alpha" maskUnits="userSpaceOnUse" x="0" y="0" width="57" height="56">
<rect width="56.8796" height="56" fill="#D9D9D9"/>
</mask>
<g mask="url(#mask0_6800_17481)">
<path d="M29.2849 50.6741C28.5497 51.3059 27.4638 51.3059 26.7285 50.6741C21.0071 45.7577 16.6834 41.1706 13.7572 36.9126C10.617 32.3432 9.04688 28.114 9.04688 24.2251C9.04688 18.3918 10.9527 13.7446 14.7645 10.2835C18.5762 6.82235 22.9903 5.0918 28.0067 5.0918C33.0232 5.0918 37.4373 6.82235 41.249 10.2835C45.0607 13.7446 46.9666 18.3918 46.9666 24.2251C46.9666 28.114 45.3965 32.3432 42.2563 36.9126C39.3301 41.1706 35.0063 45.7577 29.2849 50.6741Z" fill="url(#paint0_linear_6800_17481)"/>
</g>
<mask id="mask1_6800_17481" style="mask-type:alpha" maskUnits="userSpaceOnUse" x="19" y="15" width="18" height="19">
<rect x="19" y="15.5" width="18" height="18" fill="#D9D9D9"/>
</mask>
<g mask="url(#mask1_6800_17481)">
<path d="M20.5 32.001C20.8625 31.076 21.1031 30.1229 21.2219 29.1416C21.3406 28.1604 21.4125 27.176 21.4375 26.1885C20.95 26.001 20.5469 25.6885 20.2281 25.251C19.9094 24.8135 19.75 24.3135 19.75 23.751V22.251C21.1875 21.776 22.6531 21.051 24.1469 20.076C25.6406 19.101 26.925 18.076 28 17.001C29.075 18.076 30.3594 19.101 31.8531 20.076C33.3469 21.051 34.8125 21.776 36.25 22.251V23.751C36.25 24.3135 36.0906 24.8135 35.7719 25.251C35.4531 25.6885 35.05 26.001 34.5625 26.1885C34.5875 27.176 34.6594 28.1604 34.7781 29.1416C34.8969 30.1229 35.1375 31.076 35.5 32.001H20.5ZM23.425 22.251H32.575C31.6 21.701 30.7219 21.1354 29.9406 20.5541C29.1594 19.9729 28.5125 19.4635 28 19.026C27.4875 19.4635 26.8406 19.9729 26.0594 20.5541C25.2781 21.1354 24.4 21.701 23.425 22.251ZM29.875 24.876C30.1875 24.876 30.4531 24.7666 30.6719 24.5479C30.8906 24.3291 31 24.0635 31 23.751H28.75C28.75 24.0635 28.8594 24.3291 29.0781 24.5479C29.2969 24.7666 29.5625 24.876 29.875 24.876ZM26.125 24.876C26.4375 24.876 26.7031 24.7666 26.9219 24.5479C27.1406 24.3291 27.25 24.0635 27.25 23.751H25C25 24.0635 25.1094 24.3291 25.3281 24.5479C25.5469 24.7666 25.8125 24.876 26.125 24.876ZM22.375 24.876C22.6875 24.876 22.9531 24.7666 23.1719 24.5479C23.3906 24.3291 23.5 24.0635 23.5 23.751H21.25C21.25 24.0635 21.3594 24.3291 21.5781 24.5479C21.7969 24.7666 22.0625 24.876 22.375 24.876ZM22.4875 30.501H24.4938C24.6063 29.751 24.6938 29.0072 24.7563 28.2697C24.8188 27.5322 24.8687 26.7885 24.9062 26.0385C24.7937 25.976 24.6813 25.9104 24.5688 25.8416C24.4563 25.7729 24.35 25.6885 24.25 25.5885C24.0625 25.776 23.8594 25.9291 23.6406 26.0479C23.4219 26.1666 23.1875 26.2572 22.9375 26.3197C22.9125 27.0322 22.8688 27.7354 22.8063 28.4291C22.7438 29.1229 22.6375 29.8135 22.4875 30.501ZM26.0125 30.501H29.9875C29.8875 29.8135 29.8094 29.126 29.7531 28.4385C29.6969 27.751 29.65 27.0572 29.6125 26.3572C29.2875 26.3322 28.9906 26.2541 28.7219 26.1229C28.4531 25.9916 28.2125 25.8197 28 25.6072C27.7875 25.8197 27.5406 25.9916 27.2594 26.1229C26.9781 26.2541 26.6875 26.3322 26.3875 26.3572C26.35 27.0572 26.3031 27.751 26.2469 28.4385C26.1906 29.126 26.1125 29.8135 26.0125 30.501ZM31.5063 30.501H33.5125C33.3625 29.8135 33.2563 29.1229 33.1938 28.4291C33.1313 27.7354 33.0875 27.0322 33.0625 26.3197C32.8125 26.2572 32.575 26.1666 32.35 26.0479C32.125 25.9291 31.925 25.776 31.75 25.5885C31.65 25.6885 31.5437 25.7729 31.4312 25.8416C31.3187 25.9104 31.2063 25.976 31.0938 26.0385C31.1313 26.7885 31.1844 27.5322 31.2531 28.2697C31.3219 29.0072 31.4063 29.751 31.5063 30.501ZM33.625 24.876C33.9375 24.876 34.2031 24.7666 34.4219 24.5479C34.6406 24.3291 34.75 24.0635 34.75 23.751H32.5C32.5 24.0635 32.6094 24.3291 32.8281 24.5479C33.0469 24.7666 33.3125 24.876 33.625 24.876Z" fill="white"/>
</g>
<path d="M28 17.75L29.9486 22.25H26.0514L28 17.75Z" fill="white"/>
<path d="M23.5027 31.25C23.8027 30.95 24.1277 27.125 24.2527 25.25L25.7529 25.625C25.5029 27.375 25.0027 30.95 25.0027 31.25C25.0027 31.625 23.1277 31.625 23.5027 31.25Z" fill="white"/>
<path d="M32.4973 31.25C32.1973 30.95 31.8723 27.125 31.7473 25.25L30.2471 25.625C30.4971 27.375 30.9973 30.95 30.9973 31.25C30.9973 31.625 32.8723 31.625 32.4973 31.25Z" fill="white"/>
<defs>
<linearGradient id="paint0_linear_6800_17481" x1="28.0067" y1="5.0918" x2="28.0067" y2="51.7585" gradientUnits="userSpaceOnUse">
<stop stop-color="#EC2226"/>
<stop offset="1" stop-color="#F2656D"/>
</linearGradient>
</defs>
</svg>
