<svg width="57" height="56" viewBox="0 0 57 56" fill="none" xmlns="http://www.w3.org/2000/svg">
<ellipse cx="27.7938" cy="50.9087" rx="5.81723" ry="2.54545" fill="#4E4E4E" fill-opacity="0.36"/>
<mask id="mask0_6800_17540" style="mask-type:alpha" maskUnits="userSpaceOnUse" x="0" y="0" width="57" height="56">
<rect width="56.8796" height="56" fill="#D9D9D9"/>
</mask>
<g mask="url(#mask0_6800_17540)">
<path d="M29.2849 50.6741C28.5497 51.3059 27.4638 51.3059 26.7285 50.6741C21.0071 45.7577 16.6834 41.1706 13.7572 36.9126C10.617 32.3432 9.04688 28.114 9.04688 24.2251C9.04688 18.3918 10.9527 13.7446 14.7645 10.2835C18.5762 6.82235 22.9903 5.0918 28.0067 5.0918C33.0232 5.0918 37.4373 6.82235 41.249 10.2835C45.0607 13.7446 46.9666 18.3918 46.9666 24.2251C46.9666 28.114 45.3965 32.3432 42.2563 36.9126C39.3301 41.1706 35.0063 45.7577 29.2849 50.6741Z" fill="#02D9A0"/>
<mask id="mask1_6800_17540" style="mask-type:alpha" maskUnits="userSpaceOnUse" x="19" y="16" width="18" height="18">
<rect x="19" y="16" width="18" height="18" fill="#D9D9D9"/>
</mask>
<g mask="url(#mask1_6800_17540)">
<path d="M26.5 31.75C25.675 31.75 24.9688 31.4563 24.3813 30.8688C23.7938 30.2813 23.5 29.575 23.5 28.75C23.5 27.925 23.7938 27.2188 24.3813 26.6313C24.9688 26.0438 25.675 25.75 26.5 25.75C26.7875 25.75 27.0531 25.7844 27.2969 25.8531C27.5406 25.9219 27.775 26.025 28 26.1625V18.25H32.5V21.25H29.5V28.75C29.5 29.575 29.2063 30.2813 28.6188 30.8688C28.0313 31.4563 27.325 31.75 26.5 31.75Z" fill="white"/>
</g>
</g>
</svg>
