<svg width="57" height="56" viewBox="0 0 57 56" fill="none" xmlns="http://www.w3.org/2000/svg">
<ellipse cx="27.7938" cy="50.9087" rx="5.81723" ry="2.54545" fill="#4E4E4E" fill-opacity="0.36"/>
<mask id="mask0_3367_28351" style="mask-type:alpha" maskUnits="userSpaceOnUse" x="0" y="0" width="57" height="56">
<rect width="56.8796" height="56" fill="#D9D9D9"/>
</mask>
<g mask="url(#mask0_3367_28351)">
<path d="M29.2869 50.6741C28.5516 51.3059 27.4657 51.3059 26.7305 50.6741C21.0091 45.7577 16.6853 41.1706 13.7592 36.9126C10.6189 32.3432 9.04883 28.114 9.04883 24.2251C9.04883 18.3918 10.9547 13.7446 14.7664 10.2835C18.5781 6.82235 22.9922 5.0918 28.0087 5.0918C33.0252 5.0918 37.4392 6.82235 41.251 10.2835C45.0627 13.7446 46.9685 18.3918 46.9685 24.2251C46.9685 28.114 45.3984 32.3432 42.2582 36.9126C39.3321 41.1706 35.0083 45.7577 29.2869 50.6741Z" fill="#222222"/>
<path d="M31.5 28H19.5C18.67 28 18 28.67 18 29.5C18 30.33 18.67 31 19.5 31H31.5C32.33 31 33 30.33 33 29.5C33 28.67 32.33 28 31.5 28ZM34.85 19.73C35.47 19.12 35.85 18.28 35.85 17.35C35.85 15.84 34.85 14.56 33.47 14.14C33.3577 14.1073 33.2393 14.101 33.1241 14.1217C33.0089 14.1423 32.9001 14.1894 32.8062 14.2591C32.7122 14.3288 32.6357 14.4194 32.5826 14.5236C32.5295 14.6279 32.5012 14.743 32.5 14.86C32.5 15.19 32.71 15.48 33.02 15.57C33.79 15.8 34.35 16.51 34.35 17.35C34.35 18.17 33.82 18.86 33.08 19.11C32.75 19.22 32.5 19.5 32.5 19.85V20C32.5 20.37 32.77 20.69 33.14 20.75C35.07 21.06 36.5 22.75 36.5 24.77V26.25C36.5 26.66 36.84 27 37.25 27C37.66 27 38 26.66 38 26.25V24.76C38 22.54 36.72 20.62 34.85 19.73ZM32.03 22.2H30.73C29.71 22.2 28.79 21.47 28.66 20.45C28.54 19.5 29.12 18.75 29.96 18.52C30.28 18.43 30.5 18.14 30.5 17.8C30.5 17.31 30.04 16.94 29.57 17.08C28.862 17.2844 28.2412 17.7166 27.8037 18.3096C27.3662 18.9026 27.1365 19.6232 27.15 20.36C27.18 22.2 28.77 23.65 30.61 23.65H32.03C33.08 23.65 34 24.39 34 25.7V26.25C34 26.66 34.33 27 34.75 27H34.76C35.17 27 35.51 26.67 35.51 26.25V25.36C35.5 23.55 33.9 22.2 32.03 22.2ZM34 28H35.5V31H34V28ZM36.5 28H38V31H36.5V28Z" fill="white"/>
</g>
</svg>
