<svg width="57" height="56" viewBox="0 0 57 56" fill="none" xmlns="http://www.w3.org/2000/svg">
<ellipse cx="27.7938" cy="50.9087" rx="5.81723" ry="2.54545" fill="#4E4E4E" fill-opacity="0.36"/>
<mask id="mask0_6800_17586" style="mask-type:alpha" maskUnits="userSpaceOnUse" x="0" y="0" width="57" height="56">
<rect width="56.8796" height="56" fill="#D9D9D9"/>
</mask>
<g mask="url(#mask0_6800_17586)">
<path d="M29.2849 50.6741C28.5497 51.3059 27.4638 51.3059 26.7285 50.6741C21.0071 45.7577 16.6834 41.1706 13.7572 36.9126C10.617 32.3432 9.04688 28.114 9.04688 24.2251C9.04688 18.3918 10.9527 13.7446 14.7645 10.2835C18.5762 6.82235 22.9903 5.0918 28.0067 5.0918C33.0232 5.0918 37.4373 6.82235 41.249 10.2835C45.0607 13.7446 46.9666 18.3918 46.9666 24.2251C46.9666 28.114 45.3965 32.3432 42.2563 36.9126C39.3301 41.1706 35.0063 45.7577 29.2849 50.6741Z" fill="url(#paint0_linear_6800_17586)"/>
<mask id="mask1_6800_17586" style="mask-type:alpha" maskUnits="userSpaceOnUse" x="19" y="16" width="18" height="18">
<rect x="19" y="16" width="18" height="18" fill="#D9D9D9"/>
</mask>
<g mask="url(#mask1_6800_17586)">
<path d="M28 28.75C28.2125 28.75 28.3906 28.6781 28.5344 28.5344C28.6781 28.3906 28.75 28.2125 28.75 28C28.75 27.7875 28.6781 27.6094 28.5344 27.4656C28.3906 27.3219 28.2125 27.25 28 27.25C27.7875 27.25 27.6094 27.3219 27.4656 27.4656C27.3219 27.6094 27.25 27.7875 27.25 28C27.25 28.2125 27.3219 28.3906 27.4656 28.5344C27.6094 28.6781 27.7875 28.75 28 28.75ZM28 25.75C28.2125 25.75 28.3906 25.6781 28.5344 25.5344C28.6781 25.3906 28.75 25.2125 28.75 25C28.75 24.7875 28.6781 24.6094 28.5344 24.4656C28.3906 24.3219 28.2125 24.25 28 24.25C27.7875 24.25 27.6094 24.3219 27.4656 24.4656C27.3219 24.6094 27.25 24.7875 27.25 25C27.25 25.2125 27.3219 25.3906 27.4656 25.5344C27.6094 25.6781 27.7875 25.75 28 25.75ZM28 22.75C28.2125 22.75 28.3906 22.6781 28.5344 22.5344C28.6781 22.3906 28.75 22.2125 28.75 22C28.75 21.7875 28.6781 21.6094 28.5344 21.4656C28.3906 21.3219 28.2125 21.25 28 21.25C27.7875 21.25 27.6094 21.3219 27.4656 21.4656C27.3219 21.6094 27.25 21.7875 27.25 22C27.25 22.2125 27.3219 22.3906 27.4656 22.5344C27.6094 22.6781 27.7875 22.75 28 22.75ZM34 31H22C21.5875 31 21.2344 30.8531 20.9406 30.5594C20.6469 30.2656 20.5 29.9125 20.5 29.5V26.5C20.9125 26.5 21.2656 26.3531 21.5594 26.0594C21.8531 25.7656 22 25.4125 22 25C22 24.5875 21.8531 24.2344 21.5594 23.9406C21.2656 23.6469 20.9125 23.5 20.5 23.5V20.5C20.5 20.0875 20.6469 19.7344 20.9406 19.4406C21.2344 19.1469 21.5875 19 22 19H34C34.4125 19 34.7656 19.1469 35.0594 19.4406C35.3531 19.7344 35.5 20.0875 35.5 20.5V23.5C35.0875 23.5 34.7344 23.6469 34.4406 23.9406C34.1469 24.2344 34 24.5875 34 25C34 25.4125 34.1469 25.7656 34.4406 26.0594C34.7344 26.3531 35.0875 26.5 35.5 26.5V29.5C35.5 29.9125 35.3531 30.2656 35.0594 30.5594C34.7656 30.8531 34.4125 31 34 31Z" fill="white"/>
</g>
</g>
<defs>
<linearGradient id="paint0_linear_6800_17586" x1="28.0067" y1="5.0918" x2="28.0067" y2="51.7585" gradientUnits="userSpaceOnUse">
<stop stop-color="#EC2226"/>
<stop offset="1" stop-color="#F2656D"/>
</linearGradient>
</defs>
</svg>
