<svg width="32" height="33" viewBox="0 0 32 33" fill="none" xmlns="http://www.w3.org/2000/svg">
<path d="M16 1.30078C24.4223 1.30078 31.2498 8.128 31.25 16.5498C31.25 24.9718 24.4224 31.7998 16 31.7998C7.57763 31.7998 0.75 24.9718 0.75 16.5498C0.750173 8.128 7.57774 1.30078 16 1.30078Z" fill="white" stroke="#2659A6" stroke-width="1.5"/>
<mask id="mask0_7019_15853" style="mask-type:alpha" maskUnits="userSpaceOnUse" x="1" y="1" width="30" height="31">
<circle cx="16" cy="16.0684" r="15" fill="white"/>
</mask>
<g mask="url(#mask0_7019_15853)">
<path d="M1.64162 2.43457H1.69317C1.93335 2.43457 2.05286 3.20747 2.05286 4.75214C2.05286 5.50636 1.98491 5.88407 1.849 5.88407H1.69317C1.64279 5.88407 1.59241 5.83261 1.53969 5.72854V5.16258C1.53969 4.98133 1.5561 4.82699 1.59124 4.70187L1.4858 3.10576L1.1765 3.363H0.969117C0.901164 3.363 0.867188 3.32794 0.867188 3.25778V3.05432C1.19524 2.64155 1.45299 2.43457 1.64162 2.43457Z" fill="#2659A6"/>
<path d="M3.33711 4.2384C3.33711 3.51927 3.61244 2.97085 4.16192 2.59082H4.3693C4.91996 2.59082 5.29722 2.83055 5.50342 3.30997C5.57137 3.53331 5.60535 3.68883 5.60535 3.77419V4.28868C5.60535 5.07914 5.24449 5.5422 4.52161 5.67784H4.36813C3.83387 5.67784 3.48942 5.19725 3.33594 4.23723L3.33711 4.2384ZM4.47123 5.2148C4.91996 5.13295 5.14374 4.79033 5.14374 4.18813V3.87941C5.14374 3.32983 4.88598 3.05621 4.3693 3.05621C4.02485 3.25032 3.85262 3.62686 3.85262 4.18813V4.39159C3.94049 4.94117 4.14669 5.2148 4.47123 5.2148Z" fill="#2659A6"/>
<path d="M6.19649 4.2384C6.19649 3.51927 6.47182 2.97085 7.02131 2.59082H7.22868C7.77933 2.59082 8.15659 2.83055 8.3628 3.30997C8.43075 3.53331 8.46473 3.68883 8.46473 3.77419V4.28868C8.46473 5.07914 8.10388 5.5422 7.38099 5.67784H7.22751C6.69325 5.67784 6.34879 5.19725 6.19531 4.23723L6.19649 4.2384ZM7.33061 5.2148C7.77933 5.13295 8.00312 4.79033 8.00312 4.18813V3.87941C8.00312 3.32983 7.74536 3.05621 7.22868 3.05621C6.88422 3.25032 6.712 3.62686 6.712 4.18813V4.39159C6.79987 4.94117 7.00607 5.2148 7.33061 5.2148Z" fill="#2659A6"/>
<path d="M10.2197 2.43457H10.2713C10.5115 2.43457 10.631 3.20747 10.631 4.75214C10.631 5.50636 10.563 5.88407 10.4271 5.88407H10.2713C10.2209 5.88407 10.1705 5.83261 10.1178 5.72854V5.16258C10.1178 4.98133 10.1342 4.82699 10.1694 4.70187L10.0639 3.10576L9.75462 3.363H9.54724C9.47929 3.363 9.44531 3.32794 9.44531 3.25778V3.05432C9.77336 2.64155 10.0311 2.43457 10.2197 2.43457Z" fill="#2659A6"/>
<path d="M13.083 2.43457H13.1346C13.3748 2.43457 13.4943 3.20747 13.4943 4.75214C13.4943 5.50636 13.4263 5.88407 13.2904 5.88407H13.1346C13.0842 5.88407 13.0338 5.83261 12.9811 5.72854V5.16258C12.9811 4.98133 12.9975 4.82699 13.0327 4.70187L12.9272 3.10576L12.6179 3.363H12.4105C12.3426 3.363 12.3086 3.32794 12.3086 3.25778V3.05432C12.6366 2.64155 12.8944 2.43457 13.083 2.43457Z" fill="#2659A6"/>
<path d="M14.7785 4.2384C14.7785 3.51927 15.0539 2.97085 15.6033 2.59082H15.8107C16.3614 2.59082 16.7386 2.83055 16.9448 3.30997C17.0128 3.53331 17.0468 3.68883 17.0468 3.77419V4.28868C17.0468 5.07914 16.6859 5.5422 15.963 5.67784H15.8095C15.2753 5.67784 14.9308 5.19725 14.7773 4.23723L14.7785 4.2384ZM15.9126 5.2148C16.3614 5.13295 16.5851 4.79033 16.5851 4.18813V3.87941C16.5851 3.32983 16.3274 3.05621 15.8107 3.05621C15.4663 3.25032 15.294 3.62686 15.294 4.18813V4.39159C15.3819 4.94117 15.5881 5.2148 15.9126 5.2148Z" fill="#2659A6"/>
<path d="M18.8018 2.43457H18.8533C19.0935 2.43457 19.213 3.20747 19.213 4.75214C19.213 5.50636 19.1451 5.88407 19.0092 5.88407H18.8533C18.803 5.88407 18.7526 5.83261 18.6999 5.72854V5.16258C18.6999 4.98133 18.7163 4.82699 18.7514 4.70187L18.646 3.10576L18.3367 3.363H18.1293C18.0613 3.363 18.0273 3.32794 18.0273 3.25778V3.05432C18.3554 2.64155 18.6132 2.43457 18.8018 2.43457Z" fill="#2659A6"/>
<path d="M20.4934 4.2384C20.4934 3.51927 20.7687 2.97085 21.3182 2.59082H21.5255C22.0762 2.59082 22.4535 2.83055 22.6597 3.30997C22.7276 3.53331 22.7616 3.68883 22.7616 3.77419V4.28868C22.7616 5.07914 22.4007 5.5422 21.6779 5.67784H21.5244C20.9901 5.67784 20.6457 5.19725 20.4922 4.23723L20.4934 4.2384ZM21.6275 5.2148C22.0762 5.13295 22.3 4.79033 22.3 4.18813V3.87941C22.3 3.32983 22.0422 3.05621 21.5255 3.05621C21.1811 3.25032 21.0089 3.62686 21.0089 4.18813V4.39159C21.0967 4.94117 21.3029 5.2148 21.6275 5.2148Z" fill="#2659A6"/>
<path d="M24.5205 2.43457H24.5721C24.8123 2.43457 24.9318 3.20747 24.9318 4.75214C24.9318 5.50636 24.8638 5.88407 24.7279 5.88407H24.5721C24.5217 5.88407 24.4713 5.83261 24.4186 5.72854V5.16258C24.4186 4.98133 24.435 4.82699 24.4701 4.70187L24.3647 3.10576L24.0554 3.363H23.848C23.7801 3.363 23.7461 3.32794 23.7461 3.25778V3.05432C24.0741 2.64155 24.3319 2.43457 24.5205 2.43457Z" fill="#2659A6"/>
<path d="M27.3799 2.43457H27.4314C27.6716 2.43457 27.7911 3.20747 27.7911 4.75214C27.7911 5.50636 27.7232 5.88407 27.5873 5.88407H27.4314C27.3811 5.88407 27.3307 5.83261 27.278 5.72854V5.16258C27.278 4.98133 27.2944 4.82699 27.3295 4.70187L27.2241 3.10576L26.9148 3.363H26.7074C26.6394 3.363 26.6055 3.32794 26.6055 3.25778V3.05432C26.9335 2.64155 27.1913 2.43457 27.3799 2.43457Z" fill="#2659A6"/>
<path d="M29.0754 4.2384C29.0754 3.51927 29.3507 2.97085 29.9002 2.59082H30.1076C30.6582 2.59082 31.0355 2.83055 31.2417 3.30997C31.3097 3.53331 31.3436 3.68883 31.3436 3.77419V4.28868C31.3436 5.07914 30.9828 5.5422 30.2599 5.67784H30.1064C29.5722 5.67784 29.2277 5.19725 29.0742 4.23723L29.0754 4.2384ZM30.2095 5.2148C30.6582 5.13295 30.882 4.79033 30.882 4.18813V3.87941C30.882 3.32983 30.6243 3.05621 30.1076 3.05621C29.7631 3.25032 29.5909 3.62686 29.5909 4.18813V4.39159C29.6788 4.94117 29.885 5.2148 30.2095 5.2148Z" fill="#2659A6"/>
<path d="M0.477735 9.34677C0.477735 8.62764 0.753069 8.07925 1.30256 7.69922H1.50993C2.06058 7.69922 2.43784 7.93892 2.64405 8.41834C2.712 8.64168 2.74598 8.7972 2.74598 8.88256V9.39705C2.74598 10.1875 2.38513 10.6506 1.66224 10.7862H1.50875C0.974498 10.7862 0.630044 10.3056 0.476562 9.3456L0.477735 9.34677ZM1.61186 10.3232C2.06058 10.2413 2.28437 9.8987 2.28437 9.2965V8.98778C2.28437 8.4382 2.02661 8.16461 1.50993 8.16461C1.16547 8.35871 0.993248 8.73523 0.993248 9.2965V9.49996C1.08112 10.0495 1.28732 10.3232 1.61186 10.3232Z" fill="#2659A6"/>
<path d="M3.33711 9.34677C3.33711 8.62764 3.61244 8.07925 4.16192 7.69922H4.3693C4.91996 7.69922 5.29722 7.93892 5.50342 8.41834C5.57137 8.64168 5.60535 8.7972 5.60535 8.88256V9.39705C5.60535 10.1875 5.24449 10.6506 4.52161 10.7862H4.36813C3.83387 10.7862 3.48942 10.3056 3.33594 9.3456L3.33711 9.34677ZM4.47123 10.3232C4.91996 10.2413 5.14374 9.8987 5.14374 9.2965V8.98778C5.14374 8.4382 4.88598 8.16461 4.3693 8.16461C4.02485 8.35871 3.85262 8.73523 3.85262 9.2965V9.49996C3.94049 10.0495 4.14669 10.3232 4.47123 10.3232Z" fill="#2659A6"/>
<path d="M7.36037 7.54492H7.41192C7.6521 7.54492 7.77161 8.31785 7.77161 9.86252C7.77161 10.6167 7.70366 10.9944 7.56775 10.9944H7.41192C7.36154 10.9944 7.31116 10.943 7.25844 10.8389V10.273C7.25844 10.0917 7.27485 9.93734 7.30999 9.81222L7.20455 8.21611L6.89525 8.47336H6.68787C6.61991 8.47336 6.58594 8.43829 6.58594 8.36813V8.16467C6.91399 7.7519 7.17174 7.54492 7.36037 7.54492Z" fill="#2659A6"/>
<path d="M9.05586 9.34677C9.05586 8.62764 9.33119 8.07925 9.88068 7.69922H10.088C10.6387 7.69922 11.016 7.93892 11.2222 8.41834C11.2901 8.64168 11.3241 8.7972 11.3241 8.88256V9.39705C11.3241 10.1875 10.9632 10.6506 10.2404 10.7862H10.0869C9.55262 10.7862 9.20817 10.3056 9.05469 9.3456L9.05586 9.34677ZM10.19 10.3232C10.6387 10.2413 10.8625 9.8987 10.8625 9.2965V8.98778C10.8625 8.4382 10.6047 8.16461 10.088 8.16461C9.74359 8.35871 9.57137 8.73523 9.57137 9.2965V9.49996C9.65924 10.0495 9.86544 10.3232 10.19 10.3232Z" fill="#2659A6"/>
<path d="M11.9152 9.34677C11.9152 8.62764 12.1906 8.07925 12.74 7.69922H12.9474C13.4981 7.69922 13.8753 7.93892 14.0815 8.41834C14.1495 8.64168 14.1835 8.7972 14.1835 8.88256V9.39705C14.1835 10.1875 13.8226 10.6506 13.0997 10.7862H12.9462C12.412 10.7862 12.0675 10.3056 11.9141 9.3456L11.9152 9.34677ZM13.0493 10.3232C13.4981 10.2413 13.7219 9.8987 13.7219 9.2965V8.98778C13.7219 8.4382 13.4641 8.16461 12.9474 8.16461C12.603 8.35871 12.4307 8.73523 12.4307 9.2965V9.49996C12.5186 10.0495 12.7248 10.3232 13.0493 10.3232Z" fill="#2659A6"/>
<path d="M15.9385 7.54492H15.99C16.2302 7.54492 16.3497 8.31785 16.3497 9.86252C16.3497 10.6167 16.2818 10.9944 16.1459 10.9944H15.99C15.9397 10.9944 15.8893 10.943 15.8366 10.8389V10.273C15.8366 10.0917 15.853 9.93734 15.8881 9.81222L15.7827 8.21611L15.4734 8.47336H15.266C15.198 8.47336 15.1641 8.43829 15.1641 8.36813V8.16467C15.4921 7.7519 15.7499 7.54492 15.9385 7.54492Z" fill="#2659A6"/>
<path d="M17.634 9.34677C17.634 8.62764 17.9093 8.07925 18.4588 7.69922H18.6662C19.2168 7.69922 19.5941 7.93892 19.8003 8.41834C19.8682 8.64168 19.9022 8.7972 19.9022 8.88256V9.39705C19.9022 10.1875 19.5414 10.6506 18.8185 10.7862H18.665C18.1308 10.7862 17.7863 10.3056 17.6328 9.3456L17.634 9.34677ZM18.7681 10.3232C19.2168 10.2413 19.4406 9.8987 19.4406 9.2965V8.98778C19.4406 8.4382 19.1829 8.16461 18.6662 8.16461C18.3217 8.35871 18.1495 8.73523 18.1495 9.2965V9.49996C18.2374 10.0495 18.4436 10.3232 18.7681 10.3232Z" fill="#2659A6"/>
<path d="M20.4934 9.34677C20.4934 8.62764 20.7687 8.07925 21.3182 7.69922H21.5255C22.0762 7.69922 22.4535 7.93892 22.6597 8.41834C22.7276 8.64168 22.7616 8.7972 22.7616 8.88256V9.39705C22.7616 10.1875 22.4007 10.6506 21.6779 10.7862H21.5244C20.9901 10.7862 20.6457 10.3056 20.4922 9.3456L20.4934 9.34677ZM21.6275 10.3232C22.0762 10.2413 22.3 9.8987 22.3 9.2965V8.98778C22.3 8.4382 22.0422 8.16461 21.5255 8.16461C21.1811 8.35871 21.0089 8.73523 21.0089 9.2965V9.49996C21.0967 10.0495 21.3029 10.3232 21.6275 10.3232Z" fill="#2659A6"/>
<path d="M24.5205 7.54492H24.5721C24.8123 7.54492 24.9318 8.31785 24.9318 9.86252C24.9318 10.6167 24.8638 10.9944 24.7279 10.9944H24.5721C24.5217 10.9944 24.4713 10.943 24.4186 10.8389V10.273C24.4186 10.0917 24.435 9.93734 24.4701 9.81222L24.3647 8.21611L24.0554 8.47336H23.848C23.7801 8.47336 23.7461 8.43829 23.7461 8.36813V8.16467C24.0741 7.7519 24.3319 7.54492 24.5205 7.54492Z" fill="#2659A6"/>
<path d="M26.2121 9.34677C26.2121 8.62764 26.4874 8.07925 27.0369 7.69922H27.2443C27.795 7.69922 28.1722 7.93892 28.3784 8.41834C28.4464 8.64168 28.4804 8.7972 28.4804 8.88256V9.39705C28.4804 10.1875 28.1195 10.6506 27.3966 10.7862H27.2431C26.7089 10.7862 26.3644 10.3056 26.2109 9.3456L26.2121 9.34677ZM27.3462 10.3232C27.795 10.2413 28.0187 9.8987 28.0187 9.2965V8.98778C28.0187 8.4382 27.761 8.16461 27.2443 8.16461C26.8999 8.35871 26.7276 8.73523 26.7276 9.2965V9.49996C26.8155 10.0495 27.0217 10.3232 27.3462 10.3232Z" fill="#2659A6"/>
<path d="M30.2393 7.54492H30.2908C30.531 7.54492 30.6505 8.31785 30.6505 9.86252C30.6505 10.6167 30.5826 10.9944 30.4467 10.9944H30.2908C30.2405 10.9944 30.1901 10.943 30.1374 10.8389V10.273C30.1374 10.0917 30.1538 9.93734 30.1889 9.81222L30.0835 8.21611L29.7742 8.47336H29.5668C29.4988 8.47336 29.4648 8.43829 29.4648 8.36813V8.16467C29.7929 7.7519 30.0507 7.54492 30.2393 7.54492Z" fill="#2659A6"/>
<path d="M0.477735 14.2697C0.477735 13.5505 0.753069 13.0021 1.30256 12.6221H1.50993C2.06058 12.6221 2.43784 12.8618 2.64405 13.3412C2.712 13.5646 2.74598 13.7201 2.74598 13.8054V14.3199C2.74598 15.1104 2.38513 15.5735 1.66224 15.7091H1.50875C0.974498 15.7091 0.630044 15.2285 0.476562 14.2685L0.477735 14.2697ZM1.61186 15.246C2.06058 15.1642 2.28437 14.8216 2.28437 14.2194V13.9107C2.28437 13.3611 2.02661 13.0875 1.50993 13.0875C1.16547 13.2816 0.993248 13.6581 0.993248 14.2194V14.4228C1.08112 14.9724 1.28732 15.246 1.61186 15.246Z" fill="#2659A6"/>
<path d="M3.33711 14.2697C3.33711 13.5505 3.61244 13.0021 4.16192 12.6221H4.3693C4.91996 12.6221 5.29722 12.8618 5.50342 13.3412C5.57137 13.5646 5.60535 13.7201 5.60535 13.8054V14.3199C5.60535 15.1104 5.24449 15.5735 4.52161 15.7091H4.36813C3.83387 15.7091 3.48942 15.2285 3.33594 14.2685L3.33711 14.2697ZM4.47123 15.246C4.91996 15.1642 5.14374 14.8216 5.14374 14.2194V13.9107C5.14374 13.3611 4.88598 13.0875 4.3693 13.0875C4.02485 13.2816 3.85262 13.6581 3.85262 14.2194V14.4228C3.94049 14.9724 4.14669 15.246 4.47123 15.246Z" fill="#2659A6"/>
<path d="M7.36037 12.4648H7.41192C7.6521 12.4648 7.77161 13.2377 7.77161 14.7824C7.77161 15.5366 7.70366 15.9143 7.56775 15.9143H7.41192C7.36154 15.9143 7.31116 15.8629 7.25844 15.7588V15.1929C7.25844 15.0116 7.27485 14.8573 7.30999 14.7321L7.20455 13.136L6.89525 13.3933H6.68787C6.61991 13.3933 6.58594 13.3582 6.58594 13.288V13.0846C6.91399 12.6718 7.17174 12.4648 7.36037 12.4648Z" fill="#2659A6"/>
<path d="M9.05586 14.2697C9.05586 13.5505 9.33119 13.0021 9.88068 12.6221H10.088C10.6387 12.6221 11.016 12.8618 11.2222 13.3412C11.2901 13.5646 11.3241 13.7201 11.3241 13.8054V14.3199C11.3241 15.1104 10.9632 15.5735 10.2404 15.7091H10.0869C9.55262 15.7091 9.20817 15.2285 9.05469 14.2685L9.05586 14.2697ZM10.19 15.246C10.6387 15.1642 10.8625 14.8216 10.8625 14.2194V13.9107C10.8625 13.3611 10.6047 13.0875 10.088 13.0875C9.74359 13.2816 9.57137 13.6581 9.57137 14.2194V14.4228C9.65924 14.9724 9.86544 15.246 10.19 15.246Z" fill="#2659A6"/>
<path d="M11.9152 14.2697C11.9152 13.5505 12.1906 13.0021 12.74 12.6221H12.9474C13.4981 12.6221 13.8753 12.8618 14.0815 13.3412C14.1495 13.5646 14.1835 13.7201 14.1835 13.8054V14.3199C14.1835 15.1104 13.8226 15.5735 13.0997 15.7091H12.9462C12.412 15.7091 12.0675 15.2285 11.9141 14.2685L11.9152 14.2697ZM13.0493 15.246C13.4981 15.1642 13.7219 14.8216 13.7219 14.2194V13.9107C13.7219 13.3611 13.4641 13.0875 12.9474 13.0875C12.603 13.2816 12.4307 13.6581 12.4307 14.2194V14.4228C12.5186 14.9724 12.7248 15.246 13.0493 15.246Z" fill="#2659A6"/>
<path d="M15.9385 12.4648H15.99C16.2302 12.4648 16.3497 13.2377 16.3497 14.7824C16.3497 15.5366 16.2818 15.9143 16.1459 15.9143H15.99C15.9397 15.9143 15.8893 15.8629 15.8366 15.7588V15.1929C15.8366 15.0116 15.853 14.8573 15.8881 14.7321L15.7827 13.136L15.4734 13.3933H15.266C15.198 13.3933 15.1641 13.3582 15.1641 13.288V13.0846C15.4921 12.6718 15.7499 12.4648 15.9385 12.4648Z" fill="#2659A6"/>
<path d="M17.634 14.2697C17.634 13.5505 17.9093 13.0021 18.4588 12.6221H18.6662C19.2168 12.6221 19.5941 12.8618 19.8003 13.3412C19.8682 13.5646 19.9022 13.7201 19.9022 13.8054V14.3199C19.9022 15.1104 19.5414 15.5735 18.8185 15.7091H18.665C18.1308 15.7091 17.7863 15.2285 17.6328 14.2685L17.634 14.2697ZM18.7681 15.246C19.2168 15.1642 19.4406 14.8216 19.4406 14.2194V13.9107C19.4406 13.3611 19.1829 13.0875 18.6662 13.0875C18.3217 13.2816 18.1495 13.6581 18.1495 14.2194V14.4228C18.2374 14.9724 18.4436 15.246 18.7681 15.246Z" fill="#2659A6"/>
<path d="M21.6572 12.4648H21.7088C21.949 12.4648 22.0685 13.2377 22.0685 14.7824C22.0685 15.5366 22.0005 15.9143 21.8646 15.9143H21.7088C21.6584 15.9143 21.608 15.8629 21.5553 15.7588V15.1929C21.5553 15.0116 21.5717 14.8573 21.6069 14.7321L21.5014 13.136L21.1921 13.3933H20.9847C20.9168 13.3933 20.8828 13.3582 20.8828 13.288V13.0846C21.2109 12.6718 21.4686 12.4648 21.6572 12.4648Z" fill="#2659A6"/>
<path d="M23.3527 14.2697C23.3527 13.5505 23.6281 13.0021 24.1775 12.6221H24.3849C24.9356 12.6221 25.3128 12.8618 25.519 13.3412C25.587 13.5646 25.621 13.7201 25.621 13.8054V14.3199C25.621 15.1104 25.2601 15.5735 24.5372 15.7091H24.3837C23.8495 15.7091 23.505 15.2285 23.3516 14.2685L23.3527 14.2697ZM24.4868 15.246C24.9356 15.1642 25.1594 14.8216 25.1594 14.2194V13.9107C25.1594 13.3611 24.9016 13.0875 24.3849 13.0875C24.0405 13.2816 23.8682 13.6581 23.8682 14.2194V14.4228C23.9561 14.9724 24.1623 15.246 24.4868 15.246Z" fill="#2659A6"/>
<path d="M27.376 12.4648H27.4275C27.6677 12.4648 27.7872 13.2377 27.7872 14.7824C27.7872 15.5366 27.7193 15.9143 27.5834 15.9143H27.4275C27.3772 15.9143 27.3268 15.8629 27.2741 15.7588V15.1929C27.2741 15.0116 27.2905 14.8573 27.3256 14.7321L27.2202 13.136L26.9109 13.3933H26.7035C26.6355 13.3933 26.6016 13.3582 26.6016 13.288V13.0846C26.9296 12.6718 27.1874 12.4648 27.376 12.4648Z" fill="#2659A6"/>
<path d="M29.0715 14.2697C29.0715 13.5505 29.3468 13.0021 29.8963 12.6221H30.1037C30.6543 12.6221 31.0316 12.8618 31.2378 13.3412C31.3057 13.5646 31.3397 13.7201 31.3397 13.8054V14.3199C31.3397 15.1104 30.9789 15.5735 30.256 15.7091H30.1025C29.5683 15.7091 29.2238 15.2285 29.0703 14.2685L29.0715 14.2697ZM30.2056 15.246C30.6543 15.1642 30.8781 14.8216 30.8781 14.2194V13.9107C30.8781 13.3611 30.6204 13.0875 30.1037 13.0875C29.7592 13.2816 29.587 13.6581 29.587 14.2194V14.4228C29.6749 14.9724 29.8811 15.246 30.2056 15.246Z" fill="#2659A6"/>
<path d="M1.64162 17.1885H1.69317C1.93335 17.1885 2.05286 17.9614 2.05286 19.5061C2.05286 20.2603 1.98491 20.638 1.849 20.638H1.69317C1.64279 20.638 1.59241 20.5865 1.53969 20.4824V19.9165C1.53969 19.7353 1.5561 19.5809 1.59124 19.4558L1.4858 17.8597L1.1765 18.1169H0.969117C0.901164 18.1169 0.867188 18.0818 0.867188 18.0117V17.8082C1.19524 17.3955 1.45299 17.1885 1.64162 17.1885Z" fill="#2659A6"/>
<path d="M3.33711 18.9913C3.33711 18.2722 3.61244 17.7238 4.16192 17.3438H4.3693C4.91996 17.3438 5.29722 17.5834 5.50342 18.0629C5.57137 18.2862 5.60535 18.4417 5.60535 18.5271V19.0416C5.60535 19.8321 5.24449 20.2951 4.52161 20.4307H4.36813C3.83387 20.4307 3.48942 19.9501 3.33594 18.9901L3.33711 18.9913ZM4.47123 19.9677C4.91996 19.8858 5.14374 19.5432 5.14374 18.941V18.6323C5.14374 18.0828 4.88598 17.8091 4.3693 17.8091C4.02485 18.0032 3.85262 18.3798 3.85262 18.941V19.1445C3.94049 19.6941 4.14669 19.9677 4.47123 19.9677Z" fill="#2659A6"/>
<path d="M6.19649 18.9913C6.19649 18.2722 6.47182 17.7238 7.02131 17.3438H7.22868C7.77933 17.3438 8.15659 17.5834 8.3628 18.0629C8.43075 18.2862 8.46473 18.4417 8.46473 18.5271V19.0416C8.46473 19.8321 8.10388 20.2951 7.38099 20.4307H7.22751C6.69325 20.4307 6.34879 19.9501 6.19531 18.9901L6.19649 18.9913ZM7.33061 19.9677C7.77933 19.8858 8.00312 19.5432 8.00312 18.941V18.6323C8.00312 18.0828 7.74536 17.8091 7.22868 17.8091C6.88422 18.0032 6.712 18.3798 6.712 18.941V19.1445C6.79987 19.6941 7.00607 19.9677 7.33061 19.9677Z" fill="#2659A6"/>
<path d="M10.2197 17.1885H10.2713C10.5115 17.1885 10.631 17.9614 10.631 19.5061C10.631 20.2603 10.563 20.638 10.4271 20.638H10.2713C10.2209 20.638 10.1705 20.5865 10.1178 20.4824V19.9165C10.1178 19.7353 10.1342 19.5809 10.1694 19.4558L10.0639 17.8597L9.75462 18.1169H9.54724C9.47929 18.1169 9.44531 18.0818 9.44531 18.0117V17.8082C9.77336 17.3955 10.0311 17.1885 10.2197 17.1885Z" fill="#2659A6"/>
<path d="M13.083 17.1885H13.1346C13.3748 17.1885 13.4943 17.9614 13.4943 19.5061C13.4943 20.2603 13.4263 20.638 13.2904 20.638H13.1346C13.0842 20.638 13.0338 20.5865 12.9811 20.4824V19.9165C12.9811 19.7353 12.9975 19.5809 13.0327 19.4558L12.9272 17.8597L12.6179 18.1169H12.4105C12.3426 18.1169 12.3086 18.0818 12.3086 18.0117V17.8082C12.6366 17.3955 12.8944 17.1885 13.083 17.1885Z" fill="#2659A6"/>
<path d="M14.7785 18.9913C14.7785 18.2722 15.0539 17.7238 15.6033 17.3438H15.8107C16.3614 17.3438 16.7386 17.5834 16.9448 18.0629C17.0128 18.2862 17.0468 18.4417 17.0468 18.5271V19.0416C17.0468 19.8321 16.6859 20.2951 15.963 20.4307H15.8095C15.2753 20.4307 14.9308 19.9501 14.7773 18.9901L14.7785 18.9913ZM15.9126 19.9677C16.3614 19.8858 16.5851 19.5432 16.5851 18.941V18.6323C16.5851 18.0828 16.3274 17.8091 15.8107 17.8091C15.4663 18.0032 15.294 18.3798 15.294 18.941V19.1445C15.3819 19.6941 15.5881 19.9677 15.9126 19.9677Z" fill="#2659A6"/>
<path d="M18.8018 17.1885H18.8533C19.0935 17.1885 19.213 17.9614 19.213 19.5061C19.213 20.2603 19.1451 20.638 19.0092 20.638H18.8533C18.803 20.638 18.7526 20.5865 18.6999 20.4824V19.9165C18.6999 19.7353 18.7163 19.5809 18.7514 19.4558L18.646 17.8597L18.3367 18.1169H18.1293C18.0613 18.1169 18.0273 18.0818 18.0273 18.0117V17.8082C18.3554 17.3955 18.6132 17.1885 18.8018 17.1885Z" fill="#2659A6"/>
<path d="M20.4934 18.9913C20.4934 18.2722 20.7687 17.7238 21.3182 17.3438H21.5255C22.0762 17.3438 22.4535 17.5834 22.6597 18.0629C22.7276 18.2862 22.7616 18.4417 22.7616 18.5271V19.0416C22.7616 19.8321 22.4007 20.2951 21.6779 20.4307H21.5244C20.9901 20.4307 20.6457 19.9501 20.4922 18.9901L20.4934 18.9913ZM21.6275 19.9677C22.0762 19.8858 22.3 19.5432 22.3 18.941V18.6323C22.3 18.0828 22.0422 17.8091 21.5255 17.8091C21.1811 18.0032 21.0089 18.3798 21.0089 18.941V19.1445C21.0967 19.6941 21.3029 19.9677 21.6275 19.9677Z" fill="#2659A6"/>
<path d="M24.5205 17.1885H24.5721C24.8123 17.1885 24.9318 17.9614 24.9318 19.5061C24.9318 20.2603 24.8638 20.638 24.7279 20.638H24.5721C24.5217 20.638 24.4713 20.5865 24.4186 20.4824V19.9165C24.4186 19.7353 24.435 19.5809 24.4701 19.4558L24.3647 17.8597L24.0554 18.1169H23.848C23.7801 18.1169 23.7461 18.0818 23.7461 18.0117V17.8082C24.0741 17.3955 24.3319 17.1885 24.5205 17.1885Z" fill="#2659A6"/>
<path d="M27.3799 17.1885H27.4314C27.6716 17.1885 27.7911 17.9614 27.7911 19.5061C27.7911 20.2603 27.7232 20.638 27.5873 20.638H27.4314C27.3811 20.638 27.3307 20.5865 27.278 20.4824V19.9165C27.278 19.7353 27.2944 19.5809 27.3295 19.4558L27.2241 17.8597L26.9148 18.1169H26.7074C26.6394 18.1169 26.6055 18.0818 26.6055 18.0117V17.8082C26.9335 17.3955 27.1913 17.1885 27.3799 17.1885Z" fill="#2659A6"/>
<path d="M29.0754 18.9913C29.0754 18.2722 29.3507 17.7238 29.9002 17.3438H30.1076C30.6582 17.3438 31.0355 17.5834 31.2417 18.0629C31.3097 18.2862 31.3436 18.4417 31.3436 18.5271V19.0416C31.3436 19.8321 30.9828 20.2951 30.2599 20.4307H30.1064C29.5722 20.4307 29.2277 19.9501 29.0742 18.9901L29.0754 18.9913ZM30.2095 19.9677C30.6582 19.8858 30.882 19.5432 30.882 18.941V18.6323C30.882 18.0828 30.6243 17.8091 30.1076 17.8091C29.7631 18.0032 29.5909 18.3798 29.5909 18.941V19.1445C29.6788 19.6941 29.885 19.9677 30.2095 19.9677Z" fill="#2659A6"/>
<path d="M0.477735 24.1036C0.477735 23.3845 0.753069 22.8361 1.30256 22.4561H1.50993C2.06058 22.4561 2.43784 22.6958 2.64405 23.1752C2.712 23.3985 2.74598 23.554 2.74598 23.6394V24.1539C2.74598 24.9444 2.38513 25.4074 1.66224 25.5431H1.50875C0.974498 25.5431 0.630044 25.0625 0.476562 24.1024L0.477735 24.1036ZM1.61186 25.08C2.06058 24.9982 2.28437 24.6555 2.28437 24.0533V23.7446C2.28437 23.1951 2.02661 22.9214 1.50993 22.9214C1.16547 23.1155 0.993248 23.4921 0.993248 24.0533V24.2568C1.08112 24.8064 1.28732 25.08 1.61186 25.08Z" fill="#2659A6"/>
<path d="M3.33711 24.1036C3.33711 23.3845 3.61244 22.8361 4.16192 22.4561H4.3693C4.91996 22.4561 5.29722 22.6958 5.50342 23.1752C5.57137 23.3985 5.60535 23.554 5.60535 23.6394V24.1539C5.60535 24.9444 5.24449 25.4074 4.52161 25.5431H4.36813C3.83387 25.5431 3.48942 25.0625 3.33594 24.1024L3.33711 24.1036ZM4.47123 25.08C4.91996 24.9982 5.14374 24.6555 5.14374 24.0533V23.7446C5.14374 23.1951 4.88598 22.9214 4.3693 22.9214C4.02485 23.1155 3.85262 23.4921 3.85262 24.0533V24.2568C3.94049 24.8064 4.14669 25.08 4.47123 25.08Z" fill="#2659A6"/>
<path d="M7.36037 22.2998H7.41192C7.6521 22.2998 7.77161 23.0727 7.77161 24.6174C7.77161 25.3716 7.70366 25.7493 7.56775 25.7493H7.41192C7.36154 25.7493 7.31116 25.6978 7.25844 25.5938V25.0278C7.25844 24.8466 7.27485 24.6923 7.30999 24.5671L7.20455 22.971L6.89525 23.2282H6.68787C6.61991 23.2282 6.58594 23.1932 6.58594 23.123V22.9196C6.91399 22.5068 7.17174 22.2998 7.36037 22.2998Z" fill="#2659A6"/>
<path d="M9.05586 24.1036C9.05586 23.3845 9.33119 22.8361 9.88068 22.4561H10.088C10.6387 22.4561 11.016 22.6958 11.2222 23.1752C11.2901 23.3985 11.3241 23.554 11.3241 23.6394V24.1539C11.3241 24.9444 10.9632 25.4074 10.2404 25.5431H10.0869C9.55262 25.5431 9.20817 25.0625 9.05469 24.1024L9.05586 24.1036ZM10.19 25.08C10.6387 24.9982 10.8625 24.6555 10.8625 24.0533V23.7446C10.8625 23.1951 10.6047 22.9214 10.088 22.9214C9.74359 23.1155 9.57137 23.4921 9.57137 24.0533V24.2568C9.65924 24.8064 9.86544 25.08 10.19 25.08Z" fill="#2659A6"/>
<path d="M11.9152 24.1036C11.9152 23.3845 12.1906 22.8361 12.74 22.4561H12.9474C13.4981 22.4561 13.8753 22.6958 14.0815 23.1752C14.1495 23.3985 14.1835 23.554 14.1835 23.6394V24.1539C14.1835 24.9444 13.8226 25.4074 13.0997 25.5431H12.9462C12.412 25.5431 12.0675 25.0625 11.9141 24.1024L11.9152 24.1036ZM13.0493 25.08C13.4981 24.9982 13.7219 24.6555 13.7219 24.0533V23.7446C13.7219 23.1951 13.4641 22.9214 12.9474 22.9214C12.603 23.1155 12.4307 23.4921 12.4307 24.0533V24.2568C12.5186 24.8064 12.7248 25.08 13.0493 25.08Z" fill="#2659A6"/>
<path d="M15.9385 22.2998H15.99C16.2302 22.2998 16.3497 23.0727 16.3497 24.6174C16.3497 25.3716 16.2818 25.7493 16.1459 25.7493H15.99C15.9397 25.7493 15.8893 25.6978 15.8366 25.5938V25.0278C15.8366 24.8466 15.853 24.6923 15.8881 24.5671L15.7827 22.971L15.4734 23.2282H15.266C15.198 23.2282 15.1641 23.1932 15.1641 23.123V22.9196C15.4921 22.5068 15.7499 22.2998 15.9385 22.2998Z" fill="#2659A6"/>
<path d="M17.634 24.1036C17.634 23.3845 17.9093 22.8361 18.4588 22.4561H18.6662C19.2168 22.4561 19.5941 22.6958 19.8003 23.1752C19.8682 23.3985 19.9022 23.554 19.9022 23.6394V24.1539C19.9022 24.9444 19.5414 25.4074 18.8185 25.5431H18.665C18.1308 25.5431 17.7863 25.0625 17.6328 24.1024L17.634 24.1036ZM18.7681 25.08C19.2168 24.9982 19.4406 24.6555 19.4406 24.0533V23.7446C19.4406 23.1951 19.1829 22.9214 18.6662 22.9214C18.3217 23.1155 18.1495 23.4921 18.1495 24.0533V24.2568C18.2374 24.8064 18.4436 25.08 18.7681 25.08Z" fill="#2659A6"/>
<path d="M20.4934 24.1036C20.4934 23.3845 20.7687 22.8361 21.3182 22.4561H21.5255C22.0762 22.4561 22.4535 22.6958 22.6597 23.1752C22.7276 23.3985 22.7616 23.554 22.7616 23.6394V24.1539C22.7616 24.9444 22.4007 25.4074 21.6779 25.5431H21.5244C20.9901 25.5431 20.6457 25.0625 20.4922 24.1024L20.4934 24.1036ZM21.6275 25.08C22.0762 24.9982 22.3 24.6555 22.3 24.0533V23.7446C22.3 23.1951 22.0422 22.9214 21.5255 22.9214C21.1811 23.1155 21.0089 23.4921 21.0089 24.0533V24.2568C21.0967 24.8064 21.3029 25.08 21.6275 25.08Z" fill="#2659A6"/>
<path d="M24.5205 22.2998H24.5721C24.8123 22.2998 24.9318 23.0727 24.9318 24.6174C24.9318 25.3716 24.8638 25.7493 24.7279 25.7493H24.5721C24.5217 25.7493 24.4713 25.6978 24.4186 25.5938V25.0278C24.4186 24.8466 24.435 24.6923 24.4701 24.5671L24.3647 22.971L24.0554 23.2282H23.848C23.7801 23.2282 23.7461 23.1932 23.7461 23.123V22.9196C24.0741 22.5068 24.3319 22.2998 24.5205 22.2998Z" fill="#2659A6"/>
<path d="M26.2121 24.1036C26.2121 23.3845 26.4874 22.8361 27.0369 22.4561H27.2443C27.795 22.4561 28.1722 22.6958 28.3784 23.1752C28.4464 23.3985 28.4804 23.554 28.4804 23.6394V24.1539C28.4804 24.9444 28.1195 25.4074 27.3966 25.5431H27.2431C26.7089 25.5431 26.3644 25.0625 26.2109 24.1024L26.2121 24.1036ZM27.3462 25.08C27.795 24.9982 28.0187 24.6555 28.0187 24.0533V23.7446C28.0187 23.1951 27.761 22.9214 27.2443 22.9214C26.8999 23.1155 26.7276 23.4921 26.7276 24.0533V24.2568C26.8155 24.8064 27.0217 25.08 27.3462 25.08Z" fill="#2659A6"/>
<path d="M30.2393 22.2998H30.2908C30.531 22.2998 30.6505 23.0727 30.6505 24.6174C30.6505 25.3716 30.5826 25.7493 30.4467 25.7493H30.2908C30.2405 25.7493 30.1901 25.6978 30.1374 25.5938V25.0278C30.1374 24.8466 30.1538 24.6923 30.1889 24.5671L30.0835 22.971L29.7742 23.2282H29.5668C29.4988 23.2282 29.4648 23.1932 29.4648 23.123V22.9196C29.7929 22.5068 30.0507 22.2998 30.2393 22.2998Z" fill="#2659A6"/>
<path d="M0.477735 29.0216C0.477735 28.3024 0.753069 27.7541 1.30256 27.374H1.50993C2.06058 27.374 2.43784 27.6137 2.64405 28.0931C2.712 28.3165 2.74598 28.472 2.74598 28.5574V29.0719C2.74598 29.8623 2.38513 30.3254 1.66224 30.461H1.50875C0.974498 30.461 0.630044 29.9804 0.476562 29.0204L0.477735 29.0216ZM1.61186 29.998C2.06058 29.9161 2.28437 29.5735 2.28437 28.9713V28.6626C2.28437 28.113 2.02661 27.8394 1.50993 27.8394C1.16547 28.0335 0.993248 28.41 0.993248 28.9713V29.1748C1.08112 29.7243 1.28732 29.998 1.61186 29.998Z" fill="#2659A6"/>
<path d="M3.33711 29.0216C3.33711 28.3024 3.61244 27.7541 4.16192 27.374H4.3693C4.91996 27.374 5.29722 27.6137 5.50342 28.0931C5.57137 28.3165 5.60535 28.472 5.60535 28.5574V29.0719C5.60535 29.8623 5.24449 30.3254 4.52161 30.461H4.36813C3.83387 30.461 3.48942 29.9804 3.33594 29.0204L3.33711 29.0216ZM4.47123 29.998C4.91996 29.9161 5.14374 29.5735 5.14374 28.9713V28.6626C5.14374 28.113 4.88598 27.8394 4.3693 27.8394C4.02485 28.0335 3.85262 28.41 3.85262 28.9713V29.1748C3.94049 29.7243 4.14669 29.998 4.47123 29.998Z" fill="#2659A6"/>
<path d="M7.36037 27.2178H7.41192C7.6521 27.2178 7.77161 27.9907 7.77161 29.5354C7.77161 30.2896 7.70366 30.6673 7.56775 30.6673H7.41192C7.36154 30.6673 7.31116 30.6158 7.25844 30.5117V29.9458C7.25844 29.7646 7.27485 29.6102 7.30999 29.4851L7.20455 27.889L6.89525 28.1462H6.68787C6.61991 28.1462 6.58594 28.1111 6.58594 28.041V27.8375C6.91399 27.4247 7.17174 27.2178 7.36037 27.2178Z" fill="#2659A6"/>
<path d="M9.05586 29.0216C9.05586 28.3024 9.33119 27.7541 9.88068 27.374H10.088C10.6387 27.374 11.016 27.6137 11.2222 28.0931C11.2901 28.3165 11.3241 28.472 11.3241 28.5574V29.0719C11.3241 29.8623 10.9632 30.3254 10.2404 30.461H10.0869C9.55262 30.461 9.20817 29.9804 9.05469 29.0204L9.05586 29.0216ZM10.19 29.998C10.6387 29.9161 10.8625 29.5735 10.8625 28.9713V28.6626C10.8625 28.113 10.6047 27.8394 10.088 27.8394C9.74359 28.0335 9.57137 28.41 9.57137 28.9713V29.1748C9.65924 29.7243 9.86544 29.998 10.19 29.998Z" fill="#2659A6"/>
<path d="M11.9152 29.0216C11.9152 28.3024 12.1906 27.7541 12.74 27.374H12.9474C13.4981 27.374 13.8753 27.6137 14.0815 28.0931C14.1495 28.3165 14.1835 28.472 14.1835 28.5574V29.0719C14.1835 29.8623 13.8226 30.3254 13.0997 30.461H12.9462C12.412 30.461 12.0675 29.9804 11.9141 29.0204L11.9152 29.0216ZM13.0493 29.998C13.4981 29.9161 13.7219 29.5735 13.7219 28.9713V28.6626C13.7219 28.113 13.4641 27.8394 12.9474 27.8394C12.603 28.0335 12.4307 28.41 12.4307 28.9713V29.1748C12.5186 29.7243 12.7248 29.998 13.0493 29.998Z" fill="#2659A6"/>
<path d="M15.9385 27.2178H15.99C16.2302 27.2178 16.3497 27.9907 16.3497 29.5354C16.3497 30.2896 16.2818 30.6673 16.1459 30.6673H15.99C15.9397 30.6673 15.8893 30.6158 15.8366 30.5117V29.9458C15.8366 29.7646 15.853 29.6102 15.8881 29.4851L15.7827 27.889L15.4734 28.1462H15.266C15.198 28.1462 15.1641 28.1111 15.1641 28.041V27.8375C15.4921 27.4247 15.7499 27.2178 15.9385 27.2178Z" fill="#2659A6"/>
<path d="M17.634 29.0216C17.634 28.3024 17.9093 27.7541 18.4588 27.374H18.6662C19.2168 27.374 19.5941 27.6137 19.8003 28.0931C19.8682 28.3165 19.9022 28.472 19.9022 28.5574V29.0719C19.9022 29.8623 19.5414 30.3254 18.8185 30.461H18.665C18.1308 30.461 17.7863 29.9804 17.6328 29.0204L17.634 29.0216ZM18.7681 29.998C19.2168 29.9161 19.4406 29.5735 19.4406 28.9713V28.6626C19.4406 28.113 19.1829 27.8394 18.6662 27.8394C18.3217 28.0335 18.1495 28.41 18.1495 28.9713V29.1748C18.2374 29.7243 18.4436 29.998 18.7681 29.998Z" fill="#2659A6"/>
<path d="M21.6572 27.2178H21.7088C21.949 27.2178 22.0685 27.9907 22.0685 29.5354C22.0685 30.2896 22.0005 30.6673 21.8646 30.6673H21.7088C21.6584 30.6673 21.608 30.6158 21.5553 30.5117V29.9458C21.5553 29.7646 21.5717 29.6102 21.6069 29.4851L21.5014 27.889L21.1921 28.1462H20.9847C20.9168 28.1462 20.8828 28.1111 20.8828 28.041V27.8375C21.2109 27.4247 21.4686 27.2178 21.6572 27.2178Z" fill="#2659A6"/>
<path d="M23.3527 29.0216C23.3527 28.3024 23.6281 27.7541 24.1775 27.374H24.3849C24.9356 27.374 25.3128 27.6137 25.519 28.0931C25.587 28.3165 25.621 28.472 25.621 28.5574V29.0719C25.621 29.8623 25.2601 30.3254 24.5372 30.461H24.3837C23.8495 30.461 23.505 29.9804 23.3516 29.0204L23.3527 29.0216ZM24.4868 29.998C24.9356 29.9161 25.1594 29.5735 25.1594 28.9713V28.6626C25.1594 28.113 24.9016 27.8394 24.3849 27.8394C24.0405 28.0335 23.8682 28.41 23.8682 28.9713V29.1748C23.9561 29.7243 24.1623 29.998 24.4868 29.998Z" fill="#2659A6"/>
<path d="M27.376 27.2178H27.4275C27.6677 27.2178 27.7872 27.9907 27.7872 29.5354C27.7872 30.2896 27.7193 30.6673 27.5834 30.6673H27.4275C27.3772 30.6673 27.3268 30.6158 27.2741 30.5117V29.9458C27.2741 29.7646 27.2905 29.6102 27.3256 29.4851L27.2202 27.889L26.9109 28.1462H26.7035C26.6355 28.1462 26.6016 28.1111 26.6016 28.041V27.8375C26.9296 27.4247 27.1874 27.2178 27.376 27.2178Z" fill="#2659A6"/>
<path d="M29.0715 29.0216C29.0715 28.3024 29.3468 27.7541 29.8963 27.374H30.1037C30.6543 27.374 31.0316 27.6137 31.2378 28.0931C31.3057 28.3165 31.3397 28.472 31.3397 28.5574V29.0719C31.3397 29.8623 30.9789 30.3254 30.256 30.461H30.1025C29.5683 30.461 29.2238 29.9804 29.0703 29.0204L29.0715 29.0216ZM30.2056 29.998C30.6543 29.9161 30.8781 29.5735 30.8781 28.9713V28.6626C30.8781 28.113 30.6204 27.8394 30.1037 27.8394C29.7592 28.0335 29.587 28.41 29.587 28.9713V29.1748C29.6749 29.7243 29.8811 29.998 30.2056 29.998Z" fill="#2659A6"/>
</g>
<mask id="mask1_7019_15853" style="mask-type:alpha" maskUnits="userSpaceOnUse" x="0" y="0" width="32" height="32">
<path d="M16 0.941406C24.3167 0.941406 31.0584 7.6828 31.0586 15.999C31.0586 24.3154 24.3168 31.0576 16 31.0576C7.68319 31.0576 0.941406 24.3154 0.941406 15.999C0.941579 7.6828 7.6833 0.941406 16 0.941406Z" fill="white" stroke="#0073F0" stroke-width="1.88231"/>
</mask>
<g mask="url(#mask1_7019_15853)">
<path d="M8.84101 17.999C8.84101 17.999 5.19082 22.2181 4.79513 27.4828C4.61134 29.9306 4.61134 32.8679 5.95997 33.4182C7.30859 33.9686 9.27064 33.7851 9.27064 33.7851L10.7422 20.8137L8.84218 17.999H8.84101Z" fill="white" stroke="#2659A6" stroke-width="0.851524" stroke-linecap="round" stroke-linejoin="round"/>
<path d="M6.14989 32.0664C6.72703 32.3409 6.91786 32.9064 6.76684 33.6577C6.48705 33.6004 6.21195 33.5222 5.95791 33.4193C5.48496 33.2265 5.17823 32.7393 4.98741 32.085C5.17823 32.0009 5.66406 31.8362 6.15106 32.0675L6.14989 32.0664Z" fill="white" stroke="#2659A6" stroke-width="0.584206" stroke-linecap="round" stroke-linejoin="round"/>
<path d="M26.2741 25.9543C26.6194 27.4008 28.8706 31.9096 32.4798 36.3565C33.2068 37.2526 33.3906 38.0682 32.2586 38.7482C31.1265 39.4282 26.322 39.7413 23.6833 37.5085L26.2741 25.9531V25.9543Z" fill="white" stroke="#2659A6" stroke-width="0.584206" stroke-linecap="round" stroke-linejoin="round"/>
<path d="M19.1009 10.346C19.1009 10.346 20.021 9.27223 21.4481 9.70219C22.8892 10.138 23.2205 11.4922 22.9934 12.3661C22.6152 13.8184 20.9564 13.9972 20.9564 13.9972L19.1009 10.346Z" fill="white" stroke="#2659A6" stroke-width="0.851524" stroke-linecap="round" stroke-linejoin="round"/>
<path d="M21.2048 13.9545C21.2048 13.9545 22.0863 12.848 23.497 13.2663C24.9217 13.6881 25.2764 15.0621 25.0715 15.9536C24.7309 17.4363 23.1048 17.6431 23.1048 17.6431L21.2048 13.9545Z" fill="white" stroke="#2659A6" stroke-width="0.851524" stroke-linecap="round" stroke-linejoin="round"/>
<path d="M23.111 17.9594C23.111 17.9594 23.9926 16.8529 25.4032 17.2712C26.8279 17.693 27.1827 19.067 26.9778 19.9585C26.6371 21.4412 25.0111 21.648 25.0111 21.648L23.111 17.9594Z" fill="white" stroke="#2659A6" stroke-width="0.851524" stroke-linecap="round" stroke-linejoin="round"/>
<path d="M15.6245 8.54286C15.6245 8.54286 16.0027 7.31253 17.3981 7.15363C18.8088 6.99356 19.6177 8.00191 19.7594 8.81277C19.9958 10.1611 19.1424 10.584 19.1424 10.584L15.6257 8.54169L15.6245 8.54286Z" fill="white" stroke="#2659A6" stroke-width="0.851524" stroke-linecap="round" stroke-linejoin="round"/>
<path d="M8.52664 18.8094C8.52664 18.8094 6.90877 23.3883 7.38757 29.2992C7.83243 34.7871 10.7907 39.5238 16.561 39.5413C24.7815 39.567 28.0032 35.2358 26.39 26.3315C24.8998 18.1072 21.8384 12.5725 18.5757 10.0792C15.3552 7.61741 11.5739 7.81954 9.28758 9.20642C5.36112 11.5876 6.19699 16.4037 8.52781 18.8106L8.52664 18.8094Z" fill="white"/>
<path d="M13.7999 22.6598C19.7997 22.12 21.1682 30.1305 21.3742 31.9695C21.736 37.621 18.4932 37.7332 18.2462 39.1131C17.9395 39.203 17.6105 39.2696 17.2558 39.3105C13.5904 39.7335 11.4668 36.7541 10.3125 33.0643C9.15819 29.3734 8.91469 23.0991 13.7999 22.6598Z" fill="#2659A6"/>
<path d="M7.7761 21.835C7.43192 23.7184 7.14628 26.3414 7.38627 29.2974C7.58997 31.8153 8.32983 34.2351 9.62109 36.0531" stroke="#2659A6" stroke-width="0.851524" stroke-linecap="round" stroke-linejoin="round"/>
<path d="M27.1016 28.0362C26.7925 27.535 26.4823 26.8444 26.3898 26.3315C24.8995 18.1072 21.8382 12.5725 18.5755 10.0792C15.355 7.61741 11.5737 7.81954 9.28734 9.20642C5.36089 11.5876 6.19675 16.4037 8.52757 18.8106" stroke="#2659A6" stroke-width="0.851524" stroke-linecap="round" stroke-linejoin="round"/>
<path d="M17.2801 11.3599C17.6898 11.4043 18.0258 11.5866 18.288 11.9056C18.5432 12.2269 18.6486 12.5938 18.6029 13.005C18.5573 13.4163 18.3758 13.7505 18.0574 14.0052C17.7319 14.2622 17.3644 14.3697 16.9546 14.3242C16.5449 14.2786 16.2077 14.0963 15.9525 13.775C15.6938 13.4572 15.5873 13.0915 15.6317 12.6791C15.6774 12.2666 15.8612 11.9325 16.1831 11.6743C16.5016 11.4196 16.8668 11.3144 17.2801 11.3599Z" fill="#2659A6"/>
<path d="M8.72617 10.8812C9.0762 10.9221 9.36184 11.0997 9.5831 11.4152C9.7985 11.733 9.88396 12.0987 9.84064 12.5111C9.79733 12.9236 9.63812 13.2589 9.36301 13.5171C9.08205 13.7777 8.76597 13.8887 8.41476 13.8478C8.06356 13.8069 7.77791 13.6281 7.5625 13.3092C7.34476 12.9937 7.25696 12.6303 7.30027 12.2179C7.34359 11.8054 7.50397 11.4689 7.78259 11.2084C8.0577 10.9502 8.37262 10.8415 8.72617 10.8824V10.8812Z" fill="#2659A6"/>
<path d="M11.1065 10.6156C11.0924 10.6004 11.076 10.584 11.0585 10.5688C10.9028 10.4391 10.7248 10.3831 10.5235 10.4006C10.3174 10.4181 10.15 10.5046 10.0201 10.66C9.89012 10.8154 9.83393 10.9953 9.85266 11.1998C9.87022 11.4007 9.95686 11.5643 10.1114 11.6893C10.2214 11.7805 10.3397 11.8377 10.4684 11.8599C10.5281 11.8669 10.5902 11.8681 10.6522 11.8622C10.7143 11.8564 10.7728 11.8447 10.8267 11.8284C10.9543 11.784 11.0608 11.7068 11.1486 11.597C11.2786 11.4463 11.3347 11.271 11.3172 11.0701L11.3066 10.9509C11.2704 10.8235 11.2036 10.7114 11.1053 10.6144L11.1065 10.6156Z" fill="#2659A6"/>
<path d="M15.4409 11.049C15.4222 11.0338 15.4047 11.0187 15.3859 11.0035C15.2267 10.8703 15.0441 10.8119 14.8381 10.8306C14.632 10.8492 14.4541 10.938 14.3171 11.0981C14.1836 11.257 14.1251 11.4416 14.1438 11.6507C14.1626 11.8599 14.2515 12.0316 14.4108 12.1648C14.5243 12.256 14.6461 12.3132 14.7748 12.3354C14.8392 12.3471 14.9048 12.3495 14.9715 12.3436C15.0347 12.3378 15.0968 12.3237 15.1576 12.3015C15.2806 12.2571 15.3883 12.18 15.4796 12.0702C15.613 11.9113 15.6716 11.7267 15.6528 11.5176C15.6493 11.4755 15.6458 11.4358 15.6423 11.3984C15.6048 11.2663 15.5381 11.1507 15.4398 11.049H15.4409Z" fill="#2659A6"/>
<path d="M9.35037 12.6719C11.2387 13.2502 13.4009 13.4348 15.8359 13.2245Z" fill="#2659A6"/>
<path d="M9.35037 12.6719C11.2387 13.2502 13.4009 13.4348 15.8359 13.2245" stroke="#2659A6" stroke-width="0.584206" stroke-linecap="round" stroke-linejoin="round"/>
<path d="M15.2888 13.3032C15.2993 13.9808 15.0207 14.3197 14.639 14.2904C14.0361 14.2449 14.0502 13.3779 14.0502 13.3779C13.9097 13.9808 13.6334 14.3056 13.2237 14.2858C12.814 14.2659 12.5353 13.8909 12.5084 13.2529C13.4906 13.3896 14.426 13.4258 15.2876 13.302L15.2888 13.3032Z" stroke="#2659A6" stroke-width="0.584206" stroke-linecap="round" stroke-linejoin="round"/>
<path d="M24.1428 28.9269C25.9772 29.5076 26.2044 29.5216 26.6504 29.8441C27.0964 30.1666 27.2252 30.6292 27.0379 31.3443C26.8506 32.0593 25.6413 35.8075 25.3123 36.4478C24.9833 37.0881 24.6637 37.268 23.8806 37.1138C23.0985 36.9596 15.2316 34.8997 14.4355 34.527C13.6395 34.1543 13.4112 33.6869 13.602 33.0665C13.7928 32.4461 14.9857 28.5472 15.2316 27.7515C15.4376 27.0855 15.9328 26.5165 16.9408 26.8039C17.9101 27.0809 22.9346 28.5425 24.1428 28.9257V28.9269Z" fill="white" stroke="#2659A6" stroke-width="0.851524" stroke-linecap="round" stroke-linejoin="round"/>
<path d="M20.3481 31.0156L20.7192 31.2762C20.766 31.3089 20.793 31.3626 20.793 31.4187V32.2892L20.3481 32.0333V31.0156Z" fill="#2659A6"/>
<path d="M21.2871 31.6029L21.6992 31.7933L20.8364 32.2899V31.7769L21.1268 31.6098C21.1759 31.5818 21.2356 31.5795 21.2871 31.6029Z" fill="#0091D3"/>
<path d="M21.6778 32.2799C21.6731 32.336 21.6403 32.3862 21.5911 32.4154L21.3008 32.5825L20.856 32.3266L21.7188 31.8301L21.6778 32.2811V32.2799Z" fill="#73C4EF"/>
<path d="M19.9375 31.2762L20.3086 31.0156V32.0333L19.8637 32.2892V31.4187C19.8637 31.3626 19.8918 31.3089 19.9375 31.2762Z" fill="#8BADDC"/>
<path d="M19.8008 32.3259L19.3559 32.5817L19.0656 32.4147C19.0164 32.3866 18.9848 32.3364 18.979 32.2791L18.938 31.8281L19.8008 32.3247V32.3259Z" fill="#00B3CD"/>
<path d="M19.3696 31.6029C19.4211 31.5795 19.4808 31.5818 19.53 31.6098L19.8203 31.7769V32.2899L18.9575 31.7933L19.3696 31.6029Z" fill="#95D3E6"/>
<path d="M25.5325 22.3809C27.854 29.0792 24.4368 32.2199 23.8819 32.6884C23.2719 33.2025 22.7159 33.3076 21.791 33.1476C20.8674 32.9875 18.1666 31.4347 17.8798 30.6449C17.5883 29.8387 19.0083 27.8279 18.7578 24.9478" fill="white"/>
<path d="M25.5325 22.3809C27.854 29.0792 24.4368 32.2199 23.8819 32.6884C23.2719 33.2025 22.7159 33.3076 21.791 33.1476C20.8674 32.9875 18.1666 31.4347 17.8798 30.6449C17.5883 29.8387 19.0083 27.8279 18.7578 24.9478" stroke="#2659A6" stroke-width="0.851524" stroke-linecap="round" stroke-linejoin="round"/>
<path d="M20.0056 30.821C20.4703 31.0476 20.6881 31.4262 20.5464 32.0677C20.9796 31.536 21.3999 31.6015 21.7241 31.7861C22.0484 31.9707 22.3177 32.4614 22.1456 33.1052L22.114 33.194C22.011 33.1823 21.9033 33.1671 21.7897 33.1472C20.9995 33.0105 19.5514 32.0045 18.767 31.3514C18.7612 31.3222 18.7553 31.293 18.7506 31.2615C19.0386 30.7777 19.5912 30.6165 20.0056 30.8186V30.821Z" fill="white" stroke="#2659A6" stroke-width="0.584206" stroke-linecap="round" stroke-linejoin="round"/>
</g>
<path d="M16 1.30078C24.4223 1.30078 31.2498 8.128 31.25 16.5498C31.25 24.9718 24.4224 31.7998 16 31.7998C7.57763 31.7998 0.75 24.9718 0.75 16.5498C0.750173 8.128 7.57774 1.30078 16 1.30078Z" stroke="#2659A6" stroke-width="1.5"/>
</svg>
