<svg width="57" height="56" viewBox="0 0 57 56" fill="none" xmlns="http://www.w3.org/2000/svg">
<ellipse cx="27.7938" cy="50.9087" rx="5.81723" ry="2.54545" fill="#4E4E4E" fill-opacity="0.36"/>
<mask id="mask0_6800_17504" style="mask-type:alpha" maskUnits="userSpaceOnUse" x="0" y="0" width="57" height="56">
<rect width="56.8796" height="56" fill="#D9D9D9"/>
</mask>
<g mask="url(#mask0_6800_17504)">
<path d="M29.2849 50.6741C28.5497 51.3059 27.4638 51.3059 26.7285 50.6741C21.0071 45.7577 16.6834 41.1706 13.7572 36.9126C10.617 32.3432 9.04688 28.114 9.04688 24.2251C9.04688 18.3918 10.9527 13.7446 14.7645 10.2835C18.5762 6.82235 22.9903 5.0918 28.0067 5.0918C33.0232 5.0918 37.4373 6.82235 41.249 10.2835C45.0607 13.7446 46.9666 18.3918 46.9666 24.2251C46.9666 28.114 45.3965 32.3432 42.2563 36.9126C39.3301 41.1706 35.0063 45.7577 29.2849 50.6741Z" fill="#06D1FF"/>
<mask id="mask1_6800_17504" style="mask-type:alpha" maskUnits="userSpaceOnUse" x="19" y="15" width="19" height="19">
<rect x="19.3867" y="15.6973" width="18.098" height="17.8182" fill="#D9D9D9"/>
</mask>
<g mask="url(#mask1_6800_17504)">
<path d="M24.6646 32.0301V25.2369C24.0236 25.0637 23.4863 24.7172 23.0527 24.1975C22.6191 23.6779 22.4023 23.0715 22.4023 22.3786V17.1816H23.9105V22.3786H24.6646V17.1816H26.1728V22.3786H26.9269V17.1816H28.435V22.3786C28.435 23.0715 28.2182 23.6779 27.7846 24.1975C27.351 24.7172 26.8137 25.0637 26.1728 25.2369V32.0301H24.6646ZM32.2055 32.0301V26.0907H29.9432V20.8938C29.9432 19.8667 30.3108 18.9913 31.046 18.2674C31.7813 17.5436 32.6705 17.1816 33.7136 17.1816V32.0301H32.2055Z" fill="white"/>
</g>
</g>
</svg>
