<svg width="45" height="44" viewBox="0 0 45 44" fill="none" xmlns="http://www.w3.org/2000/svg">
<ellipse cx="21.8363" cy="40" rx="4.57068" ry="2" fill="#4E4E4E" fill-opacity="0.36"/>
<mask id="mask0_6800_17565" style="mask-type:alpha" maskUnits="userSpaceOnUse" x="0" y="0" width="45" height="44">
<rect width="44.6911" height="44" fill="#D9D9D9"/>
</mask>
<g mask="url(#mask0_6800_17565)">
<path d="M23.2826 39.5802C22.5497 40.2146 21.4632 40.2146 20.7302 39.5802C16.3695 35.8058 13.0629 32.2798 10.8104 29.0021C8.34304 25.4118 7.10938 22.0889 7.10938 19.0333C7.10938 14.45 8.60684 10.7986 11.6018 8.07917C14.5967 5.35972 18.0649 4 22.0064 4C25.9479 4 29.4161 5.35972 32.4111 8.07917C35.406 10.7986 36.9034 14.45 36.9034 19.0333C36.9034 22.0889 35.6698 25.4118 33.2025 29.0021C30.9499 32.2798 27.6433 35.8058 23.2826 39.5802Z" fill="url(#paint0_linear_6800_17565)"/>
<mask id="mask1_6800_17565" style="mask-type:alpha" maskUnits="userSpaceOnUse" x="15" y="12" width="14" height="14">
<rect x="15" y="12" width="14" height="14" fill="#D9D9D9"/>
</mask>
<g mask="url(#mask1_6800_17565)">
<path d="M21.9974 21.9163C22.1627 21.9163 22.3012 21.8604 22.413 21.7486C22.5248 21.6368 22.5807 21.4983 22.5807 21.333C22.5807 21.1677 22.5248 21.0292 22.413 20.9174C22.3012 20.8056 22.1627 20.7497 21.9974 20.7497C21.8321 20.7497 21.6936 20.8056 21.5818 20.9174C21.47 21.0292 21.4141 21.1677 21.4141 21.333C21.4141 21.4983 21.47 21.6368 21.5818 21.7486C21.6936 21.8604 21.8321 21.9163 21.9974 21.9163ZM21.9974 19.583C22.1627 19.583 22.3012 19.5271 22.413 19.4153C22.5248 19.3035 22.5807 19.165 22.5807 18.9997C22.5807 18.8344 22.5248 18.6959 22.413 18.584C22.3012 18.4722 22.1627 18.4163 21.9974 18.4163C21.8321 18.4163 21.6936 18.4722 21.5818 18.584C21.47 18.6959 21.4141 18.8344 21.4141 18.9997C21.4141 19.165 21.47 19.3035 21.5818 19.4153C21.6936 19.5271 21.8321 19.583 21.9974 19.583ZM21.9974 17.2497C22.1627 17.2497 22.3012 17.1938 22.413 17.082C22.5248 16.9702 22.5807 16.8316 22.5807 16.6663C22.5807 16.5011 22.5248 16.3625 22.413 16.2507C22.3012 16.1389 22.1627 16.083 21.9974 16.083C21.8321 16.083 21.6936 16.1389 21.5818 16.2507C21.47 16.3625 21.4141 16.5011 21.4141 16.6663C21.4141 16.8316 21.47 16.9702 21.5818 17.082C21.6936 17.1938 21.8321 17.2497 21.9974 17.2497ZM26.6641 23.6663H17.3307C17.0099 23.6663 16.7352 23.5521 16.5068 23.3236C16.2783 23.0952 16.1641 22.8205 16.1641 22.4997V20.1663C16.4849 20.1663 16.7595 20.0521 16.988 19.8236C17.2165 19.5952 17.3307 19.3205 17.3307 18.9997C17.3307 18.6788 17.2165 18.4042 16.988 18.1757C16.7595 17.9472 16.4849 17.833 16.1641 17.833V15.4997C16.1641 15.1788 16.2783 14.9042 16.5068 14.6757C16.7352 14.4472 17.0099 14.333 17.3307 14.333H26.6641C26.9849 14.333 27.2595 14.4472 27.488 14.6757C27.7165 14.9042 27.8307 15.1788 27.8307 15.4997V17.833C27.5099 17.833 27.2352 17.9472 27.0068 18.1757C26.7783 18.4042 26.6641 18.6788 26.6641 18.9997C26.6641 19.3205 26.7783 19.5952 27.0068 19.8236C27.2352 20.0521 27.5099 20.1663 27.8307 20.1663V22.4997C27.8307 22.8205 27.7165 23.0952 27.488 23.3236C27.2595 23.5521 26.9849 23.6663 26.6641 23.6663Z" fill="white"/>
</g>
</g>
<defs>
<linearGradient id="paint0_linear_6800_17565" x1="22.0064" y1="4" x2="22.0064" y2="40.6667" gradientUnits="userSpaceOnUse">
<stop stop-color="#F75558"/>
<stop offset="1" stop-color="#F9888E"/>
</linearGradient>
</defs>
</svg>
