<svg width="256" height="256" viewBox="0 0 256 256" fill="none" xmlns="http://www.w3.org/2000/svg">
<path d="M255.647 18.193C256.662 23.9994 255.469 29.9974 252.332 34.8676L116.04 246.322C114.213 249.162 111.793 251.511 108.969 253.186C106.145 254.862 102.994 255.816 99.7653 255.976C96.5361 256.136 93.3162 255.496 90.3587 254.106C87.4011 252.717 84.7864 250.616 82.7201 247.969L4.70808 147.807C1.22011 143.255 -0.436729 137.42 0.098768 131.573C0.634265 125.727 3.31868 120.342 7.56679 116.595C11.8149 112.847 17.2822 111.039 22.7769 111.565C28.2716 112.092 33.348 114.91 36.8995 119.405L97.2272 196.864L217.841 9.67115C220.979 4.80094 225.805 1.4575 231.258 0.376367C236.711 -0.704764 242.344 0.564963 246.918 3.90622C251.491 7.24748 254.631 12.3866 255.647 18.193Z" fill="white"/>
</svg>
