<svg width="145" height="200" viewBox="0 0 145 200" fill="none" xmlns="http://www.w3.org/2000/svg">
<g clip-path="url(#clip0_6701_37607)">
<path d="M5.96855 183.866H139.037C142.331 183.866 145.006 186.541 145.006 189.835V246.914H0V189.835C0 186.541 2.67477 183.866 5.96855 183.866Z" fill="#06D1FF"/>
<path d="M126.027 197.501H18.9797C15.8506 197.501 13.3008 200.051 13.3008 203.18C13.3008 206.309 15.8506 208.859 18.9797 208.859H126.027C129.157 208.859 131.706 206.309 131.706 203.18C131.706 200.051 129.157 197.501 126.027 197.501Z" fill="#06D1FF"/>
<path d="M126.027 207.156H18.9792C16.7814 207.156 15.0039 205.378 15.0039 203.181C15.0039 200.983 16.7814 199.205 18.9792 199.205H126.027C128.225 199.205 130.002 200.983 130.002 203.181C130.002 205.378 128.225 207.156 126.027 207.156Z" fill="#06D1FF"/>
<path d="M6.91125 183.866H5.96855C2.66909 183.866 0 186.535 0 189.829V246.908H6.91125V183.866Z" fill="#06D1FF"/>
<path d="M139.036 183.866H138.094V246.908H145.005V189.829C145.005 186.535 142.336 183.861 139.036 183.861V183.866Z" fill="#06D1FF"/>
<g style="mix-blend-mode:multiply" opacity="0.3">
<path d="M127 207V177L124.281 179.592L121.74 177.175L119.206 179.592L116.671 177.175L114.13 179.592L111.595 177.175L109.055 179.592L106.52 177.175L103.985 179.592L101.444 177.175L98.9095 179.592L96.3688 177.175L93.8339 179.592L91.2991 177.175L88.7584 179.592L86.2236 177.175L83.6888 179.592L81.1481 177.175L78.6133 179.592L76.0726 177.175L73.5378 179.592L71.003 177.175L68.4622 179.592L65.9274 177.175L63.3867 179.592L60.8519 177.175L58.3171 179.592L55.7764 177.175L53.2416 179.592L50.7068 177.175L48.1661 179.592L45.6313 177.175L43.0905 179.592L40.5557 177.175L38.0209 179.592L35.4802 177.175L32.9454 179.592L30.4047 177.175L27.8699 179.592L25.3351 177.175L22.7944 179.592L20.2596 177.175L17.7248 179.592L15 177V207H127Z" fill="#152C77"/>
</g>
<path d="M126.07 207.156V177.057L123.469 179.658L121.039 177.233L118.614 179.658L116.189 177.233L113.758 179.658L111.333 177.233L108.903 179.658L106.478 177.233L104.053 179.658L101.622 177.233L99.1974 179.658L96.7725 177.233L94.3419 179.658L91.917 177.233L89.4864 179.658L87.0615 177.233L84.6366 179.658L82.206 177.233L79.7812 179.658L77.3506 177.233L74.9257 179.658L72.5008 177.233L70.0702 179.658L67.6453 177.233L65.2204 179.658L62.7898 177.233L60.3649 179.658L57.9343 177.233L55.5094 179.658L53.0845 177.233L50.6539 179.658L48.229 177.233L45.7985 179.658L43.3736 177.233L40.9487 179.658L38.5181 177.233L36.0932 179.658L33.6683 177.233L31.2377 179.658L28.8128 177.233L26.3822 179.658L23.9573 177.233L21.5324 179.658L18.9258 177.057V207.156H126.07Z" fill="white"/>
<g style="mix-blend-mode:multiply" opacity="0.3">
<path d="M118.859 2.96887L119.206 3.3009L119.552 2.96887L121.74 0.869263L123.936 2.96887L124.281 3.29993L124.627 2.96887L126.5 1.172V169.531L124.304 171.333L122.084 169.234L121.74 168.909L121.396 169.234L119.205 171.31L117.015 169.234L116.671 168.909L116.327 169.234L114.13 171.311L111.939 169.234L111.596 168.909L111.252 169.234L109.055 171.311L106.863 169.234L106.52 168.908L106.176 169.234L103.983 171.311L101.788 169.234L101.444 168.909L101.101 169.234L98.9082 171.311L96.7119 169.234L96.3682 168.909L96.0244 169.234L93.834 171.311L91.6436 169.234L91.2998 168.909L90.9561 169.234L88.7588 171.311L86.5674 169.234L86.2236 168.908L85.8799 169.234L83.6875 171.311L81.4912 169.234L81.1475 168.909L80.8037 169.234L78.6123 171.311L76.416 169.234L76.0723 168.909L75.7285 169.234L73.5371 171.31L71.3467 169.234L71.0029 168.909L70.6592 169.234L68.4629 171.311L66.2715 169.234L65.9277 168.909L65.584 169.234L63.3867 171.311L61.1963 169.234L60.8516 168.908L60.5078 169.234L58.3164 171.311L56.1201 169.234L55.7764 168.909L55.4326 169.234L53.2412 171.31L51.0508 169.234L50.707 168.909L50.3633 169.234L48.166 171.311L45.9756 169.234L45.6318 168.909L45.2881 169.234L43.0908 171.311L40.8994 169.234L40.5557 168.908L40.2119 169.234L38.0195 171.311L35.8242 169.234L35.4795 168.909L35.1367 169.234L32.9443 171.311L30.748 169.234L30.4043 168.909L30.0605 169.234L27.8691 171.311L25.6787 169.234L25.3359 168.909L24.9912 169.234L22.7949 171.311L20.6035 169.234L20.2598 168.908L19.916 169.234L17.7002 171.333L15.5 169.531V1.17004L17.3789 2.96887L17.7256 3.29993L18.0713 2.96887L20.2588 0.869263L22.4482 2.96887L22.7939 3.29993L23.1396 2.96887L25.334 0.868286L27.5234 2.96887L27.8701 3.3009L28.2158 2.96887L30.4043 0.869263L32.5996 2.96887L32.9463 3.29993L33.291 2.96887L35.4795 0.868286L37.6748 2.96887L38.0215 3.29993L38.3672 2.96887L40.5557 0.868286L42.7441 2.96887L43.0898 3.29993L43.4365 2.96887L45.6309 0.868286L47.8203 2.96887L48.166 3.29993L48.5117 2.96887L50.7061 0.869263L52.8955 2.96887L53.2412 3.3009L53.5879 2.96887L55.7764 0.868286L57.9717 2.96887L58.3174 3.29993L58.6631 2.96887L60.8516 0.869263L63.041 2.96887L63.3867 3.29993L63.7324 2.96887L65.9268 0.869263L68.1162 2.96887L68.4619 3.29993L68.8076 2.96887L71.002 0.868286L73.1914 2.96887L73.5381 3.3009L73.8838 2.96887L76.0723 0.869263L78.2676 2.96887L78.6133 3.29993L78.959 2.96887L81.1475 0.868286L83.3428 2.96887L83.6895 3.29993L84.0352 2.96887L86.2236 0.868286L88.4121 2.96887L88.7578 3.29993L89.1045 2.96887L91.2988 0.868286L93.4883 2.96887L93.834 3.3009L94.1797 2.96887L96.3682 0.868286L98.5635 2.96887L98.9102 3.29993L99.2559 2.96887L101.444 0.868286L103.64 2.96887L103.985 3.29993L104.331 2.96887L106.52 0.869263L108.709 2.96887L109.054 3.29993L109.4 2.96887L111.595 0.869263L113.784 2.96887L114.13 3.29993L114.476 2.96887L116.67 0.868286L118.859 2.96887Z" fill="#152C77"/>
<path d="M118.859 2.96887L119.206 3.3009L119.552 2.96887L121.74 0.869263L123.936 2.96887L124.281 3.29993L124.627 2.96887L126.5 1.172V169.531L124.304 171.333L122.084 169.234L121.74 168.909L121.396 169.234L119.205 171.31L117.015 169.234L116.671 168.909L116.327 169.234L114.13 171.311L111.939 169.234L111.596 168.909L111.252 169.234L109.055 171.311L106.863 169.234L106.52 168.908L106.176 169.234L103.983 171.311L101.788 169.234L101.444 168.909L101.101 169.234L98.9082 171.311L96.7119 169.234L96.3682 168.909L96.0244 169.234L93.834 171.311L91.6436 169.234L91.2998 168.909L90.9561 169.234L88.7588 171.311L86.5674 169.234L86.2236 168.908L85.8799 169.234L83.6875 171.311L81.4912 169.234L81.1475 168.909L80.8037 169.234L78.6123 171.311L76.416 169.234L76.0723 168.909L75.7285 169.234L73.5371 171.31L71.3467 169.234L71.0029 168.909L70.6592 169.234L68.4629 171.311L66.2715 169.234L65.9277 168.909L65.584 169.234L63.3867 171.311L61.1963 169.234L60.8516 168.908L60.5078 169.234L58.3164 171.311L56.1201 169.234L55.7764 168.909L55.4326 169.234L53.2412 171.31L51.0508 169.234L50.707 168.909L50.3633 169.234L48.166 171.311L45.9756 169.234L45.6318 168.909L45.2881 169.234L43.0908 171.311L40.8994 169.234L40.5557 168.908L40.2119 169.234L38.0195 171.311L35.8242 169.234L35.4795 168.909L35.1367 169.234L32.9443 171.311L30.748 169.234L30.4043 168.909L30.0605 169.234L27.8691 171.311L25.6787 169.234L25.3359 168.909L24.9912 169.234L22.7949 171.311L20.6035 169.234L20.2598 168.908L19.916 169.234L17.7002 171.333L15.5 169.531V1.17004L17.3789 2.96887L17.7256 3.29993L18.0713 2.96887L20.2588 0.869263L22.4482 2.96887L22.7939 3.29993L23.1396 2.96887L25.334 0.868286L27.5234 2.96887L27.8701 3.3009L28.2158 2.96887L30.4043 0.869263L32.5996 2.96887L32.9463 3.29993L33.291 2.96887L35.4795 0.868286L37.6748 2.96887L38.0215 3.29993L38.3672 2.96887L40.5557 0.868286L42.7441 2.96887L43.0898 3.29993L43.4365 2.96887L45.6309 0.868286L47.8203 2.96887L48.166 3.29993L48.5117 2.96887L50.7061 0.869263L52.8955 2.96887L53.2412 3.3009L53.5879 2.96887L55.7764 0.868286L57.9717 2.96887L58.3174 3.29993L58.6631 2.96887L60.8516 0.869263L63.041 2.96887L63.3867 3.29993L63.7324 2.96887L65.9268 0.869263L68.1162 2.96887L68.4619 3.29993L68.8076 2.96887L71.002 0.868286L73.1914 2.96887L73.5381 3.3009L73.8838 2.96887L76.0723 0.869263L78.2676 2.96887L78.6133 3.29993L78.959 2.96887L81.1475 0.868286L83.3428 2.96887L83.6895 3.29993L84.0352 2.96887L86.2236 0.868286L88.4121 2.96887L88.7578 3.29993L89.1045 2.96887L91.2988 0.868286L93.4883 2.96887L93.834 3.3009L94.1797 2.96887L96.3682 0.868286L98.5635 2.96887L98.9102 3.29993L99.2559 2.96887L101.444 0.868286L103.64 2.96887L103.985 3.29993L104.331 2.96887L106.52 0.869263L108.709 2.96887L109.054 3.29993L109.4 2.96887L111.595 0.869263L113.784 2.96887L114.13 3.29993L114.476 2.96887L116.67 0.868286L118.859 2.96887Z" stroke="#152C77"/>
</g>
<path d="M123.469 2.60119L121.039 0.176291L118.614 2.60119L116.189 0.176291L113.758 2.60119L111.333 0.176291L108.903 2.60119L106.478 0.176291L104.053 2.60119L101.622 0.176291L99.1974 2.60119L96.7725 0.176291L94.3419 2.60119L91.917 0.176291L89.4864 2.60119L87.0615 0.176291L84.6366 2.60119L82.206 0.176291L79.7812 2.60119L77.3506 0.176291L74.9257 2.60119L72.5008 0.176291L70.0702 2.60119L67.6453 0.176291L65.2204 2.60119L62.7898 0.176291L60.3649 2.60119L57.9343 0.176291L55.5094 2.60119L53.0845 0.176291L50.6539 2.60119L48.229 0.176291L45.7985 2.60119L43.3736 0.176291L40.9487 2.60119L38.5181 0.176291L36.0932 2.60119L33.6683 0.176291L31.2377 2.60119L28.8128 0.176291L26.3822 2.60119L23.9573 0.176291L21.5324 2.60119L18.9258 0.000244141V169.34L21.5324 171.566L23.9573 169.17L26.3822 171.566L28.8128 169.17L31.2377 171.566L33.6683 169.17L36.0932 171.566L38.5181 169.17L40.9487 171.566L43.3736 169.17L45.7985 171.566L48.229 169.17L50.6539 171.566L53.0845 169.17L55.5094 171.566L57.9343 169.17L60.3649 171.566L62.7898 169.17L65.2204 171.566L67.6453 169.17L70.0702 171.566L72.5008 169.17L74.9257 171.566L77.3506 169.17L79.7812 171.566L82.206 169.17L84.6366 171.566L87.0615 169.17L89.4864 171.566L91.917 169.17L94.3419 171.566L96.7725 169.17L99.1974 171.566L101.622 169.17L104.053 171.566L106.478 169.17L108.903 171.566L111.333 169.17L113.758 171.566L116.189 169.17L118.614 171.566L121.039 169.17L123.469 171.566L126.07 169.34V0.000244141L123.469 2.60119Z" fill="white"/>
<path d="M47.2703 22.0311V11.8044H50.9563C51.6778 11.8044 52.3366 11.9037 52.9326 12.1024C53.5287 12.2906 54.0044 12.6148 54.36 13.0749C54.7155 13.535 54.8933 14.1728 54.8933 14.9885C54.8933 15.7414 54.726 16.3635 54.3913 16.855C54.0672 17.336 53.628 17.6968 53.0738 17.9373L55.3952 22.0311H52.8071L50.8465 18.3451H49.576V22.0311H47.2703ZM49.576 16.5099H50.7681C51.3746 16.5099 51.8347 16.3845 52.1484 16.1335C52.4725 15.8721 52.6346 15.4904 52.6346 14.9885C52.6346 14.4865 52.4725 14.1362 52.1484 13.9376C51.8347 13.7389 51.3746 13.6395 50.7681 13.6395H49.576V16.5099ZM56.8897 22.0311V11.8044H63.2893V13.7493H59.1954V15.8041H62.6775V17.7334H59.1954V20.0862H63.4461V22.0311H56.8897ZM69.7492 22.2194C68.8918 22.2194 68.1023 22.0207 67.3808 21.6233C66.6592 21.226 66.0789 20.6404 65.6397 19.8666C65.211 19.0823 64.9966 18.1203 64.9966 16.9805C64.9966 15.8512 65.2162 14.8891 65.6554 14.0944C66.105 13.2892 66.6958 12.6775 67.4278 12.2593C68.1702 11.8305 68.9702 11.6162 69.8277 11.6162C70.4864 11.6162 71.0772 11.7521 71.6001 12.024C72.1229 12.2854 72.5569 12.5939 72.9019 12.9494L71.6785 14.4238C71.4171 14.1833 71.14 13.9899 70.8472 13.8435C70.5649 13.6866 70.2407 13.6082 69.8747 13.6082C69.4146 13.6082 68.9911 13.7389 68.6042 14.0003C68.2278 14.2617 67.9245 14.6382 67.6945 15.1296C67.4749 15.6211 67.3651 16.2119 67.3651 16.9021C67.3651 17.9477 67.5899 18.7634 68.0395 19.349C68.4892 19.9345 69.0904 20.2273 69.8433 20.2273C70.2616 20.2273 70.6328 20.1332 70.957 19.945C71.2916 19.7568 71.5844 19.532 71.8354 19.2705L73.0588 20.7136C72.2013 21.7174 71.0982 22.2194 69.7492 22.2194ZM74.6121 22.0311V11.8044H81.0117V13.7493H76.9178V15.8041H80.4V17.7334H76.9178V20.0862H81.1685V22.0311H74.6121ZM83.2053 22.0311V11.8044H85.511V22.0311H83.2053ZM87.9231 22.0311V11.8044H91.4366C92.1895 11.8044 92.8692 11.9089 93.4757 12.1181C94.0926 12.3168 94.5841 12.6566 94.9501 13.1376C95.3161 13.6186 95.499 14.2722 95.499 15.0983C95.499 15.893 95.3161 16.5465 94.9501 17.0589C94.5841 17.5713 94.0978 17.953 93.4913 18.2039C92.8848 18.4444 92.2208 18.5647 91.4993 18.5647H90.2288V22.0311H87.9231ZM90.2288 16.7295H91.3582C92.613 16.7295 93.2404 16.1858 93.2404 15.0983C93.2404 14.565 93.0731 14.1885 92.7385 13.9689C92.4038 13.7493 91.9228 13.6395 91.2954 13.6395H90.2288V16.7295ZM99.0444 22.0311V13.7493H96.2367V11.8044H104.173V13.7493H101.366V22.0311H99.0444Z" fill="#06D1FF"/>
<path d="M51.3878 160.213V155.559H49.8102V154.466H54.2699V155.559H52.6923V160.213H51.3878ZM55.166 160.213V154.466H56.4616V156.679H58.4446V154.466H59.7491V160.213H58.4446V157.816H56.4616V160.213H55.166ZM62.4534 157.304L62.3123 157.833H63.5374L63.4052 157.304C63.3289 157.017 63.2495 156.711 63.1673 156.388C63.0909 156.065 63.0145 155.753 62.9381 155.454H62.9029C62.8323 155.759 62.7589 156.074 62.6825 156.397C62.612 156.714 62.5356 157.017 62.4534 157.304ZM60.3733 160.213L62.1713 154.466H63.7313L65.5293 160.213H64.1544L63.8019 158.847H62.0479L61.6954 160.213H60.3733ZM66.1572 160.213V154.466H67.4881L68.9864 157.322L69.5505 158.591H69.5858C69.5623 158.286 69.53 157.945 69.4888 157.569C69.4477 157.193 69.4271 156.834 69.4271 156.494V154.466H70.661V160.213H69.3302L67.8318 157.349L67.2678 156.097H67.2325C67.2619 156.414 67.2942 156.755 67.3295 157.119C67.3706 157.484 67.3912 157.836 67.3912 158.177V160.213H66.1572ZM72.0187 160.213V154.466H73.3143V156.82H73.3496L75.0594 154.466H76.4872L74.7509 156.758L76.8045 160.213H75.3855L73.9842 157.789L73.3143 158.671V160.213H72.0187ZM78.1873 160.213V158.168L76.451 154.466H77.8436L78.3548 155.789C78.437 156.006 78.5164 156.217 78.5927 156.423C78.6691 156.623 78.7455 156.834 78.8219 157.058H78.8572C78.9394 156.834 79.0217 156.623 79.1039 156.423C79.1862 156.217 79.2655 156.006 79.3419 155.789L79.8619 154.466H81.2192L79.4829 158.168V160.213H78.1873ZM84.0115 160.319C83.4944 160.319 83.0391 160.198 82.6454 159.957C82.2576 159.717 81.952 159.373 81.7288 158.926C81.5114 158.474 81.4027 157.936 81.4027 157.313C81.4027 156.685 81.5114 156.153 81.7288 155.718C81.952 155.277 82.2576 154.942 82.6454 154.713C83.0391 154.478 83.4944 154.361 84.0115 154.361C84.5286 154.361 84.981 154.478 85.3688 154.713C85.7625 154.942 86.068 155.277 86.2854 155.718C86.5087 156.159 86.6204 156.69 86.6204 157.313C86.6204 157.936 86.5087 158.474 86.2854 158.926C86.068 159.373 85.7625 159.717 85.3688 159.957C84.981 160.198 84.5286 160.319 84.0115 160.319ZM84.0115 159.199C84.4052 159.199 84.7166 159.029 84.9458 158.688C85.1749 158.347 85.2895 157.889 85.2895 157.313C85.2895 156.737 85.1749 156.288 84.9458 155.965C84.7166 155.642 84.4052 155.48 84.0115 155.48C83.6178 155.48 83.3064 155.642 83.0773 155.965C82.8481 156.288 82.7335 156.737 82.7335 157.313C82.7335 157.889 82.8481 158.347 83.0773 158.688C83.3064 159.029 83.6178 159.199 84.0115 159.199ZM89.966 160.319C89.2198 160.319 88.6498 160.098 88.2561 159.658C87.8625 159.217 87.6656 158.515 87.6656 157.551V154.466H88.97V157.683C88.97 158.248 89.0552 158.641 89.2256 158.865C89.396 159.088 89.6428 159.199 89.966 159.199C90.2892 159.199 90.5389 159.088 90.7152 158.865C90.8914 158.641 90.9796 158.248 90.9796 157.683V154.466H92.2311V157.551C92.2311 158.515 92.0372 159.217 91.6494 159.658C91.2675 160.098 90.7063 160.319 89.966 160.319ZM93.9589 158.177L93.7739 155.48L93.7298 154.308H95.0342L94.9901 155.48L94.8051 158.177H93.9589ZM94.382 160.319C94.1587 160.319 93.9707 160.242 93.8179 160.09C93.671 159.931 93.5976 159.737 93.5976 159.508C93.5976 159.273 93.671 159.079 93.8179 158.926C93.9707 158.768 94.1587 158.688 94.382 158.688C94.6053 158.688 94.7904 158.768 94.9373 158.926C95.09 159.079 95.1664 159.273 95.1664 159.508C95.1664 159.737 95.09 159.931 94.9373 160.09C94.7904 160.242 94.6053 160.319 94.382 160.319Z" fill="#06D1FF"/>
<path d="M120.372 145.931H24.6311C24.5062 145.931 24.3926 145.892 24.3017 145.818C24.1711 145.716 24.0859 145.562 24.0859 145.386C24.0859 145.261 24.1314 145.142 24.2052 145.051C24.3074 144.926 24.4607 144.847 24.6311 144.847H120.372C120.52 144.847 120.656 144.909 120.758 145.006C120.861 145.102 120.917 145.239 120.917 145.392C120.917 145.528 120.866 145.653 120.781 145.75C120.679 145.863 120.537 145.937 120.372 145.937V145.931Z" fill="#06D1FF"/>
<path d="M120.372 116.055H24.6311C24.5062 116.055 24.3926 116.015 24.3017 115.941C24.1711 115.839 24.0859 115.686 24.0859 115.509C24.0859 115.385 24.1314 115.265 24.2052 115.174C24.3074 115.049 24.4607 114.97 24.6311 114.97H120.372C120.52 114.97 120.656 115.032 120.758 115.129C120.855 115.226 120.917 115.362 120.917 115.515C120.917 115.651 120.866 115.776 120.781 115.873C120.679 115.986 120.537 116.06 120.372 116.06V116.055Z" fill="#06D1FF"/>
<path d="M120.372 29.5925H24.6311C24.5062 29.5925 24.3926 29.5527 24.3017 29.4789C24.1711 29.3767 24.0859 29.2234 24.0859 29.0473C24.0859 28.9224 24.1314 28.8031 24.2052 28.7123C24.3074 28.5873 24.4607 28.5078 24.6311 28.5078H120.372C120.52 28.5078 120.656 28.5703 120.758 28.6668C120.855 28.7634 120.917 28.8997 120.917 29.053C120.917 29.1893 120.866 29.3142 120.781 29.4108C120.679 29.5243 120.537 29.5982 120.372 29.5982V29.5925Z" fill="#06D1FF"/>
<path d="M66.8243 38.9631H27.6397C27.3614 38.9631 27.1002 38.8609 26.9014 38.6905C26.6572 38.4804 26.5039 38.1737 26.5039 37.8273C26.5039 37.515 26.6288 37.231 26.839 37.0266C27.0434 36.8221 27.3274 36.6915 27.6397 36.6915H66.8243C67.1366 36.6915 67.4206 36.8165 67.625 37.0266C67.8294 37.2367 67.9601 37.515 67.9601 37.8273C67.9601 38.1397 67.8351 38.4236 67.625 38.628C67.4206 38.8325 67.1366 38.9631 66.8243 38.9631Z" fill="#06D1FF"/>
<path d="M115.851 38.9631H103.448C103.17 38.9631 102.909 38.8609 102.71 38.6905C102.466 38.4804 102.312 38.1737 102.312 37.8273C102.312 37.515 102.437 37.231 102.648 37.0266C102.852 36.8221 103.136 36.6915 103.448 36.6915H115.851C116.163 36.6915 116.447 36.8165 116.652 37.0266C116.856 37.231 116.987 37.515 116.987 37.8273C116.987 38.1397 116.862 38.4236 116.652 38.628C116.442 38.8325 116.163 38.9631 115.851 38.9631Z" fill="#06D1FF"/>
<path d="M71.9349 38.9627C71.9349 39.2239 71.7248 39.434 71.4635 39.434C71.2023 39.434 70.9922 39.2239 70.9922 38.9627C70.9922 38.7015 71.2023 38.4913 71.4635 38.4913C71.7248 38.4913 71.9349 38.7015 71.9349 38.9627Z" fill="#06D1FF"/>
<path d="M75.3411 38.9627C75.3411 39.2239 75.131 39.434 74.8698 39.434C74.6086 39.434 74.3984 39.2239 74.3984 38.9627C74.3984 38.7015 74.6086 38.4913 74.8698 38.4913C75.131 38.4913 75.3411 38.7015 75.3411 38.9627Z" fill="#06D1FF"/>
<path d="M78.7513 38.9627C78.7513 39.2239 78.5412 39.434 78.2799 39.434C78.0187 39.434 77.8086 39.2239 77.8086 38.9627C77.8086 38.7015 78.0187 38.4913 78.2799 38.4913C78.5412 38.4913 78.7513 38.7015 78.7513 38.9627Z" fill="#06D1FF"/>
<path d="M82.1575 38.9627C82.1575 39.2239 81.9474 39.434 81.6862 39.434C81.425 39.434 81.2148 39.2239 81.2148 38.9627C81.2148 38.7015 81.425 38.4913 81.6862 38.4913C81.9474 38.4913 82.1575 38.7015 82.1575 38.9627Z" fill="#06D1FF"/>
<path d="M85.5638 38.9627C85.5638 39.2239 85.3537 39.434 85.0924 39.434C84.8312 39.434 84.6211 39.2239 84.6211 38.9627C84.6211 38.7015 84.8312 38.4913 85.0924 38.4913C85.3537 38.4913 85.5638 38.7015 85.5638 38.9627Z" fill="#06D1FF"/>
<path d="M88.97 38.9627C88.97 39.2239 88.7599 39.434 88.4987 39.434C88.2375 39.434 88.0273 39.2239 88.0273 38.9627C88.0273 38.7015 88.2375 38.4913 88.4987 38.4913C88.7599 38.4913 88.97 38.7015 88.97 38.9627Z" fill="#06D1FF"/>
<path d="M92.3802 38.9627C92.3802 39.2239 92.1701 39.434 91.9089 39.434C91.6476 39.434 91.4375 39.2239 91.4375 38.9627C91.4375 38.7015 91.6476 38.4913 91.9089 38.4913C92.1701 38.4913 92.3802 38.7015 92.3802 38.9627Z" fill="#06D1FF"/>
<path d="M95.7865 38.9627C95.7865 39.2239 95.5763 39.434 95.3151 39.434C95.0539 39.434 94.8438 39.2239 94.8438 38.9627C94.8438 38.7015 95.0539 38.4913 95.3151 38.4913C95.5763 38.4913 95.7865 38.7015 95.7865 38.9627Z" fill="#06D1FF"/>
<path d="M99.1927 38.9627C99.1927 39.2239 98.9826 39.434 98.7214 39.434C98.4601 39.434 98.25 39.2239 98.25 38.9627C98.25 38.7015 98.4601 38.4913 98.7214 38.4913C98.9826 38.4913 99.1927 38.7015 99.1927 38.9627Z" fill="#06D1FF"/>
<path d="M66.8243 48.8049H27.6397C27.3614 48.8049 27.1002 48.7027 26.9014 48.5323C26.6572 48.3222 26.5039 48.0155 26.5039 47.6691C26.5039 47.3568 26.6288 47.0728 26.839 46.8684C27.0434 46.6639 27.3274 46.5333 27.6397 46.5333H66.8243C67.1366 46.5333 67.4206 46.6583 67.625 46.8684C67.8294 47.0728 67.9601 47.3568 67.9601 47.6691C67.9601 47.9815 67.8351 48.2654 67.625 48.4698C67.4149 48.6743 67.1366 48.8049 66.8243 48.8049Z" fill="#06D1FF"/>
<path d="M115.851 48.8049H103.448C103.17 48.8049 102.909 48.7027 102.71 48.5323C102.466 48.3222 102.312 48.0155 102.312 47.6691C102.312 47.3568 102.437 47.0728 102.648 46.8684C102.852 46.6639 103.136 46.5333 103.448 46.5333H115.851C116.163 46.5333 116.447 46.6583 116.652 46.8684C116.856 47.0728 116.987 47.3568 116.987 47.6691C116.987 47.9815 116.862 48.2654 116.652 48.4698C116.447 48.6743 116.163 48.8049 115.851 48.8049Z" fill="#06D1FF"/>
<path d="M71.9349 48.8045C71.9349 49.0657 71.7248 49.2758 71.4635 49.2758C71.2023 49.2758 70.9922 49.0657 70.9922 48.8045C70.9922 48.5433 71.2023 48.3331 71.4635 48.3331C71.7248 48.3331 71.9349 48.5433 71.9349 48.8045Z" fill="#06D1FF"/>
<path d="M75.3411 48.8045C75.3411 49.0657 75.131 49.2758 74.8698 49.2758C74.6086 49.2758 74.3984 49.0657 74.3984 48.8045C74.3984 48.5433 74.6086 48.3331 74.8698 48.3331C75.131 48.3331 75.3411 48.5433 75.3411 48.8045Z" fill="#06D1FF"/>
<path d="M78.7513 48.8045C78.7513 49.0657 78.5412 49.2758 78.2799 49.2758C78.0187 49.2758 77.8086 49.0657 77.8086 48.8045C77.8086 48.5433 78.0187 48.3331 78.2799 48.3331C78.5412 48.3331 78.7513 48.5433 78.7513 48.8045Z" fill="#06D1FF"/>
<path d="M82.1575 48.8045C82.1575 49.0657 81.9474 49.2758 81.6862 49.2758C81.425 49.2758 81.2148 49.0657 81.2148 48.8045C81.2148 48.5433 81.425 48.3331 81.6862 48.3331C81.9474 48.3331 82.1575 48.5433 82.1575 48.8045Z" fill="#06D1FF"/>
<path d="M85.5638 48.8045C85.5638 49.0657 85.3537 49.2758 85.0924 49.2758C84.8312 49.2758 84.6211 49.0657 84.6211 48.8045C84.6211 48.5433 84.8312 48.3331 85.0924 48.3331C85.3537 48.3331 85.5638 48.5433 85.5638 48.8045Z" fill="#06D1FF"/>
<path d="M88.97 48.8045C88.97 49.0657 88.7599 49.2758 88.4987 49.2758C88.2375 49.2758 88.0273 49.0657 88.0273 48.8045C88.0273 48.5433 88.2375 48.3331 88.4987 48.3331C88.7599 48.3331 88.97 48.5433 88.97 48.8045Z" fill="#06D1FF"/>
<path d="M92.3802 48.8045C92.3802 49.0657 92.1701 49.2758 91.9089 49.2758C91.6476 49.2758 91.4375 49.0657 91.4375 48.8045C91.4375 48.5433 91.6476 48.3331 91.9089 48.3331C92.1701 48.3331 92.3802 48.5433 92.3802 48.8045Z" fill="#06D1FF"/>
<path d="M95.7865 48.8045C95.7865 49.0657 95.5763 49.2758 95.3151 49.2758C95.0539 49.2758 94.8438 49.0657 94.8438 48.8045C94.8438 48.5433 95.0539 48.3331 95.3151 48.3331C95.5763 48.3331 95.7865 48.5433 95.7865 48.8045Z" fill="#06D1FF"/>
<path d="M99.1927 48.8045C99.1927 49.0657 98.9826 49.2758 98.7214 49.2758C98.4601 49.2758 98.25 49.0657 98.25 48.8045C98.25 48.5433 98.4601 48.3331 98.7214 48.3331C98.9826 48.3331 99.1927 48.5433 99.1927 48.8045Z" fill="#06D1FF"/>
<path d="M66.8243 58.6516H27.6397C27.3614 58.6516 27.1002 58.5494 26.9014 58.379C26.6572 58.1689 26.5039 57.8622 26.5039 57.5158C26.5039 57.2034 26.6288 56.9195 26.839 56.7151C27.0491 56.5106 27.3274 56.38 27.6397 56.38H66.8243C67.1366 56.38 67.4206 56.5049 67.625 56.7151C67.8294 56.9252 67.9601 57.2034 67.9601 57.5158C67.9601 57.8281 67.8351 58.1121 67.625 58.3165C67.4149 58.521 67.1366 58.6516 66.8243 58.6516Z" fill="#06D1FF"/>
<path d="M115.851 58.6516H103.448C103.17 58.6516 102.909 58.5494 102.71 58.379C102.466 58.1689 102.312 57.8622 102.312 57.5158C102.312 57.2034 102.437 56.9195 102.648 56.7151C102.858 56.5106 103.136 56.38 103.448 56.38H115.851C116.163 56.38 116.447 56.5049 116.652 56.7151C116.856 56.9195 116.987 57.2034 116.987 57.5158C116.987 57.8281 116.862 58.1121 116.652 58.3165C116.447 58.521 116.163 58.6516 115.851 58.6516Z" fill="#06D1FF"/>
<path d="M71.9349 58.6512C71.9349 58.9124 71.7248 59.1225 71.4635 59.1225C71.2023 59.1225 70.9922 58.9124 70.9922 58.6512C70.9922 58.3899 71.2023 58.1798 71.4635 58.1798C71.7248 58.1798 71.9349 58.3899 71.9349 58.6512Z" fill="#06D1FF"/>
<path d="M75.3411 58.6514C75.3411 58.9126 75.131 59.1228 74.8698 59.1228C74.6086 59.1228 74.3984 58.9126 74.3984 58.6514C74.3984 58.3902 74.6086 58.1801 74.8698 58.1801C75.131 58.1801 75.3411 58.3902 75.3411 58.6514Z" fill="#06D1FF"/>
<path d="M78.7513 58.6514C78.7513 58.9126 78.5412 59.1228 78.2799 59.1228C78.0187 59.1228 77.8086 58.9126 77.8086 58.6514C77.8086 58.3902 78.0187 58.1801 78.2799 58.1801C78.5412 58.1801 78.7513 58.3902 78.7513 58.6514Z" fill="#06D1FF"/>
<path d="M82.1575 58.6514C82.1575 58.9126 81.9474 59.1228 81.6862 59.1228C81.425 59.1228 81.2148 58.9126 81.2148 58.6514C81.2148 58.3902 81.425 58.1801 81.6862 58.1801C81.9474 58.1801 82.1575 58.3902 82.1575 58.6514Z" fill="#06D1FF"/>
<path d="M85.5638 58.6514C85.5638 58.9126 85.3537 59.1228 85.0924 59.1228C84.8312 59.1228 84.6211 58.9126 84.6211 58.6514C84.6211 58.3902 84.8312 58.1801 85.0924 58.1801C85.3537 58.1801 85.5638 58.3902 85.5638 58.6514Z" fill="#06D1FF"/>
<path d="M88.97 58.6514C88.97 58.9126 88.7599 59.1228 88.4987 59.1228C88.2375 59.1228 88.0273 58.9126 88.0273 58.6514C88.0273 58.3902 88.2375 58.1801 88.4987 58.1801C88.7599 58.1801 88.97 58.3902 88.97 58.6514Z" fill="#06D1FF"/>
<path d="M92.3802 58.6514C92.3802 58.9126 92.1701 59.1228 91.9089 59.1228C91.6476 59.1228 91.4375 58.9126 91.4375 58.6514C91.4375 58.3902 91.6476 58.1801 91.9089 58.1801C92.1701 58.1801 92.3802 58.3902 92.3802 58.6514Z" fill="#06D1FF"/>
<path d="M95.7865 58.6514C95.7865 58.9126 95.5763 59.1228 95.3151 59.1228C95.0539 59.1228 94.8438 58.9126 94.8438 58.6514C94.8438 58.3902 95.0539 58.1801 95.3151 58.1801C95.5763 58.1801 95.7865 58.3902 95.7865 58.6514Z" fill="#06D1FF"/>
<path d="M99.1927 58.6514C99.1927 58.9126 98.9826 59.1228 98.7214 59.1228C98.4601 59.1228 98.25 58.9126 98.25 58.6514C98.25 58.3902 98.4601 58.1801 98.7214 58.1801C98.9826 58.1801 99.1927 58.3902 99.1927 58.6514Z" fill="#06D1FF"/>
<path d="M66.8243 68.4934H27.6397C27.3614 68.4934 27.1002 68.3911 26.9014 68.2208C26.6572 68.0107 26.5039 67.704 26.5039 67.3576C26.5039 67.0452 26.6288 66.7613 26.839 66.5569C27.0434 66.3524 27.3274 66.2218 27.6397 66.2218H66.8243C67.1366 66.2218 67.4206 66.3467 67.625 66.5569C67.8294 66.767 67.9601 67.0452 67.9601 67.3576C67.9601 67.6699 67.8351 67.9539 67.625 68.1583C67.4206 68.3628 67.1366 68.4934 66.8243 68.4934Z" fill="#06D1FF"/>
<path d="M115.851 68.4931H103.448C103.17 68.4931 102.909 68.3909 102.71 68.2205C102.466 68.0104 102.312 67.7038 102.312 67.3573C102.312 67.045 102.437 66.7611 102.648 66.5566C102.852 66.3522 103.136 66.2216 103.448 66.2216H115.851C116.163 66.2216 116.447 66.3465 116.652 66.5566C116.856 66.7611 116.987 67.045 116.987 67.3573C116.987 67.6697 116.862 67.9536 116.652 68.1581C116.442 68.3625 116.163 68.4931 115.851 68.4931Z" fill="#06D1FF"/>
<path d="M71.9349 68.493C71.9349 68.7542 71.7248 68.9643 71.4635 68.9643C71.2023 68.9643 70.9922 68.7542 70.9922 68.493C70.9922 68.2317 71.2023 68.0216 71.4635 68.0216C71.7248 68.0216 71.9349 68.2317 71.9349 68.493Z" fill="#06D1FF"/>
<path d="M75.3411 68.4927C75.3411 68.7539 75.131 68.9641 74.8698 68.9641C74.6086 68.9641 74.3984 68.7539 74.3984 68.4927C74.3984 68.2315 74.6086 68.0214 74.8698 68.0214C75.131 68.0214 75.3411 68.2315 75.3411 68.4927Z" fill="#06D1FF"/>
<path d="M78.7513 68.4927C78.7513 68.7539 78.5412 68.9641 78.2799 68.9641C78.0187 68.9641 77.8086 68.7539 77.8086 68.4927C77.8086 68.2315 78.0187 68.0214 78.2799 68.0214C78.5412 68.0214 78.7513 68.2315 78.7513 68.4927Z" fill="#06D1FF"/>
<path d="M82.1575 68.4927C82.1575 68.7539 81.9474 68.9641 81.6862 68.9641C81.425 68.9641 81.2148 68.7539 81.2148 68.4927C81.2148 68.2315 81.425 68.0214 81.6862 68.0214C81.9474 68.0214 82.1575 68.2315 82.1575 68.4927Z" fill="#06D1FF"/>
<path d="M85.5638 68.4927C85.5638 68.7539 85.3537 68.9641 85.0924 68.9641C84.8312 68.9641 84.6211 68.7539 84.6211 68.4927C84.6211 68.2315 84.8312 68.0214 85.0924 68.0214C85.3537 68.0214 85.5638 68.2315 85.5638 68.4927Z" fill="#06D1FF"/>
<path d="M88.97 68.4927C88.97 68.7539 88.7599 68.9641 88.4987 68.9641C88.2375 68.9641 88.0273 68.7539 88.0273 68.4927C88.0273 68.2315 88.2375 68.0214 88.4987 68.0214C88.7599 68.0214 88.97 68.2315 88.97 68.4927Z" fill="#06D1FF"/>
<path d="M92.3802 68.4927C92.3802 68.7539 92.1701 68.9641 91.9089 68.9641C91.6476 68.9641 91.4375 68.7539 91.4375 68.4927C91.4375 68.2315 91.6476 68.0214 91.9089 68.0214C92.1701 68.0214 92.3802 68.2315 92.3802 68.4927Z" fill="#06D1FF"/>
<path d="M95.7865 68.4927C95.7865 68.7539 95.5763 68.9641 95.3151 68.9641C95.0539 68.9641 94.8438 68.7539 94.8438 68.4927C94.8438 68.2315 95.0539 68.0214 95.3151 68.0214C95.5763 68.0214 95.7865 68.2315 95.7865 68.4927Z" fill="#06D1FF"/>
<path d="M99.1927 68.4927C99.1927 68.7539 98.9826 68.9641 98.7214 68.9641C98.4601 68.9641 98.25 68.7539 98.25 68.4927C98.25 68.2315 98.4601 68.0214 98.7214 68.0214C98.9826 68.0214 99.1927 68.2315 99.1927 68.4927Z" fill="#06D1FF"/>
<path d="M66.8243 78.3349H27.6397C27.3614 78.3349 27.1002 78.2327 26.9014 78.0623C26.6572 77.8522 26.5039 77.5456 26.5039 77.1991C26.5039 76.8868 26.6288 76.6029 26.839 76.3984C27.0434 76.194 27.3274 76.0634 27.6397 76.0634H66.8243C67.1366 76.0634 67.4206 76.1883 67.625 76.3984C67.8294 76.6029 67.9601 76.8868 67.9601 77.1991C67.9601 77.5115 67.8351 77.7954 67.625 77.9999C67.4149 78.2043 67.1366 78.3349 66.8243 78.3349Z" fill="#06D1FF"/>
<path d="M115.851 78.3347H103.448C103.17 78.3347 102.909 78.2325 102.71 78.0621C102.466 77.852 102.312 77.5453 102.312 77.1989C102.312 76.8866 102.437 76.6026 102.648 76.3982C102.852 76.1937 103.136 76.0631 103.448 76.0631H115.851C116.163 76.0631 116.447 76.188 116.652 76.3982C116.856 76.6026 116.987 76.8866 116.987 77.1989C116.987 77.5112 116.862 77.7952 116.652 77.9996C116.447 78.2041 116.163 78.3347 115.851 78.3347Z" fill="#06D1FF"/>
<path d="M71.9349 78.3345C71.9349 78.5957 71.7248 78.8059 71.4635 78.8059C71.2023 78.8059 70.9922 78.5957 70.9922 78.3345C70.9922 78.0733 71.2023 77.8632 71.4635 77.8632C71.7248 77.8632 71.9349 78.0733 71.9349 78.3345Z" fill="#06D1FF"/>
<path d="M75.3411 78.3343C75.3411 78.5955 75.131 78.8056 74.8698 78.8056C74.6086 78.8056 74.3984 78.5955 74.3984 78.3343C74.3984 78.073 74.6086 77.8629 74.8698 77.8629C75.131 77.8629 75.3411 78.073 75.3411 78.3343Z" fill="#06D1FF"/>
<path d="M78.7513 78.3343C78.7513 78.5955 78.5412 78.8056 78.2799 78.8056C78.0187 78.8056 77.8086 78.5955 77.8086 78.3343C77.8086 78.073 78.0187 77.8629 78.2799 77.8629C78.5412 77.8629 78.7513 78.073 78.7513 78.3343Z" fill="#06D1FF"/>
<path d="M82.1575 78.3343C82.1575 78.5955 81.9474 78.8056 81.6862 78.8056C81.425 78.8056 81.2148 78.5955 81.2148 78.3343C81.2148 78.073 81.425 77.8629 81.6862 77.8629C81.9474 77.8629 82.1575 78.073 82.1575 78.3343Z" fill="#06D1FF"/>
<path d="M85.5638 78.3343C85.5638 78.5955 85.3537 78.8056 85.0924 78.8056C84.8312 78.8056 84.6211 78.5955 84.6211 78.3343C84.6211 78.073 84.8312 77.8629 85.0924 77.8629C85.3537 77.8629 85.5638 78.073 85.5638 78.3343Z" fill="#06D1FF"/>
<path d="M88.97 78.3343C88.97 78.5955 88.7599 78.8056 88.4987 78.8056C88.2375 78.8056 88.0273 78.5955 88.0273 78.3343C88.0273 78.073 88.2375 77.8629 88.4987 77.8629C88.7599 77.8629 88.97 78.073 88.97 78.3343Z" fill="#06D1FF"/>
<path d="M92.3802 78.3343C92.3802 78.5955 92.1701 78.8056 91.9089 78.8056C91.6476 78.8056 91.4375 78.5955 91.4375 78.3343C91.4375 78.073 91.6476 77.8629 91.9089 77.8629C92.1701 77.8629 92.3802 78.073 92.3802 78.3343Z" fill="#06D1FF"/>
<path d="M95.7865 78.3343C95.7865 78.5955 95.5763 78.8056 95.3151 78.8056C95.0539 78.8056 94.8438 78.5955 94.8438 78.3343C94.8438 78.073 95.0539 77.8629 95.3151 77.8629C95.5763 77.8629 95.7865 78.073 95.7865 78.3343Z" fill="#06D1FF"/>
<path d="M99.1927 78.3343C99.1927 78.5955 98.9826 78.8056 98.7214 78.8056C98.4601 78.8056 98.25 78.5955 98.25 78.3343C98.25 78.073 98.4601 77.8629 98.7214 77.8629C98.9826 77.8629 99.1927 78.073 99.1927 78.3343Z" fill="#06D1FF"/>
<path d="M66.8243 88.1828H27.6397C27.3614 88.1828 27.1002 88.0806 26.9014 87.9102C26.6572 87.7001 26.5039 87.3935 26.5039 87.047C26.5039 86.7347 26.6288 86.4508 26.839 86.2463C27.0491 86.0419 27.3274 85.9113 27.6397 85.9113H66.8243C67.1366 85.9113 67.4206 86.0362 67.625 86.2463C67.8294 86.4564 67.9601 86.7347 67.9601 87.047C67.9601 87.3594 67.8351 87.6433 67.625 87.8478C67.4149 88.0522 67.1366 88.1828 66.8243 88.1828Z" fill="#06D1FF"/>
<path d="M115.851 88.1829H103.448C103.17 88.1829 102.909 88.0807 102.71 87.9104C102.466 87.7002 102.312 87.3936 102.312 87.0472C102.312 86.7348 102.437 86.4509 102.648 86.2464C102.858 86.042 103.136 85.9114 103.448 85.9114H115.851C116.163 85.9114 116.447 86.0363 116.652 86.2464C116.856 86.4509 116.987 86.7348 116.987 87.0472C116.987 87.3595 116.862 87.6435 116.652 87.8479C116.447 88.0523 116.163 88.1829 115.851 88.1829Z" fill="#06D1FF"/>
<path d="M71.9349 88.1824C71.9349 88.4436 71.7248 88.6538 71.4635 88.6538C71.2023 88.6538 70.9922 88.4436 70.9922 88.1824C70.9922 87.9212 71.2023 87.7111 71.4635 87.7111C71.7248 87.7111 71.9349 87.9212 71.9349 88.1824Z" fill="#06D1FF"/>
<path d="M75.3411 88.1824C75.3411 88.4436 75.131 88.6538 74.8698 88.6538C74.6086 88.6538 74.3984 88.4436 74.3984 88.1824C74.3984 87.9212 74.6086 87.7111 74.8698 87.7111C75.131 87.7111 75.3411 87.9212 75.3411 88.1824Z" fill="#06D1FF"/>
<path d="M78.7513 88.1824C78.7513 88.4436 78.5412 88.6538 78.2799 88.6538C78.0187 88.6538 77.8086 88.4436 77.8086 88.1824C77.8086 87.9212 78.0187 87.7111 78.2799 87.7111C78.5412 87.7111 78.7513 87.9212 78.7513 88.1824Z" fill="#06D1FF"/>
<path d="M82.1575 88.1824C82.1575 88.4436 81.9474 88.6538 81.6862 88.6538C81.425 88.6538 81.2148 88.4436 81.2148 88.1824C81.2148 87.9212 81.425 87.7111 81.6862 87.7111C81.9474 87.7111 82.1575 87.9212 82.1575 88.1824Z" fill="#06D1FF"/>
<path d="M85.5638 88.1824C85.5638 88.4436 85.3537 88.6538 85.0924 88.6538C84.8312 88.6538 84.6211 88.4436 84.6211 88.1824C84.6211 87.9212 84.8312 87.7111 85.0924 87.7111C85.3537 87.7111 85.5638 87.9212 85.5638 88.1824Z" fill="#06D1FF"/>
<path d="M88.97 88.1824C88.97 88.4436 88.7599 88.6538 88.4987 88.6538C88.2375 88.6538 88.0273 88.4436 88.0273 88.1824C88.0273 87.9212 88.2375 87.7111 88.4987 87.7111C88.7599 87.7111 88.97 87.9212 88.97 88.1824Z" fill="#06D1FF"/>
<path d="M92.3802 88.1824C92.3802 88.4436 92.1701 88.6538 91.9089 88.6538C91.6476 88.6538 91.4375 88.4436 91.4375 88.1824C91.4375 87.9212 91.6476 87.7111 91.9089 87.7111C92.1701 87.7111 92.3802 87.9212 92.3802 88.1824Z" fill="#06D1FF"/>
<path d="M95.7865 88.1824C95.7865 88.4436 95.5763 88.6538 95.3151 88.6538C95.0539 88.6538 94.8438 88.4436 94.8438 88.1824C94.8438 87.9212 95.0539 87.7111 95.3151 87.7111C95.5763 87.7111 95.7865 87.9212 95.7865 88.1824Z" fill="#06D1FF"/>
<path d="M99.1927 88.1824C99.1927 88.4436 98.9826 88.6538 98.7214 88.6538C98.4601 88.6538 98.25 88.4436 98.25 88.1824C98.25 87.9212 98.4601 87.7111 98.7214 87.7111C98.9826 87.7111 99.1927 87.9212 99.1927 88.1824Z" fill="#06D1FF"/>
<path d="M66.8243 98.0246H27.6397C27.3614 98.0246 27.1002 97.9224 26.9014 97.752C26.6572 97.5419 26.5039 97.2353 26.5039 96.8888C26.5039 96.5765 26.6288 96.2925 26.839 96.0881C27.0434 95.8837 27.3274 95.7531 27.6397 95.7531H66.8243C67.1366 95.7531 67.4206 95.878 67.625 96.0881C67.8294 96.2982 67.9601 96.5765 67.9601 96.8888C67.9601 97.2012 67.8351 97.4851 67.625 97.6896C67.4206 97.894 67.1366 98.0246 66.8243 98.0246Z" fill="#06D1FF"/>
<path d="M115.851 98.0247H103.448C103.17 98.0247 102.909 97.9225 102.71 97.7522C102.466 97.542 102.312 97.2354 102.312 96.889C102.312 96.5766 102.437 96.2927 102.648 96.0882C102.852 95.8838 103.136 95.7532 103.448 95.7532H115.851C116.163 95.7532 116.447 95.8781 116.652 96.0882C116.856 96.2927 116.987 96.5766 116.987 96.889C116.987 97.2013 116.862 97.4852 116.652 97.6897C116.442 97.8941 116.163 98.0247 115.851 98.0247Z" fill="#06D1FF"/>
<path d="M71.9349 98.0243C71.9349 98.2856 71.7248 98.4957 71.4635 98.4957C71.2023 98.4957 70.9922 98.2856 70.9922 98.0243C70.9922 97.7631 71.2023 97.553 71.4635 97.553C71.7248 97.553 71.9349 97.7631 71.9349 98.0243Z" fill="#06D1FF"/>
<path d="M75.3411 98.0245C75.3411 98.2857 75.131 98.4958 74.8698 98.4958C74.6086 98.4958 74.3984 98.2857 74.3984 98.0245C74.3984 97.7632 74.6086 97.5531 74.8698 97.5531C75.131 97.5531 75.3411 97.7632 75.3411 98.0245Z" fill="#06D1FF"/>
<path d="M78.7513 98.0245C78.7513 98.2857 78.5412 98.4958 78.2799 98.4958C78.0187 98.4958 77.8086 98.2857 77.8086 98.0245C77.8086 97.7632 78.0187 97.5531 78.2799 97.5531C78.5412 97.5531 78.7513 97.7632 78.7513 98.0245Z" fill="#06D1FF"/>
<path d="M82.1575 98.0245C82.1575 98.2857 81.9474 98.4958 81.6862 98.4958C81.425 98.4958 81.2148 98.2857 81.2148 98.0245C81.2148 97.7632 81.425 97.5531 81.6862 97.5531C81.9474 97.5531 82.1575 97.7632 82.1575 98.0245Z" fill="#06D1FF"/>
<path d="M85.5638 98.0245C85.5638 98.2857 85.3537 98.4958 85.0924 98.4958C84.8312 98.4958 84.6211 98.2857 84.6211 98.0245C84.6211 97.7632 84.8312 97.5531 85.0924 97.5531C85.3537 97.5531 85.5638 97.7632 85.5638 98.0245Z" fill="#06D1FF"/>
<path d="M88.97 98.0245C88.97 98.2857 88.7599 98.4958 88.4987 98.4958C88.2375 98.4958 88.0273 98.2857 88.0273 98.0245C88.0273 97.7632 88.2375 97.5531 88.4987 97.5531C88.7599 97.5531 88.97 97.7632 88.97 98.0245Z" fill="#06D1FF"/>
<path d="M92.3802 98.0245C92.3802 98.2857 92.1701 98.4958 91.9089 98.4958C91.6476 98.4958 91.4375 98.2857 91.4375 98.0245C91.4375 97.7632 91.6476 97.5531 91.9089 97.5531C92.1701 97.5531 92.3802 97.7632 92.3802 98.0245Z" fill="#06D1FF"/>
<path d="M95.7865 98.0245C95.7865 98.2857 95.5763 98.4958 95.3151 98.4958C95.0539 98.4958 94.8438 98.2857 94.8438 98.0245C94.8438 97.7632 95.0539 97.5531 95.3151 97.5531C95.5763 97.5531 95.7865 97.7632 95.7865 98.0245Z" fill="#06D1FF"/>
<path d="M99.1927 98.0245C99.1927 98.2857 98.9826 98.4958 98.7214 98.4958C98.4601 98.4958 98.25 98.2857 98.25 98.0245C98.25 97.7632 98.4601 97.5531 98.7214 97.5531C98.9826 97.5531 99.1927 97.7632 99.1927 98.0245Z" fill="#06D1FF"/>
<path d="M66.8243 107.866H27.6397C27.3614 107.866 27.1002 107.763 26.9014 107.593C26.6572 107.383 26.5039 107.076 26.5039 106.73C26.5039 106.417 26.6288 106.133 26.839 105.929C27.0434 105.725 27.3274 105.594 27.6397 105.594H66.8243C67.1366 105.594 67.4206 105.719 67.625 105.929C67.8294 106.133 67.9601 106.417 67.9601 106.73C67.9601 107.042 67.8351 107.326 67.625 107.531C67.4149 107.735 67.1366 107.866 66.8243 107.866Z" fill="#06D1FF"/>
<path d="M115.851 107.866H103.448C103.17 107.866 102.909 107.763 102.71 107.593C102.466 107.383 102.312 107.076 102.312 106.73C102.312 106.418 102.437 106.134 102.648 105.929C102.852 105.725 103.136 105.594 103.448 105.594H115.851C116.163 105.594 116.447 105.719 116.652 105.929C116.856 106.134 116.987 106.418 116.987 106.73C116.987 107.042 116.862 107.326 116.652 107.531C116.447 107.735 116.163 107.866 115.851 107.866Z" fill="#06D1FF"/>
<path d="M71.9349 107.865C71.9349 108.127 71.7248 108.337 71.4635 108.337C71.2023 108.337 70.9922 108.127 70.9922 107.865C70.9922 107.604 71.2023 107.394 71.4635 107.394C71.7248 107.394 71.9349 107.604 71.9349 107.865Z" fill="#06D1FF"/>
<path d="M75.3411 107.865C75.3411 108.127 75.131 108.337 74.8698 108.337C74.6086 108.337 74.3984 108.127 74.3984 107.865C74.3984 107.604 74.6086 107.394 74.8698 107.394C75.131 107.394 75.3411 107.604 75.3411 107.865Z" fill="#06D1FF"/>
<path d="M78.7513 107.865C78.7513 108.127 78.5412 108.337 78.2799 108.337C78.0187 108.337 77.8086 108.127 77.8086 107.865C77.8086 107.604 78.0187 107.394 78.2799 107.394C78.5412 107.394 78.7513 107.604 78.7513 107.865Z" fill="#06D1FF"/>
<path d="M82.1575 107.865C82.1575 108.127 81.9474 108.337 81.6862 108.337C81.425 108.337 81.2148 108.127 81.2148 107.865C81.2148 107.604 81.425 107.394 81.6862 107.394C81.9474 107.394 82.1575 107.604 82.1575 107.865Z" fill="#06D1FF"/>
<path d="M85.5638 107.865C85.5638 108.127 85.3537 108.337 85.0924 108.337C84.8312 108.337 84.6211 108.127 84.6211 107.865C84.6211 107.604 84.8312 107.394 85.0924 107.394C85.3537 107.394 85.5638 107.604 85.5638 107.865Z" fill="#06D1FF"/>
<path d="M88.97 107.865C88.97 108.127 88.7599 108.337 88.4987 108.337C88.2375 108.337 88.0273 108.127 88.0273 107.865C88.0273 107.604 88.2375 107.394 88.4987 107.394C88.7599 107.394 88.97 107.604 88.97 107.865Z" fill="#06D1FF"/>
<path d="M92.3802 107.865C92.3802 108.127 92.1701 108.337 91.9089 108.337C91.6476 108.337 91.4375 108.127 91.4375 107.865C91.4375 107.604 91.6476 107.394 91.9089 107.394C92.1701 107.394 92.3802 107.604 92.3802 107.865Z" fill="#06D1FF"/>
<path d="M95.7865 107.865C95.7865 108.127 95.5763 108.337 95.3151 108.337C95.0539 108.337 94.8438 108.127 94.8438 107.865C94.8438 107.604 95.0539 107.394 95.3151 107.394C95.5763 107.394 95.7865 107.604 95.7865 107.865Z" fill="#06D1FF"/>
<path d="M99.1927 107.865C99.1927 108.127 98.9826 108.337 98.7214 108.337C98.4601 108.337 98.25 108.127 98.25 107.865C98.25 107.604 98.4601 107.394 98.7214 107.394C98.9826 107.394 99.1927 107.604 99.1927 107.865Z" fill="#06D1FF"/>
<path d="M90.7278 136.42V134.852C90.2677 134.8 89.7814 134.674 89.2691 134.475C88.7671 134.266 88.3332 133.994 87.9672 133.66L88.971 132.107C89.3684 132.4 89.7448 132.625 90.1004 132.781C90.4664 132.938 90.8376 133.017 91.214 133.017C92.061 133.017 92.4845 132.656 92.4845 131.934C92.4845 131.662 92.3852 131.432 92.1865 131.244C91.9878 131.046 91.7316 130.863 91.4179 130.695C91.1042 130.528 90.7696 130.355 90.4141 130.178C90.0586 130 89.7239 129.796 89.4102 129.566C89.0965 129.336 88.8403 129.059 88.6417 128.735C88.443 128.4 88.3436 127.997 88.3436 127.527C88.3436 126.753 88.558 126.115 88.9867 125.613C89.4155 125.101 89.9958 124.771 90.7278 124.625V123.009H92.2492V124.594C92.7512 124.667 93.1904 124.819 93.5668 125.049C93.9433 125.279 94.2831 125.556 94.5863 125.88L93.4256 127.197C93.1433 126.936 92.8714 126.743 92.61 126.617C92.3486 126.481 92.0506 126.413 91.716 126.413C91.3395 126.413 91.0519 126.492 90.8533 126.648C90.6546 126.805 90.5552 127.061 90.5552 127.417C90.5552 127.668 90.6546 127.882 90.8533 128.06C91.0519 128.227 91.3081 128.389 91.6218 128.546C91.9355 128.703 92.2702 128.865 92.6257 129.033C92.9812 129.2 93.3158 129.404 93.6295 129.644C93.9432 129.885 94.1994 130.178 94.3981 130.523C94.5968 130.857 94.6961 131.276 94.6961 131.778C94.6961 132.53 94.487 133.179 94.0687 133.722C93.6609 134.256 93.0544 134.611 92.2492 134.789V136.42H90.7278ZM98.1362 134.695C98.199 133.587 98.3192 132.593 98.497 131.715C98.6747 130.836 98.9466 129.995 99.3126 129.189C99.6786 128.384 100.175 127.548 100.803 126.68H96.3324V124.735H103.265V126.147C102.69 126.847 102.225 127.506 101.869 128.123C101.524 128.74 101.252 129.372 101.054 130.021C100.865 130.659 100.73 131.354 100.646 132.107C100.562 132.86 100.499 133.722 100.458 134.695H98.1362ZM108.07 134.883C107.003 134.883 106.141 134.439 105.482 133.55C104.834 132.661 104.509 131.37 104.509 129.676C104.509 127.982 104.834 126.706 105.482 125.848C106.141 124.981 107.003 124.547 108.07 124.547C109.137 124.547 109.994 124.981 110.642 125.848C111.301 126.706 111.631 127.982 111.631 129.676C111.631 131.37 111.301 132.661 110.642 133.55C109.994 134.439 109.137 134.883 108.07 134.883ZM108.07 133.095C108.331 133.095 108.567 133.001 108.776 132.813C108.985 132.614 109.147 132.269 109.262 131.778C109.388 131.286 109.45 130.585 109.45 129.676C109.45 128.766 109.388 128.071 109.262 127.59C109.147 127.109 108.985 126.779 108.776 126.601C108.567 126.424 108.331 126.335 108.07 126.335C107.819 126.335 107.589 126.424 107.38 126.601C107.171 126.779 107.003 127.109 106.878 127.59C106.752 128.071 106.69 128.766 106.69 129.676C106.69 130.585 106.752 131.286 106.878 131.778C107.003 132.269 107.171 132.614 107.38 132.813C107.589 133.001 107.819 133.095 108.07 133.095ZM116.357 134.883C115.29 134.883 114.427 134.439 113.769 133.55C113.12 132.661 112.796 131.37 112.796 129.676C112.796 127.982 113.12 126.706 113.769 125.848C114.427 124.981 115.29 124.547 116.357 124.547C117.423 124.547 118.281 124.981 118.929 125.848C119.588 126.706 119.917 127.982 119.917 129.676C119.917 131.37 119.588 132.661 118.929 133.55C118.281 134.439 117.423 134.883 116.357 134.883ZM116.357 133.095C116.618 133.095 116.853 133.001 117.063 132.813C117.272 132.614 117.434 132.269 117.549 131.778C117.674 131.286 117.737 130.585 117.737 129.676C117.737 128.766 117.674 128.071 117.549 127.59C117.434 127.109 117.272 126.779 117.063 126.601C116.853 126.424 116.618 126.335 116.357 126.335C116.106 126.335 115.876 126.424 115.667 126.601C115.457 126.779 115.29 127.109 115.165 127.59C115.039 128.071 114.976 128.766 114.976 129.676C114.976 130.585 115.039 131.286 115.165 131.778C115.29 132.269 115.457 132.614 115.667 132.813C115.876 133.001 116.106 133.095 116.357 133.095Z" fill="#06D1FF"/>
<path d="M29.0208 133.93V129.579H27.5458V128.557H31.7153V129.579H30.2404V133.93H29.0208ZM34.5033 134.028C34.0199 134.028 33.5942 133.916 33.2261 133.691C32.8636 133.465 32.5779 133.144 32.3691 132.727C32.1659 132.304 32.0643 131.801 32.0643 131.219C32.0643 130.631 32.1659 130.134 32.3691 129.727C32.5779 129.315 32.8636 129.002 33.2261 128.788C33.5942 128.568 34.0199 128.458 34.5033 128.458C34.9868 128.458 35.4098 128.568 35.7723 128.788C36.1404 129.002 36.426 129.315 36.6293 129.727C36.838 130.139 36.9424 130.636 36.9424 131.219C36.9424 131.801 36.838 132.304 36.6293 132.727C36.426 133.144 36.1404 133.465 35.7723 133.691C35.4098 133.916 34.9868 134.028 34.5033 134.028ZM34.5033 132.982C34.8714 132.982 35.1626 132.823 35.3768 132.504C35.591 132.185 35.6982 131.757 35.6982 131.219C35.6982 130.68 35.591 130.26 35.3768 129.958C35.1626 129.656 34.8714 129.505 34.5033 129.505C34.1353 129.505 33.8441 129.656 33.6299 129.958C33.4156 130.26 33.3085 130.68 33.3085 131.219C33.3085 131.757 33.4156 132.185 33.6299 132.504C33.8441 132.823 34.1353 132.982 34.5033 132.982ZM38.7657 133.93V129.579H37.2908V128.557H41.4603V129.579H39.9853V133.93H38.7657ZM43.2288 131.21L43.097 131.705H44.2423L44.1187 131.21C44.0473 130.941 43.9732 130.655 43.8962 130.353C43.8248 130.051 43.7534 129.76 43.682 129.48H43.649C43.5831 129.766 43.5145 130.059 43.443 130.362C43.3771 130.658 43.3057 130.941 43.2288 131.21ZM41.2841 133.93L42.9651 128.557H44.4236L46.1046 133.93H44.8191L44.4895 132.652H42.8497L42.5201 133.93H41.2841ZM46.6916 133.93V128.557H47.9029V132.908H50.0289V133.93H46.6916Z" fill="#06D1FF"/>
<path d="M54.8021 133.574C54.8021 133.835 54.592 134.045 54.3307 134.045C54.0695 134.045 53.8594 133.835 53.8594 133.574C53.8594 133.313 54.0695 133.102 54.3307 133.102C54.592 133.102 54.8021 133.313 54.8021 133.574Z" fill="#06D1FF"/>
<path d="M58.2083 133.574C58.2083 133.835 57.9982 134.045 57.737 134.045C57.4757 134.045 57.2656 133.835 57.2656 133.574C57.2656 133.313 57.4757 133.102 57.737 133.102C57.9982 133.102 58.2083 133.313 58.2083 133.574Z" fill="#06D1FF"/>
<path d="M61.6185 133.574C61.6185 133.835 61.4084 134.045 61.1471 134.045C60.8859 134.045 60.6758 133.835 60.6758 133.574C60.6758 133.313 60.8859 133.102 61.1471 133.102C61.4084 133.102 61.6185 133.313 61.6185 133.574Z" fill="#06D1FF"/>
<path d="M65.0247 133.574C65.0247 133.835 64.8146 134.045 64.5534 134.045C64.2922 134.045 64.082 133.835 64.082 133.574C64.082 133.313 64.2922 133.102 64.5534 133.102C64.8146 133.102 65.0247 133.313 65.0247 133.574Z" fill="#06D1FF"/>
<path d="M68.431 133.574C68.431 133.835 68.2209 134.045 67.9596 134.045C67.6984 134.045 67.4883 133.835 67.4883 133.574C67.4883 133.313 67.6984 133.102 67.9596 133.102C68.2209 133.102 68.431 133.313 68.431 133.574Z" fill="#06D1FF"/>
<path d="M71.8411 133.574C71.8411 133.835 71.631 134.045 71.3698 134.045C71.1086 134.045 70.8984 133.835 70.8984 133.574C70.8984 133.313 71.1086 133.102 71.3698 133.102C71.631 133.102 71.8411 133.313 71.8411 133.574Z" fill="#06D1FF"/>
<path d="M75.2474 133.574C75.2474 133.835 75.0373 134.045 74.776 134.045C74.5148 134.045 74.3047 133.835 74.3047 133.574C74.3047 133.313 74.5148 133.102 74.776 133.102C75.0373 133.102 75.2474 133.313 75.2474 133.574Z" fill="#06D1FF"/>
<path d="M78.6536 133.574C78.6536 133.835 78.4435 134.045 78.1823 134.045C77.9211 134.045 77.7109 133.835 77.7109 133.574C77.7109 133.313 77.9211 133.102 78.1823 133.102C78.4435 133.102 78.6536 133.313 78.6536 133.574Z" fill="#06D1FF"/>
<path d="M82.0599 133.574C82.0599 133.835 81.8498 134.045 81.5885 134.045C81.3273 134.045 81.1172 133.835 81.1172 133.574C81.1172 133.313 81.3273 133.102 81.5885 133.102C81.8498 133.102 82.0599 133.313 82.0599 133.574Z" fill="#06D1FF"/>
</g>
<defs>
<clipPath id="clip0_6701_37607">
<rect width="145" height="246.908" fill="white"/>
</clipPath>
</defs>
</svg>
