<svg width="200" height="281" viewBox="0 0 200 281" fill="none" xmlns="http://www.w3.org/2000/svg">
<g style="mix-blend-mode:multiply" opacity="0.3">
<path d="M139.414 25.8642H133.174V21.7582C133.174 18.8637 130.83 16.5192 127.935 16.5192H120.104V5.23899C120.104 2.34452 117.759 0 114.865 0H81.5329C78.6384 0 76.2939 2.34452 76.2939 5.23899V16.5192H68.4623C65.5678 16.5192 63.2233 18.8637 63.2233 21.7582V25.8642H56.9836C52.9727 25.8642 49.7227 29.1143 49.7227 33.1252V61.6192C49.7227 65.6301 52.9727 68.8802 56.9836 68.8802H139.406C143.417 68.8802 146.667 65.6301 146.667 61.6192V33.1252C146.667 29.1143 143.417 25.8642 139.406 25.8642H139.414ZM114.381 23.8008C114.381 25.3142 113.153 26.5423 111.64 26.5423H85.1262C83.6128 26.5423 82.3847 25.3142 82.3847 23.8008V7.9598C82.3847 6.4464 83.6128 5.21832 85.1262 5.21832H111.64C113.153 5.21832 114.381 6.4464 114.381 7.9598V23.8008Z" fill="#152C77"/>
</g>
<path d="M199.529 273.739C199.529 277.75 196.279 281 192.268 281H12.2195C6.20726 281 3.51953 273.409 3.51953 269.398L6.76961 48.1236C6.76961 44.1126 10.0197 40.8626 14.0306 40.8626L189.704 37.6621C193.715 37.6621 199.529 40.631 199.529 45.3035V273.739Z" fill="#06D1FF"/>
<g style="mix-blend-mode:multiply" opacity="0.3">
<path d="M7.26099 37.6621H185.503C189.509 37.6621 192.764 40.9163 192.764 44.9231V270.539C192.764 274.546 189.509 277.8 185.503 277.8H7.26099C3.25421 277.8 0 274.546 0 270.539V44.9231C0 40.9163 3.25421 37.6621 7.26099 37.6621Z" fill="#152C77"/>
</g>
<path d="M11.4602 37.6621H189.702C193.709 37.6621 196.963 40.9163 196.963 44.9231V270.539C196.963 274.546 193.709 277.8 189.702 277.8H11.4602C7.45343 277.8 4.19922 274.546 4.19922 270.539V44.9231C4.19922 40.9163 7.45343 37.6621 11.4602 37.6621Z" fill="#06D1FF"/>
<path d="M186.989 258.105C186.989 261.624 184.136 264.477 180.617 264.477L22.3759 264.126C18.857 264.126 16.0039 261.272 16.0039 257.754L17.8274 60.119C17.8274 56.6002 20.6805 53.7471 24.1994 53.7471L180.617 52.3701C184.136 52.3701 186.989 55.2232 186.989 58.7421V258.109V258.105Z" fill="#EEEFEF"/>
<path d="M22.38 52.3662H178.793C182.308 52.3662 185.165 55.2193 185.165 58.7382V256.728C185.165 260.243 182.312 263.1 178.793 263.1H22.3759C18.8612 263.1 16.0039 260.247 16.0039 256.728V58.7382C16.0039 55.2193 18.8612 52.3662 22.3759 52.3662H22.38Z" fill="#EEEFEF"/>
<path opacity="0.1" d="M49.75 37.6658V64.8407C49.75 68.8516 53.1572 72.1017 57.3625 72.1017H143.796C148.001 72.1017 151.408 68.8516 151.408 64.8407V37.6658H49.75Z" fill="#231F20"/>
<path d="M141.977 25.8642H135.737V21.7582C135.737 18.8637 133.392 16.5192 130.498 16.5192H122.666V5.23899C122.666 2.34452 120.322 0 117.427 0H84.0954C81.2009 0 78.8564 2.34452 78.8564 5.23899V16.5192H71.0248C68.1303 16.5192 65.7858 18.8637 65.7858 21.7582V25.8642H59.5461C55.5352 25.8642 52.2852 29.1143 52.2852 33.1252V61.6192C52.2852 65.6301 55.5352 68.8802 59.5461 68.8802H141.968C145.979 68.8802 149.229 65.6301 149.229 61.6192V33.1252C149.229 29.1143 145.979 25.8642 141.968 25.8642H141.977ZM116.944 23.8008C116.944 25.3142 115.715 26.5423 114.202 26.5423H87.6887C86.1753 26.5423 84.9472 25.3142 84.9472 23.8008V7.9598C84.9472 6.4464 86.1753 5.21832 87.6887 5.21832H114.202C115.715 5.21832 116.944 6.4464 116.944 7.9598V23.8008Z" fill="#06D1FF"/>
<path d="M41.7329 62.2395C41.7329 64.8445 39.6199 66.9575 37.0149 66.9575C34.4098 66.9575 32.2969 64.8445 32.2969 62.2395C32.2969 59.6345 34.4098 57.5215 37.0149 57.5215C39.6199 57.5215 41.7329 59.6345 41.7329 62.2395Z" fill="#06D1FF"/>
<path d="M171.94 62.2395C171.94 64.8445 169.827 66.9575 167.222 66.9575C164.617 66.9575 162.504 64.8445 162.504 62.2395C162.504 59.6345 164.617 57.5215 167.222 57.5215C169.827 57.5215 171.94 59.6345 171.94 62.2395Z" fill="#06D1FF"/>
<path d="M141.777 93.946H164.755C166.116 93.946 167.22 95.0501 167.22 96.4105V119.393C167.22 120.753 166.116 121.857 164.755 121.857H141.773C140.413 121.857 139.309 120.753 139.309 119.393V96.4105C139.309 95.0501 140.413 93.946 141.773 93.946H141.777Z" fill="#DCDDDE"/>
<path d="M141.777 135.722H164.755C166.116 135.722 167.22 136.826 167.22 138.186V161.168C167.22 162.528 166.116 163.633 164.755 163.633H141.773C140.413 163.633 139.309 162.528 139.309 161.168V138.186C139.309 136.826 140.413 135.722 141.773 135.722H141.777Z" fill="#DCDDDE"/>
<path d="M141.777 177.502H164.755C166.116 177.502 167.22 178.606 167.22 179.966V202.948C167.22 204.309 166.116 205.413 164.755 205.413H141.773C140.413 205.413 139.309 204.309 139.309 202.948V179.966C139.309 178.606 140.413 177.502 141.773 177.502H141.777Z" fill="#DCDDDE"/>
<path d="M141.777 219.277H164.759C166.119 219.277 167.223 220.381 167.223 221.742V244.724C167.223 246.084 166.119 247.188 164.759 247.188H141.777C140.417 247.188 139.312 246.084 139.312 244.724V221.742C139.312 220.381 140.417 219.277 141.777 219.277Z" fill="#DCDDDE"/>
<path d="M124.578 98.5078H38.2109V119.786H124.578V98.5078Z" fill="#DCDDDE"/>
<path d="M124.578 139.456H38.2109V160.735H124.578V139.456Z" fill="#DCDDDE"/>
<path d="M124.578 180.4H38.2109V201.679H124.578V180.4Z" fill="#DCDDDE"/>
<path d="M124.578 221.35H38.2109V242.628H124.578V221.35Z" fill="#DCDDDE"/>
</svg>
