<svg width="18" height="18" viewBox="0 0 18 18" fill="none" xmlns="http://www.w3.org/2000/svg">
<circle cx="9" cy="9" r="9" fill="#06D1FF"/>
<path d="M12.9414 9.65747H9.66016V12.9387C9.66016 13.1128 9.59102 13.2797 9.46794 13.4028C9.34487 13.5258 9.17795 13.595 9.00391 13.595C8.82986 13.595 8.66294 13.5258 8.53987 13.4028C8.4168 13.2797 8.34766 13.1128 8.34766 12.9387V9.65747H5.06641C4.89236 9.65747 4.72544 9.58833 4.60237 9.46526C4.4793 9.34219 4.41016 9.17527 4.41016 9.00122C4.41016 8.82717 4.4793 8.66025 4.60237 8.53718C4.72544 8.41411 4.89236 8.34497 5.06641 8.34497H8.34766V5.06372C8.34766 4.88967 8.4168 4.72275 8.53987 4.59968C8.66294 4.47661 8.82986 4.40747 9.00391 4.40747C9.17795 4.40747 9.34487 4.47661 9.46794 4.59968C9.59102 4.72275 9.66016 4.88967 9.66016 5.06372V8.34497H12.9414C13.1155 8.34497 13.2824 8.41411 13.4054 8.53718C13.5285 8.66025 13.5977 8.82717 13.5977 9.00122C13.5977 9.17527 13.5285 9.34219 13.4054 9.46526C13.2824 9.58833 13.1155 9.65747 12.9414 9.65747Z" fill="white"/>
</svg>
