<svg width="72" height="72" viewBox="0 0 72 72" fill="none" xmlns="http://www.w3.org/2000/svg">
<mask id="mask0_6800_17595" style="mask-type:alpha" maskUnits="userSpaceOnUse" x="0" y="0" width="72" height="72">
<rect width="72" height="71.3208" fill="#D9D9D9"/>
</mask>
<g mask="url(#mask0_6800_17595)">
<path d="M36.452 65.0699C35.8773 65.5618 35.0289 65.5618 34.4543 65.0699C26.904 58.6069 21.2245 52.5872 17.4156 47.0109C13.4406 41.1913 11.4531 35.8051 11.4531 30.8523C11.4531 23.4231 13.8656 17.5044 18.6906 13.0964C23.5156 8.68838 29.1031 6.48438 35.4531 6.48438C41.8031 6.48438 47.3906 8.68838 52.2156 13.0964C57.0406 17.5044 59.4531 23.4231 59.4531 30.8523C59.4531 35.8051 57.4656 41.1913 53.4906 47.0109C49.6818 52.5872 44.0022 58.6069 36.452 65.0699Z" fill="#06D1FF"/>
</g>
</svg>
