<svg width="430" height="269" viewBox="0 0 430 269" fill="none" xmlns="http://www.w3.org/2000/svg">
<g clip-path="url(#clip0_6848_17099)">
<rect width="430" height="269" fill="url(#paint0_linear_6848_17099)"/>
<circle cx="261.599" cy="93.0016" r="2.40027" fill="#FFD04F"/>
<circle cx="273.603" cy="96.6024" r="2.40027" fill="#FFD04F"/>
<circle cx="285.603" cy="96.0009" r="2.40027" fill="#FFD04F"/>
<circle cx="295.803" cy="93.6016" r="2.40027" fill="#FFD04F"/>
<circle cx="304.205" cy="89.4012" r="2.40027" fill="#FFD04F"/>
<circle cx="315.006" cy="89.4012" r="2.40027" fill="#FFD04F"/>
<circle cx="324.01" cy="95.4013" r="2.40027" fill="#FFD04F"/>
<circle cx="337.81" cy="100.202" r="2.40027" fill="#FFD04F"/>
<circle cx="352.81" cy="100.803" r="2.40027" fill="#FFD04F"/>
<circle cx="365.412" cy="97.2019" r="2.40027" fill="#FFD04F"/>
<circle cx="374.416" cy="92.4013" r="2.40027" fill="#FFD04F"/>
<circle cx="381.615" cy="87.0007" r="2.40027" fill="#FFD04F"/>
<circle cx="392.416" cy="91.2009" r="2.40027" fill="#FFD04F"/>
<circle cx="403.818" cy="96.0009" r="2.40027" fill="#FFD04F"/>
<circle cx="418.217" cy="98.4022" r="2.40027" fill="#FFD04F"/>
<circle cx="432.021" cy="95.4013" r="2.40027" fill="#FFD04F"/>
<path d="M255 85.5005C262.101 92.7013 283.203 102.122 310.806 82.2001C322.008 94.6016 352.151 111.964 383.115 82.2001C396.616 92.7013 427.58 107.163 443.422 81C445.022 83.2003 449.962 88.1408 456.923 90.3011" stroke="#222222" stroke-width="0.900103"/>
<g filter="url(#filter0_i_6848_17099)">
<path d="M255.133 82.4756L255.133 223" stroke="#E5E5E5" stroke-width="2.26579"/>
</g>
<g filter="url(#filter1_i_6848_17099)">
<path d="M379.352 77.91L379.352 211.457" stroke="#E5E5E5" stroke-width="2.17073"/>
</g>
<path d="M253.997 68.6899V85.7213L625.193 91.5192L671.863 81.7352V64.7039C654.618 61.201 618.68 52.9631 612.892 48.0349C576.351 32.8153 550.664 6 550.664 6C550.664 6 528.595 21.2195 467.453 23.3937C414.18 25.2881 384.241 13.2474 384.241 13.2474C384.241 13.2474 353.127 40.0627 326.355 50.2091C299.08 60.5458 253.997 68.6899 253.997 68.6899Z" fill="white"/>
<path d="M254 85.7208V68.6895L625.195 69.7766V91.5187L254 85.7208Z" fill="#F2F2F2"/>
<path d="M467.453 23.3937C414.18 25.2881 384.241 13.2474 384.241 13.2474C372.085 44.5561 343.962 63.1336 331.42 69.0523V86.8084L346.796 87.1708L439.595 88.6202L485.994 89.345L512.676 89.7074V69.4147C523.65 60.597 546.612 36.1491 550.664 6C550.664 6 528.595 21.2195 467.453 23.3937Z" fill="#B2D7FF"/>
<path d="M485.998 89.3445L439.598 88.6197L346.8 87.1702L331.423 86.9345V69.0518L512.68 69.4141V89.7068L485.998 89.3445Z" fill="#A1C6EF"/>
<path d="M143.004 232.383L126.33 222.775L143.004 213.167C147.052 210.83 149.708 206.675 150.135 202.019L153.013 170.339C153.05 169.986 152.976 169.615 152.79 169.282C152.605 168.948 152.326 168.707 151.992 168.558L123.08 155.203C118.846 153.237 113.889 153.46 109.841 155.797L93.1658 165.405V146.17C93.1658 141.496 90.8818 137.119 87.0566 134.429L61.0417 116.085C60.7446 115.881 60.3918 115.77 60.0205 115.77C59.6491 115.77 59.2777 115.881 58.9992 116.085L32.9657 134.411C29.1405 137.1 26.8751 141.496 26.8751 146.152V165.386L10.2003 155.778C6.15234 153.441 1.21303 153.219 -3.03923 155.185L-31.9509 168.54C-32.2665 168.688 -32.5451 168.929 -32.7493 169.263C-32.935 169.597 -33.0093 169.968 -32.9721 170.32L-30.094 202.001C-29.6669 206.656 -27.0116 210.811 -22.9636 213.148L-6.28877 222.756L-22.9636 232.364C-27.0116 234.702 -29.6669 238.856 -30.094 243.512L-32.9907 275.23C-33.0279 275.582 -32.9536 275.953 -32.7679 276.268C-32.5822 276.602 -32.3037 276.843 -31.9694 276.992L-3.05779 290.347C1.1759 292.313 6.13377 292.09 10.1818 289.753L26.8566 280.145V299.38C26.8566 304.054 29.1405 308.431 32.9657 311.121L58.9992 329.447C59.2963 329.651 59.6491 329.762 60.0205 329.762C60.3918 329.762 60.7632 329.651 61.0417 329.447L87.0752 311.121C90.9004 308.431 93.1658 304.035 93.1658 299.38V280.145L109.841 289.753C113.889 292.09 118.828 292.313 123.08 290.347L151.992 276.992C152.307 276.843 152.586 276.602 152.79 276.268C152.976 275.935 153.05 275.582 153.013 275.23L150.135 243.549C149.708 238.893 147.052 234.739 143.004 232.402V232.383ZM141.816 234.442C145.196 236.389 147.424 239.877 147.777 243.753L150.469 273.579L93.1658 240.526V206.378L113.202 217.934L141.797 234.423L141.816 234.442ZM90.789 206.378V239.153L62.3601 222.756L90.789 206.36V206.378ZM61.1903 187.941L89.6006 204.338L61.1903 220.735V187.96V187.941ZM57.6251 222.775L29.2148 239.172V206.397L57.6251 222.794V222.775ZM58.8135 257.609L30.3846 241.212L58.8135 224.815V257.59V257.609ZM61.1903 224.834L89.6006 241.231L61.1903 257.627V224.852V224.834ZM58.8135 220.735L30.3846 204.338L58.8135 187.941V220.716V220.735ZM147.758 201.815C147.405 205.692 145.177 209.179 141.797 211.127L123.934 221.421L94.3356 204.338L150.451 171.971L147.758 201.797V201.815ZM111.01 157.856C112.83 156.798 114.91 156.242 117.008 156.242C118.772 156.242 120.462 156.613 122.059 157.355L149.262 169.931L93.1472 202.298V168.132L111.01 157.837V157.856ZM90.789 146.189V166.573V202.298L61.1903 185.233V119.108L85.7011 136.358C88.895 138.603 90.789 142.275 90.789 146.17V146.189ZM34.3027 136.377L58.8321 119.108V185.196L29.2334 202.279V146.17C29.2334 142.275 31.146 138.603 34.3212 136.358L34.3027 136.377ZM-2.07365 157.355C-0.476731 156.613 1.21303 156.242 2.97707 156.242C5.09391 156.242 7.15505 156.798 8.97479 157.856L26.838 168.15V202.298L-29.277 169.912L-2.07365 157.336V157.355ZM-21.7937 211.108C-25.1732 209.16 -27.4015 205.673 -27.7543 201.797L-30.4468 171.971L25.6682 204.338L-3.93053 221.402L-21.7752 211.108H-21.7937ZM-27.7543 243.753C-27.4015 239.877 -25.1732 236.389 -21.7937 234.442L2.43857 220.456L26.8566 206.378V240.526L-30.4468 273.579L-27.7543 243.753ZM8.99336 287.713C7.17362 288.77 5.09391 289.326 2.99564 289.326C1.2316 289.326 -0.458162 288.956 -2.05508 288.214L-29.277 275.638L28.0264 242.585L57.6251 259.668L38.6849 270.593L8.97479 287.731L8.99336 287.713ZM29.2148 299.38V278.791L58.8135 261.708V326.442L34.3027 309.192C31.1088 306.947 29.2148 303.275 29.2148 299.38ZM85.7011 309.192L61.1903 326.442V261.708L90.789 278.772V299.361C90.789 303.256 88.8764 306.929 85.7011 309.173V309.192ZM122.077 288.214C120.48 288.956 118.791 289.326 117.027 289.326C114.928 289.326 112.849 288.77 111.029 287.713L81.4489 270.667L62.3787 259.668L91.9774 242.603L149.281 275.656L122.077 288.232V288.214Z" fill="white" fill-opacity="0.08"/>
<path d="M244.442 72.511L227.767 62.9029L244.442 53.2949C248.49 50.9578 251.145 46.8029 251.572 42.1473L254.451 10.4667C254.488 10.1143 254.413 9.74333 254.228 9.40946C254.042 9.07559 253.764 8.83446 253.429 8.68607L224.518 -4.66874C220.284 -6.63487 215.326 -6.41229 211.278 -4.07519L194.603 5.53285V-13.7018C194.603 -18.376 192.319 -22.7534 188.494 -25.4429L162.479 -43.7872C162.182 -43.9912 161.829 -44.1025 161.458 -44.1025C161.087 -44.1025 160.715 -43.9912 160.437 -43.7872L134.403 -25.4614C130.578 -22.7719 128.313 -18.376 128.313 -13.7203V5.5143L111.638 -4.09374C107.59 -6.43084 102.651 -6.65341 98.3983 -4.68729L69.4866 8.66753C69.171 8.81591 68.8924 9.05704 68.6882 9.39091C68.5025 9.72478 68.4282 10.0957 68.4654 10.4482L71.3435 42.1288C71.7706 46.7844 74.4259 50.9392 78.4739 53.2763L95.1487 62.8844L78.4739 72.4924C74.4259 74.8295 71.7706 78.9843 71.3435 83.64L68.4468 115.358C68.4096 115.71 68.4839 116.081 68.6696 116.396C68.8553 116.73 69.1338 116.971 69.4681 117.12L98.3797 130.475C102.613 132.441 107.571 132.218 111.619 129.881L128.294 120.273V139.508C128.294 144.182 130.578 148.559 134.403 151.249L160.437 169.574C160.734 169.779 161.087 169.89 161.458 169.89C161.829 169.89 162.201 169.779 162.479 169.574L188.513 151.249C192.338 148.559 194.603 144.163 194.603 139.508V120.273L211.278 129.881C215.326 132.218 220.265 132.441 224.518 130.475L253.429 117.12C253.745 116.971 254.023 116.73 254.228 116.396C254.413 116.062 254.488 115.71 254.451 115.358L251.572 83.6771C251.145 79.0214 248.49 74.8666 244.442 72.5295V72.511ZM243.254 74.5698C246.633 76.5174 248.861 80.0045 249.214 83.8811L251.907 113.707L194.603 80.6537V46.5062L214.639 58.0618L243.235 74.5513L243.254 74.5698ZM192.226 46.5062V79.2811L163.798 62.8844L192.226 46.4876V46.5062ZM162.628 28.0691L191.038 44.4658L162.628 60.8626V28.0876V28.0691ZM159.063 62.9029L130.652 79.2996V46.5247L159.063 62.9215V62.9029ZM160.251 97.7367L131.822 81.34L160.251 64.9432V97.7182V97.7367ZM162.628 64.9618L191.038 81.3585L162.628 97.7553V64.9803V64.9618ZM160.251 60.8626L131.822 44.4658L160.251 28.0691V60.844V60.8626ZM249.196 41.9433C248.843 45.8199 246.615 49.307 243.235 51.2545L225.372 61.5489L195.773 44.4658L251.888 12.099L249.196 41.9247V41.9433ZM212.448 -2.01633C214.268 -3.07358 216.347 -3.63003 218.446 -3.63003C220.21 -3.63003 221.899 -3.25907 223.496 -2.51713L250.7 10.0587L194.585 42.4255V8.25946L212.448 -2.03487V-2.01633ZM192.226 -13.6832V6.7014V42.4255L162.628 25.361V-40.7638L187.139 -23.5139C190.332 -21.2695 192.226 -17.5969 192.226 -13.7018V-13.6832ZM135.74 -23.4953L160.27 -40.7638V25.3239L130.671 42.407V-13.7018C130.671 -17.5969 132.583 -21.2695 135.759 -23.5139L135.74 -23.4953ZM99.3639 -2.51713C100.961 -3.25907 102.651 -3.63003 104.415 -3.63003C106.531 -3.63003 108.593 -3.07358 110.412 -2.01633L128.275 8.27801V42.4255L72.1605 10.0401L99.3639 -2.53568V-2.51713ZM79.6438 51.236C76.2643 49.2884 74.036 45.8013 73.6832 41.9247L70.9907 12.099L127.106 44.4658L97.507 61.5303L79.6623 51.236H79.6438ZM73.6832 83.8811C74.036 80.0045 76.2643 76.5174 79.6438 74.5698L103.876 60.5844L128.294 46.5062V80.6537L70.9907 113.707L73.6832 83.8811ZM110.431 127.841C108.611 128.898 106.531 129.454 104.433 129.454C102.669 129.454 100.979 129.083 99.3824 128.341L72.1605 115.766L129.464 82.7126L159.063 99.7956L140.122 110.721L110.412 127.859L110.431 127.841ZM130.652 139.508V118.919L160.251 101.836V166.57L135.74 149.32C132.546 147.075 130.652 143.403 130.652 139.508ZM187.139 149.32L162.628 166.57V101.836L192.226 118.9V139.489C192.226 143.384 190.314 147.057 187.139 149.301V149.32ZM223.515 128.341C221.918 129.083 220.228 129.454 218.464 129.454C216.366 129.454 214.286 128.898 212.466 127.841L182.886 110.795L163.816 99.7956L193.415 82.7311L250.718 115.784L223.515 128.36V128.341Z" fill="white" fill-opacity="0.08"/>
<path d="M315.106 135.395C315.106 135.395 303.162 150.073 298.906 158.107C298.906 158.107 291.061 152.64 287.607 151.697C284.153 150.754 281.315 150.045 276.591 155.242C271.868 160.44 266.902 168.474 265.484 173.196C264.065 177.918 265.959 182.648 273.279 187.838C280.606 193.036 296.579 202.367 306.431 201.835L313.822 184.889L321.582 149.102L315.099 135.402L315.106 135.395Z" fill="white" stroke="#000001" stroke-width="3.53968" stroke-linecap="round" stroke-linejoin="round"/>
<path d="M298.908 158.104C298.908 158.104 300.922 159.721 301.66 160.522L298.908 158.104Z" fill="white"/>
<path d="M298.908 158.104C298.908 158.104 300.922 159.721 301.66 160.522" stroke="#000001" stroke-width="3.53968" stroke-linecap="round" stroke-linejoin="round"/>
<path d="M421.104 184.879C423.196 193.657 436.836 221.021 458.704 248.008C463.109 253.446 464.222 258.396 457.363 262.523C450.504 266.649 421.395 268.55 405.407 254.999L421.104 184.872V184.879Z" fill="white" stroke="#000001" stroke-width="3.53968" stroke-linecap="round" stroke-linejoin="round"/>
<path d="M360.127 261.269C360.127 261.269 361.021 274.5 358.446 280.995C355.872 287.491 350.651 287.554 338.55 287.703C326.45 287.852 321.222 285.86 319.3 280.925C317.378 275.989 319.974 237.444 319.974 237.444L360.127 261.269Z" fill="white" stroke="#000001" stroke-width="3.53968" stroke-linecap="round" stroke-linejoin="round"/>
<path d="M377.638 90.1555C377.638 90.1555 383.213 83.6391 391.859 86.2485C400.591 88.8934 402.598 97.1115 401.222 102.415C398.931 111.229 388.88 112.314 388.88 112.314L377.638 90.1555Z" fill="#0A509D" stroke="#000001" stroke-width="3.53968" stroke-linecap="round" stroke-linejoin="round"/>
<path d="M390.397 112.059C390.397 112.059 395.738 105.344 404.285 107.883C412.917 110.443 415.066 118.781 413.825 124.192C411.76 133.19 401.908 134.445 401.908 134.445L390.397 112.059Z" fill="#0A509D" stroke="#000001" stroke-width="3.53968" stroke-linecap="round" stroke-linejoin="round"/>
<path d="M401.932 136.351C401.932 136.351 407.273 129.636 415.82 132.175C424.452 134.734 426.601 143.073 425.36 148.483C423.296 157.481 413.444 158.736 413.444 158.736L401.932 136.351Z" fill="#0A509D" stroke="#000001" stroke-width="3.53968" stroke-linecap="round" stroke-linejoin="round"/>
<path d="M356.58 79.1997C356.58 79.1997 358.871 71.7331 367.325 70.7688C375.872 69.7974 380.774 75.9166 381.632 80.8376C383.065 89.0203 377.894 91.5871 377.894 91.5871L356.587 79.1926L356.58 79.1997Z" fill="#0A509D" stroke="#000001" stroke-width="3.53968" stroke-linecap="round" stroke-linejoin="round"/>
<path d="M313.581 141.499C313.581 141.499 303.779 169.288 306.68 205.16C309.375 238.465 327.299 267.211 362.26 267.317C412.067 267.473 431.587 241.188 421.813 187.149C412.783 137.238 394.235 103.649 374.467 88.5174C354.954 73.5773 332.044 74.804 318.192 83.2207C294.402 97.6715 299.466 126.9 313.588 141.506L313.581 141.499Z" fill="white"/>
<path d="M294.969 85.6318C294.969 85.6318 283.507 88.3901 284.705 109.669" stroke="#000001" stroke-width="3.53968" stroke-linecap="round" stroke-linejoin="round"/>
<path d="M293.691 93.1349L281.52 87.8027" stroke="#000001" stroke-width="3.53968" stroke-linecap="round" stroke-linejoin="round"/>
<path d="M291.16 102.6L278.074 100.316" stroke="#000001" stroke-width="3.53968" stroke-linecap="round" stroke-linejoin="round"/>
<path d="M345.528 164.878C381.879 161.602 390.171 210.216 391.419 221.377C393.611 255.674 373.964 256.355 372.467 264.729C370.609 265.275 368.616 265.679 366.466 265.928C344.258 268.494 331.392 250.413 324.398 228.021C317.404 205.621 315.929 167.544 345.528 164.878Z" fill="#0A509D"/>
<path d="M309.032 159.879C306.947 171.309 305.216 187.228 306.67 205.167C307.905 220.448 312.387 235.133 320.211 246.166" stroke="#000001" stroke-width="3.53968" stroke-linecap="round" stroke-linejoin="round"/>
<path d="M426.117 197.502C424.245 194.46 422.365 190.269 421.805 187.156C412.775 137.245 394.227 103.656 374.459 88.5242C354.946 73.5841 332.036 74.8108 318.184 83.2275C294.394 97.6784 299.458 126.906 313.58 141.513" stroke="#000001" stroke-width="3.53968" stroke-linecap="round" stroke-linejoin="round"/>
<path d="M347.643 265.417C352.133 266.643 356.999 267.31 362.255 267.324C382.753 267.388 398.124 262.97 408.43 253.986" stroke="#000001" stroke-width="3.53968" stroke-linecap="round" stroke-linejoin="round"/>
<path d="M420.207 247.669C419.356 260.432 417.966 277.103 416.285 280.995C413.483 287.49 407.801 287.554 394.644 287.703C381.48 287.852 375.791 285.86 373.699 280.924C371.606 275.989 372.833 262.077 372.833 262.077" fill="white"/>
<path d="M420.207 247.669C419.356 260.432 417.966 277.103 416.285 280.995C413.483 287.49 407.801 287.554 394.644 287.703C381.48 287.852 375.791 285.86 373.699 280.924C371.606 275.989 372.833 262.077 372.833 262.077" stroke="#000001" stroke-width="3.53968" stroke-linecap="round" stroke-linejoin="round"/>
<path d="M366.618 96.3039C369.1 96.5734 371.136 97.6795 372.725 99.6153C374.271 101.565 374.909 103.792 374.633 106.288C374.356 108.784 373.257 110.811 371.327 112.357C369.355 113.917 367.128 114.57 364.646 114.293C362.142 114.017 360.12 112.91 358.574 110.96C357.007 109.032 356.361 106.812 356.631 104.309C356.907 101.806 358.021 99.7784 359.971 98.2113C361.901 96.6655 364.114 96.0274 366.618 96.3039Z" fill="#375BA5"/>
<path d="M314.771 93.3885C316.892 93.6367 318.623 94.7145 319.963 96.629C321.268 98.5577 321.786 100.777 321.524 103.28C321.261 105.783 320.297 107.818 318.63 109.385C316.927 110.966 315.012 111.64 312.884 111.392C310.742 111.144 309.026 110.059 307.721 108.123C306.402 106.209 305.87 104.003 306.132 101.5C306.394 98.9973 307.366 96.9552 309.054 95.374C310.721 93.8069 312.629 93.1474 314.771 93.3956V93.3885Z" fill="#375BA5"/>
<path d="M329.208 91.7876C329.123 91.6954 329.024 91.5961 328.917 91.504C327.974 90.7169 326.896 90.3765 325.676 90.4829C324.428 90.5892 323.413 91.114 322.626 92.0571C321.839 93.0001 321.498 94.0921 321.612 95.333C321.718 96.5526 322.243 97.5452 323.179 98.3039C323.846 98.857 324.562 99.2044 325.343 99.3392C325.704 99.3817 326.08 99.3888 326.456 99.3534C326.832 99.3179 327.187 99.2471 327.513 99.1478C328.286 98.8783 328.932 98.4103 329.464 97.7437C330.251 96.829 330.591 95.7654 330.485 94.5458L330.421 93.8226C330.201 93.0498 329.797 92.369 329.201 91.7805L329.208 91.7876Z" fill="#000001"/>
<path d="M355.481 94.4267C355.367 94.3345 355.261 94.2423 355.147 94.1501C354.183 93.3418 353.076 92.9873 351.828 93.1007C350.558 93.2142 349.501 93.753 348.671 94.7244C347.863 95.6888 347.508 96.8092 347.622 98.0784C347.735 99.3477 348.274 100.39 349.239 101.198C349.927 101.751 350.665 102.099 351.445 102.234C351.835 102.304 352.232 102.319 352.636 102.283C353.019 102.248 353.395 102.163 353.764 102.028C354.509 101.758 355.161 101.291 355.715 100.624C356.523 99.6596 356.878 98.5393 356.764 97.2701C356.743 97.0148 356.722 96.7737 356.701 96.5468C356.474 95.7456 356.069 95.0436 355.474 94.4267H355.481Z" fill="#000001"/>
<path d="M357.857 107.614C343.104 108.89 331.656 108.259 320.215 104.749C320.215 104.749 317.959 122.136 336.174 124.22C354.389 126.305 359.999 114.612 357.857 107.621V107.614Z" stroke="#000001" stroke-width="3.53968" stroke-linecap="round" stroke-linejoin="round"/>
<path d="M322.273 105.821C321.628 109.884 323.004 112.16 325.323 112.309C328.983 112.55 329.636 107.331 329.636 107.331C329.962 111.075 331.338 113.259 333.814 113.493C336.289 113.727 338.204 112.103 338.906 108.295C332.899 108.274 327.338 107.303 322.273 105.813V105.821Z" stroke="#000001" stroke-width="3.53968" stroke-linecap="round" stroke-linejoin="round"/>
<path d="M363.891 153.951C363.891 153.951 361.366 195.212 362.77 213.69C362.77 213.69 342.569 215.768 325.468 213.69C325.468 213.69 320.056 180.009 325.468 155.539C337.64 153.468 351.471 153.242 363.891 153.951Z" fill="white" stroke="#000001" stroke-width="3.53968" stroke-linecap="round" stroke-linejoin="round"/>
<path d="M357.012 150.264C357.012 150.264 354.487 190.553 355.891 208.599C355.891 208.599 335.69 210.627 318.589 208.599C318.589 208.599 313.177 175.712 318.589 151.817C330.761 149.796 344.592 149.569 357.012 150.264Z" fill="white" stroke="#000001" stroke-width="3.53968" stroke-linecap="round" stroke-linejoin="round"/>
<path d="M379.232 168.332C370.046 163.581 355.321 163.361 352.257 168.552C348.384 175.111 343.561 192.838 349.711 198.056C355.86 203.268 367.5 208.777 380.977 208.6C389.063 208.494 396.163 207.154 400.489 199.318C403.277 194.27 405.426 187.768 406.66 180.932" fill="white"/>
<path d="M379.232 168.332C370.046 163.581 355.321 163.361 352.257 168.552C348.384 175.111 343.561 192.838 349.711 198.056C355.86 203.268 367.5 208.777 380.977 208.6C389.063 208.494 396.163 207.154 400.489 199.318C403.277 194.27 405.426 187.768 406.66 180.932" stroke="#000001" stroke-width="3.53968" stroke-linecap="round" stroke-linejoin="round"/>
<path d="M354.462 187.809C355.278 184.746 354.427 182.392 350.937 180.917C355.087 180.569 356.47 178.272 356.917 176.045C357.363 173.819 356.207 170.827 352.583 169.501L351.902 169.316C349.944 171.486 344.894 183.235 347.44 192.517C350.788 192.73 353.732 190.539 354.462 187.809Z" fill="white" stroke="#000001" stroke-width="3.53968" stroke-linecap="round" stroke-linejoin="round"/>
<path d="M263.01 188.955C263.002 189.064 262.993 189.184 262.983 189.316C262.935 189.963 262.863 190.872 262.773 191.921C262.602 193.902 262.362 196.388 262.074 198.545L265.106 200.296C266.853 198.962 268.874 197.507 270.488 196.368C271.342 195.765 272.082 195.25 272.61 194.885C272.718 194.81 272.818 194.741 272.908 194.679L268.811 190.548L263.01 188.955Z" fill="#D6C7B9" stroke="black" stroke-width="1.10142"/>
<path d="M261.914 199.724L261.673 201.46L261.672 201.46C261.652 201.605 261.647 201.806 261.674 202.002C261.702 202.206 261.757 202.347 261.813 202.421C261.847 202.467 261.872 202.484 261.95 202.48C262.071 202.473 262.326 202.398 262.748 202.085L262.939 201.945C263.283 201.687 263.696 201.373 264.158 201.019L261.914 199.724Z" fill="#181818" stroke="black" stroke-width="1.10142"/>
<path d="M289.326 146.012C288.448 145.505 287.569 145.761 287.267 146.283L263.164 188.031C262.862 188.554 263.081 189.443 263.958 189.95C264.836 190.456 265.714 190.201 266.016 189.678L290.12 147.93C290.421 147.407 290.202 146.518 289.326 146.012Z" fill="#F0A71E" stroke="black" stroke-width="1.10142"/>
<path d="M293.134 148.21C292.256 147.704 291.377 147.959 291.076 148.481L266.972 190.23C266.671 190.752 266.889 191.641 267.767 192.148C268.645 192.654 269.523 192.399 269.825 191.877L293.928 150.128C294.23 149.605 294.011 148.716 293.134 148.21Z" fill="#D99007" stroke="black" stroke-width="1.10142"/>
<path d="M296.939 150.408C296.061 149.902 295.182 150.157 294.88 150.679L270.777 192.428C270.475 192.95 270.694 193.839 271.572 194.346C272.449 194.852 273.328 194.597 273.629 194.075L297.733 152.326C298.035 151.803 297.815 150.915 296.939 150.408Z" fill="#F0A71E" stroke="black" stroke-width="1.10142"/>
<path d="M288.019 144.978L286.958 146.817L297.424 152.86L298.486 151.021L288.019 144.978Z" fill="#D6C7B9" stroke="black" stroke-width="1.10142"/>
<path d="M297.302 140.986C295.811 140.125 294.238 139.778 292.916 139.888C291.591 139.999 290.573 140.558 290.056 141.453C290.039 141.482 290.024 141.513 289.999 141.562L289.736 142.081L289.704 142.063L288.571 144.025L299.037 150.067L300.17 148.105L300.138 148.087L300.456 147.6C300.486 147.554 300.505 147.525 300.522 147.495C301.039 146.601 301.013 145.438 300.447 144.236C299.881 143.036 298.794 141.847 297.302 140.986Z" fill="#F01E1E" stroke="black" stroke-width="1.10142"/>
<path d="M296.018 158.912C298.654 162.066 296.605 166.744 293.902 172.015C291.199 177.287 285.55 187.742 283.321 189.597C281.095 191.445 276.112 189.526 272.315 187.263C268.522 184.993 263.779 182.582 263.902 179.022C264.025 175.462 266.762 168.373 269.99 162.093C273.216 155.821 276.146 149.965 281.874 149.866C286.001 149.791 292.833 155.1 296.018 158.912Z" fill="white" stroke="#000001" stroke-width="3.22744" stroke-linecap="round" stroke-linejoin="round"/>
<path d="M281.813 178.646C283.053 175.73 285.308 174.403 289.297 175.373C285.881 172.556 286.14 169.898 287.169 167.872C288.199 165.846 291.121 164.195 295.144 165.373L295.859 165.648C295.721 166.106 295.55 166.601 295.365 167.108C294.272 169.765 292.961 172.641 291.558 175.426C291.379 175.778 291.203 176.122 291.013 176.478C290.69 177.101 290.38 177.694 290.09 178.261C288.352 181.513 286.562 184.48 284.949 186.656C281.884 184.772 280.703 181.242 281.808 178.636L281.813 178.646Z" fill="white" stroke="#000001" stroke-width="3.22744" stroke-linecap="round" stroke-linejoin="round"/>
</g>
<defs>
<filter id="filter0_i_6848_17099" x="254" y="82.4756" width="3.02089" height="140.524" filterUnits="userSpaceOnUse" color-interpolation-filters="sRGB">
<feFlood flood-opacity="0" result="BackgroundImageFix"/>
<feBlend mode="normal" in="SourceGraphic" in2="BackgroundImageFix" result="shape"/>
<feColorMatrix in="SourceAlpha" type="matrix" values="0 0 0 0 0 0 0 0 0 0 0 0 0 0 0 0 0 0 127 0" result="hardAlpha"/>
<feOffset dx="0.755263"/>
<feGaussianBlur stdDeviation="1.51053"/>
<feComposite in2="hardAlpha" operator="arithmetic" k2="-1" k3="1"/>
<feColorMatrix type="matrix" values="0 0 0 0 0 0 0 0 0 0 0 0 0 0 0 0 0 0 0.25 0"/>
<feBlend mode="normal" in2="shape" result="effect1_innerShadow_6848_17099"/>
</filter>
<filter id="filter1_i_6848_17099" x="378.266" y="77.91" width="2.89545" height="133.547" filterUnits="userSpaceOnUse" color-interpolation-filters="sRGB">
<feFlood flood-opacity="0" result="BackgroundImageFix"/>
<feBlend mode="normal" in="SourceGraphic" in2="BackgroundImageFix" result="shape"/>
<feColorMatrix in="SourceAlpha" type="matrix" values="0 0 0 0 0 0 0 0 0 0 0 0 0 0 0 0 0 0 127 0" result="hardAlpha"/>
<feOffset dx="0.723578"/>
<feGaussianBlur stdDeviation="1.44716"/>
<feComposite in2="hardAlpha" operator="arithmetic" k2="-1" k3="1"/>
<feColorMatrix type="matrix" values="0 0 0 0 0 0 0 0 0 0 0 0 0 0 0 0 0 0 0.25 0"/>
<feBlend mode="normal" in2="shape" result="effect1_innerShadow_6848_17099"/>
</filter>
<linearGradient id="paint0_linear_6848_17099" x1="215" y1="0" x2="215" y2="269" gradientUnits="userSpaceOnUse">
<stop stop-color="#06D1FF"/>
<stop offset="1" stop-color="white"/>
</linearGradient>
<clipPath id="clip0_6848_17099">
<rect width="430" height="269" fill="white"/>
</clipPath>
</defs>
</svg>
